SplineFontDB: 3.2
FontName: IthkuilFlow-Oblique
FullName: Ithkuil Flow Oblique
FamilyName: IthkuilFlow
Weight: Regular
Copyright: Shankar Sivarajan\nBased on glyphs by Zachary Sakowitz.
UComments: "2023-2-19: Created with FontForge (http://fontforge.org)"
Version: 
ItalicAngle: 0
UnderlinePosition: -96
UnderlineWidth: 48
Ascent: 384
Descent: 128
InvalidEm: 0
LayerCount: 2
Layer: 0 0 "Back" 1
Layer: 1 0 "Fore" 0
XUID: [1021 73 1113128204 8431]
FSType: 0
OS2Version: 0
OS2_WeightWidthSlopeOnly: 0
OS2_UseTypoMetrics: 1
CreationTime: 1676795389
ModificationTime: 1701831808
PfmFamily: 17
TTFWeight: 400
TTFWidth: 5
LineGap: 48
VLineGap: 0
OS2TypoAscent: 0
OS2TypoAOffset: 1
OS2TypoDescent: 0
OS2TypoDOffset: 1
OS2TypoLinegap: 48
OS2WinAscent: 0
OS2WinAOffset: 1
OS2WinDescent: 0
OS2WinDOffset: 1
HheadAscent: 0
HheadAOffset: 1
HheadDescent: 0
HheadDOffset: 1
OS2Vendor: 'PfEd'
OS2CodePages: 00000000.00000000
OS2UnicodeRanges: 00000000.00000000.00000000.00000000
Lookup: 6 0 0 "OneQuote" { "OneQuote subtable"  } ['liga' ('grek' <'dflt' > 'latn' <'dflt' > 'DFLT' <'dflt' > ) ]
Lookup: 1 0 0 "Single Substitution lookup 1" { "Single Substitution lookup 1 subtable"  } []
Lookup: 4 0 1 "ExtraMoveDiacritic" { "ExtraMoveDiacritic subtable"  } ['liga' ('grek' <'dflt' > 'latn' <'dflt' > 'DFLT' <'dflt' > ) ]
Lookup: 4 0 1 "FlipCores" { "FlipCores subtable"  } ['liga' ('grek' <'dflt' > 'latn' <'dflt' > 'DFLT' <'dflt' > ) ]
Lookup: 4 0 1 "TertiaryLigature" { "TertiaryLigature subtable"  } ['liga' ('grek' <'dflt' > 'latn' <'dflt' > 'DFLT' <'dflt' > ) ]
Lookup: 4 0 1 "VowelLigature" { "VowelLigature subtable"  } ['liga' ('grek' <'dflt' > 'latn' <'dflt' > 'DFLT' <'dflt' > ) ]
Lookup: 4 0 1 "RegisterLigature" { "RegisterLigature subtable"  } ['liga' ('grek' <'dflt' > 'latn' <'dflt' > 'DFLT' <'dflt' > ) ]
Lookup: 6 0 0 "VowelAnchor" { "VowelAnchor contextual 0"  "VowelAnchor contextual 1"  } ['liga' ('grek' <'dflt' > 'latn' <'dflt' > 'DFLT' <'dflt' > ) ]

StartChar: RPV.VAR
Encoding: 65536 -1 0
Width: 1024
VWidth: 1024
Flags: H
LayerCount: 2
Back
SplineSet
-202 543 m 4
 -202 596 -159 639 -106 639 c 4
 -53 639 -10 596 -10 543 c 4
 -10 490 -53 447 -106 447 c 4
 -159 447 -202 490 -202 543 c 4
-250 495 m 4
 -250 548 -207 591 -154 591 c 4
 -101 591 -58 548 -58 495 c 4
 -58 442 -101 399 -154 399 c 4
 -207 399 -250 442 -250 495 c 4
EndSplineSet
Fore
Validated: 1
EndChar

StartChar: two.hund
Encoding: 65537 -1 1
Width: 320
GlyphClass: 4
Flags: HW
AnchorPoint: "Extension_mkmk" -10 384 mark 0
LayerCount: 2
Fore
SplineSet
-0.197117855384 382.027475586 m 0
 -0.570873346227 380.158698132 -1.48147812381 378.376386252 -2.92893218813 376.928932188 c 0
 -6.83156057952 373.026303797 -13.1684394205 373.026303797 -17.0710678119 376.928932188 c 0
 -19.5262421389 379.384106515 -20.4368469165 382.802700554 -19.8028821446 385.972524414 c 0
 -18.3825723258 393.074073508 -17.8469492555 399.583053027 -18.0218993601 405.553266749 c 0
 -18.2405842732 413.015941166 -19.5620525492 419.650062216 -21.7323632775 425.627383106 c 0
 -24.8544437291 434.226002862 -29.7673738162 441.536758406 -35.9646529897 447.73403758 c 0
 -42.9705121461 454.739896736 -51.7241348089 460.370381143 -61.2388499048 464.526610231 c 0
 -73.1282062643 469.720132921 -86.1521754863 472.579797479 -98.0042914352 473.253746888 c 0
 -107.482337725 473.792699065 -116.16555083 472.908977613 -122.710995715 471.026273039 c 0
 -125.61358069 470.191385555 -128.074764076 469.168529789 -129.982179725 468.088958968 c 0
 -131.508830974 467.224895521 -132.66988551 466.329435118 -133.465435171 465.533885457 c 0
 -134.316928741 464.682391887 -134.803324861 463.915347114 -135.087071393 463.233365179 c 0
 -135.285947887 462.755367527 -135.400802505 462.299269868 -135.448783435 461.752202313 c 0
 -135.487240697 461.313721432 -135.480756807 460.80584029 -135.388796043 460.176944853 c 0
 -135.256826724 459.274441446 -134.940344315 458.1114994 -134.293895701 456.681684958 c 0
 -133.487148321 454.897321856 -132.165509944 452.715916812 -130.184279282 450.239378484 c 0
 -127.044489113 446.314640773 -127.292706749 440.565157628 -130.928932188 436.928932188 c 0
 -134.83156058 433.026303797 -141.16843942 433.026303797 -145.071067812 436.928932188 c 0
 -145.337470764 437.19533514 -145.585688399 437.473081118 -145.815720718 437.760621516 c 0
 -148.642650445 441.294283676 -150.884952673 444.822058202 -152.516528965 448.430777122 c 0
 -153.820739288 451.315428298 -154.734520979 454.264649438 -155.173145584 457.264287548 c 0
 -155.4774306 459.345212609 -155.549064513 461.445868368 -155.367848163 463.512055633 c 0
 -155.141237079 466.09582326 -154.516200601 468.608265856 -153.549606772 470.931464395 c 0
 -152.155076039 474.283204975 -150.080713808 477.202878068 -147.607570795 479.676021081 c 0
 -145.288195554 481.995396321 -142.663775545 483.897017653 -139.831947676 485.499792978 c 0
 -136.291264428 487.503770623 -132.409029273 489.048458694 -128.263393784 490.240892063 c 0
 -118.950342624 492.919659407 -108.206999947 493.862531018 -96.8605466284 493.217335212 c 0
 -82.6820380662 492.411099642 -67.4910955467 489.086296334 -53.21976057 482.85227493 c 0
 -41.805922597 477.866468743 -30.9456932503 470.999349088 -21.8225173659 461.876173203 c 0
 -13.7543028916 453.807958729 -7.12780812538 444.012460047 -2.93800780609 432.473199494 c 0
 -0.0306235544756 424.465881281 1.68685696765 415.653352193 1.96553363502 406.143444967 c 0
 2.18847279489 398.535593374 1.49536931035 390.489911415 -0.197117855384 382.027475586 c 0
EndSplineSet
EndChar

StartChar: one.ten
Encoding: 65538 -1 2
Width: 320
GlyphClass: 4
Flags: HW
AnchorPoint: "Extension_mkmk" 6 384 mark 0
LayerCount: 2
Fore
SplineSet
6 374.001960895 m 0
 3.44012319191 374.001960895 0.880246383827 374.977617992 -1.07106781187 376.928932188 c 0
 -4.97369620325 380.83156058 -4.97369620325 387.16843942 -1.07106781187 391.071067812 c 0
 0.880246383827 393.022382008 3.44012319191 393.998039105 6 393.998039105 c 0
 50.6931459632 393.998039105 83.5706173189 385.878894921 107.349698073 375.199667038 c 0
 126.367868513 366.658572528 139.50548988 356.508101321 148.215310435 347.798280765 c 0
 158.668029958 337.345561242 162.664239763 329.08516883 163.061553276 328.233782732 c 0
 164.789621726 324.53077892 164.126126571 319.983990947 161.071067812 316.928932188 c 0
 157.16843942 313.026303797 150.83156058 313.026303797 146.928932188 316.928932188 c 0
 146.100548525 317.757315851 145.448000074 318.695376097 144.97128669 319.696552292 c 0
 144.906214517 319.827684322 144.080693499 321.468278728 142.226781943 324.093517821 c 0
 140.487733408 326.556104922 137.844384491 329.884935462 134.073174812 333.656145141 c 0
 127.002605789 340.726714164 115.914406858 349.425041619 99.1442122922 356.956566125 c 0
 78.1878367874 366.36811201 48.2633757759 374.001960895 6 374.001960895 c 0
EndSplineSet
Substitution2: "Single Substitution lookup 30 subtable" one.ten_coll
Substitution2: "Single Substitution lookup 29 subtable" one.ten_coll
EndChar

StartChar: two.ten
Encoding: 65539 -1 3
Width: 320
Flags: HW
AnchorPoint: "Extension_mkmk" 10 384 mark 0
LayerCount: 2
Fore
SplineSet
0.197117855384 385.972524414 m 0
 0.570873346227 387.841301868 1.48147812381 389.623613748 2.92893218813 391.071067812 c 0
 6.83156057952 394.973696203 13.1684394205 394.973696203 17.0710678119 391.071067812 c 0
 19.5262421389 388.615893485 20.4368469165 385.197299446 19.8028821446 382.027475586 c 0
 18.3825723258 374.925926492 17.8469492555 368.416946973 18.0218993601 362.446733251 c 0
 18.2405842732 354.984058834 19.5620525492 348.349937784 21.7323632775 342.372616894 c 0
 24.8544437291 333.773997138 29.7673738162 326.463241594 35.9646529897 320.26596242 c 0
 42.9705121461 313.260103264 51.7241348089 307.629618857 61.2388499048 303.473389769 c 0
 73.1282062643 298.279867079 86.1521754863 295.420202521 98.0042914352 294.746253112 c 0
 107.482337725 294.207300935 116.16555083 295.091022387 122.710995715 296.973726961 c 0
 125.61358069 297.808614445 128.074764076 298.831470211 129.982179725 299.911041032 c 0
 131.508830974 300.775104479 132.66988551 301.670564882 133.465435171 302.466114543 c 0
 134.316928741 303.317608113 134.803324861 304.084652886 135.087071393 304.766634821 c 0
 135.285947887 305.244632473 135.400802505 305.700730132 135.448783435 306.247797687 c 0
 135.487240697 306.686278568 135.480756807 307.19415971 135.388796043 307.823055147 c 0
 135.256826724 308.725558554 134.940344315 309.8885006 134.293895701 311.318315042 c 0
 133.487148321 313.102678144 132.165509944 315.284083188 130.184279282 317.760621516 c 0
 127.044489113 321.685359227 127.292706749 327.434842372 130.928932188 331.071067812 c 0
 134.83156058 334.973696203 141.16843942 334.973696203 145.071067812 331.071067812 c 0
 145.337470764 330.80466486 145.585688399 330.526918882 145.815720718 330.239378484 c 0
 148.642650445 326.705716324 150.884952673 323.177941798 152.516528965 319.569222878 c 0
 153.820739288 316.684571702 154.734520979 313.735350562 155.173145584 310.735712452 c 0
 155.4774306 308.654787391 155.549064513 306.554131632 155.367848163 304.487944367 c 0
 155.141237079 301.90417674 154.516200601 299.391734144 153.549606772 297.068535605 c 0
 152.155076039 293.716795025 150.080713808 290.797121932 147.607570795 288.323978919 c 0
 145.288195554 286.004603679 142.663775545 284.102982347 139.831947676 282.500207022 c 0
 136.291264428 280.496229377 132.409029273 278.951541306 128.263393784 277.759107937 c 0
 118.950342624 275.080340593 108.206999947 274.137468982 96.8605466284 274.782664788 c 0
 82.6820380662 275.588900358 67.4910955467 278.913703666 53.21976057 285.14772507 c 0
 41.805922597 290.133531257 30.9456932503 297.000650912 21.8225173659 306.123826797 c 0
 13.7543028916 314.192041271 7.12780812538 323.987539953 2.93800780609 335.526800506 c 0
 0.0306235544756 343.534118719 -1.68685696765 352.346647807 -1.96553363502 361.856555033 c 0
 -2.18847279489 369.464406626 -1.49536931035 377.510088585 0.197117855384 385.972524414 c 0
EndSplineSet
Substitution2: "Single Substitution lookup 30 subtable" two.ten_coll
Substitution2: "Single Substitution lookup 29 subtable" two.ten_coll
EndChar

StartChar: three.ten
Encoding: 65540 -1 4
Width: 320
Flags: HW
AnchorPoint: "Extension_mkmk" 10 384 mark 0
LayerCount: 2
Fore
SplineSet
0.164127103941 385.799700904 m 0
 0.51531810579 387.731251415 1.43691980052 389.579055424 2.92893218813 391.071067812 c 0
 6.83156057952 394.973696203 13.1684394205 394.973696203 17.0710678119 391.071067812 c 0
 19.4816838156 388.660451808 20.4032855104 385.321068474 19.8358728961 382.200299096 c 0
 17.7124486574 370.521465783 11.66864356 360.190676732 3.57240603562 352.094439207 c 0
 -0.571239613591 347.950793558 -5.25952360001 344.383735536 -10.3434993258 341.529396655 c 1
 -5.55128824448 338.353460631 -1.44094208904 334.971507465 2.06881386746 331.461751508 c 0
 10.3773481573 323.153217218 15.1033962781 314.313463674 17.6320688726 306.486619929 c 0
 19.6544015413 300.227018811 20.2863211634 294.647038768 20.3802257076 290.421334282 c 0
 20.4859602598 285.663279433 19.9170496862 282.598313297 19.8028821461 282.027475594 c 0
 19.4291266562 280.158698137 18.5185218781 278.376386254 17.0710678119 276.928932188 c 0
 13.1684394205 273.026303797 6.83156057952 273.026303797 2.92893218813 276.928932188 c 0
 0.4934038803 279.364460409 -0.422174936852 282.748051584 0.182195630888 285.896383172 c 0
 0.217474784743 286.094772164 0.402052389789 287.234715403 0.396930607854 289.343182299 c 0
 0.392000563131 291.372717377 0.185803850777 294.143981455 -0.563310151894 297.334652207 c 0
 -1.16294522745 299.888653455 -2.10780056233 302.713061799 -3.58495860278 305.684356708 c 0
 -5.43121953237 309.398099957 -8.10907853305 313.355372661 -12.0733217563 317.319615885 c 0
 -18.0852199309 323.331514059 -27.2542545074 329.548248003 -41.3726394145 334.590528326 c 0
 -43.2468167428 335.259877372 -44.9395984941 336.493207958 -46.1713729953 338.242092247 c 0
 -49.3481438051 342.752499432 -48.2633258225 348.994974272 -43.7503636275 352.173544627 c 0
 -42.0004886478 353.406016891 -39.990496881 353.998039105 -38 353.998039105 c 0
 -33.7901506887 353.998039105 -29.4145142743 354.883281498 -25.151549391 356.577801076 c 0
 -19.8255868347 358.694859994 -14.7324135303 362.073890889 -10.5697295881 366.236574831 c 0
 -4.99698115101 371.809323268 -1.116882397 378.754148649 0.164127103941 385.799700904 c 0
EndSplineSet
Substitution2: "Single Substitution lookup 30 subtable" three.ten_coll
Substitution2: "Single Substitution lookup 29 subtable" three.ten_coll
EndChar

StartChar: four.ten
Encoding: 65541 -1 5
Width: 320
Flags: HW
AnchorPoint: "Extension_mkmk" 10 384 mark 0
LayerCount: 2
Fore
SplineSet
0.164127103941 385.799700904 m 0
 0.51531810579 387.731251415 1.43691980052 389.579055424 2.92893218813 391.071067812 c 0
 6.83156057952 394.973696203 13.1684394205 394.973696203 17.0710678119 391.071067812 c 0
 19.4816838156 388.660451808 20.4032855104 385.321068474 19.8358728961 382.200299096 c 0
 19.0636517307 377.953082686 19.1891450269 374.101233842 19.9625689826 370.716452291 c 0
 20.9291745716 366.486238393 22.9209923022 362.940862333 25.6145761822 360.247278453 c 0
 27.7123375195 358.149517116 30.3308565886 356.470044323 33.4523831684 355.377970479 c 0
 35.9511203608 354.503781052 38.7889707793 353.998039105 42 353.998039105 c 0
 44.0563853397 353.998039105 46.1310615762 353.366646825 47.9141301142 352.056572881 c 0
 52.3625376113 348.788194446 53.3222350021 342.525406698 50.0559054263 338.079787788 c 0
 48.7466527318 336.297837008 46.9558713111 335.076590121 44.9934597595 334.463336511 c 0
 20.3090440151 326.749456591 5.01442413802 316.1095999 -4.51222741752 306.582948344 c 0
 -10.6783393499 300.416836412 -14.5035808774 294.623699098 -16.841029625 290.195612961 c 0
 -19.3926346397 285.361825094 -20.1659695379 282.149901048 -20.2171913264 281.929649445 c 0
 -20.6028419567 280.096549076 -21.5067558893 278.351108487 -22.9289321881 276.928932188 c 0
 -26.8315605795 273.026303797 -33.1684394205 273.026303797 -37.0710678119 276.928932188 c 0
 -39.5262421407 279.384106517 -40.4368469178 282.802700559 -39.8028821432 285.97252442 c 0
 -39.5291130859 287.341369702 -36.0178307708 303.361616238 -18.6543630413 320.725083968 c 0
 -10.7708366882 328.608610321 -0.120279075019 336.655456572 14.1219232734 343.683647807 c 1
 13.2029618488 344.450711976 12.3190963689 345.258487019 11.4724405584 346.105142829 c 0
 5.99697929674 351.580604091 2.23460471205 358.520073124 0.471174233293 366.237479481 c 0
 -0.939430665261 372.410794133 -1.0625062249 379.053217596 0.164127103941 385.799700904 c 0
EndSplineSet
Substitution2: "Single Substitution lookup 30 subtable" four.ten_coll
Substitution2: "Single Substitution lookup 29 subtable" four.ten_coll
EndChar

StartChar: five.ten
Encoding: 65542 -1 6
Width: 320
Flags: HW
AnchorPoint: "Extension_mkmk" 6 384 mark 0
LayerCount: 2
Fore
SplineSet
-35.7700392556 374.001960895 m 1
 -28.5474473085 369.44116263 -22.5397281598 364.470210989 -17.5894758759 359.519958705 c 0
 -10.4370975991 352.367580428 -5.5297916937 345.314283291 -2.25353852496 339.615154373 c 0
 1.84269208457 332.48965304 3.39943075611 327.471378851 3.5752772486 326.885223878 c 0
 4.59871191173 323.473775009 3.76397543281 319.621839809 1.07106781187 316.928932188 c 0
 -2.83156057952 313.026303797 -9.16843942048 313.026303797 -13.0710678119 316.928932188 c 0
 -14.2666218312 318.124482225 -15.0959227016 319.548484768 -15.5589707699 321.060967494 c 0
 -15.654210928 321.355769211 -16.7841111313 324.754201791 -19.59850467 329.649913684 c 0
 -22.132278183 334.057479631 -26.0257340054 339.671945587 -31.7316114996 345.377823082 c 0
 -37.8457770282 351.49198861 -46.0840679169 357.775235876 -57.1747607878 362.909815908 c 0
 -71.0314681184 369.324958191 -89.4267366102 374.001960895 -114 374.001960895 c 0
 -119.518067753 374.001960895 -123.998039105 378.481932247 -123.998039105 384 c 0
 -123.998039105 389.518067753 -119.518067753 393.998039105 -114 393.998039105 c 2
 6 393.998039105 l 2
 8.55987680809 393.998039105 11.1197536162 393.022382008 13.0710678119 391.071067812 c 0
 16.9736962033 387.16843942 16.9736962033 380.83156058 13.0710678119 376.928932188 c 0
 11.1197536162 374.977617992 8.55987680809 374.001960895 6 374.001960895 c 2
 -35.7700392556 374.001960895 l 1
EndSplineSet
Substitution2: "Single Substitution lookup 30 subtable" five.ten_coll
Substitution2: "Single Substitution lookup 29 subtable" five.ten_coll
EndChar

StartChar: six.ten
Encoding: 65543 -1 7
Width: 320
Flags: HW
AnchorPoint: "Extension_mkmk" 6 384 mark 0
LayerCount: 2
Fore
SplineSet
126 393.998039105 m 2
 131.518067753 393.998039105 135.998039105 389.518067753 135.998039105 384 c 0
 135.998039105 378.481932247 131.518067753 374.001960895 126 374.001960895 c 0
 92.0946928271 374.001960895 65.6553270487 365.084054675 45.9335791659 354.365713435 c 0
 30.1586456479 345.792380001 18.7131886756 336.040440807 11.4967237885 328.82397592 c 0
 8.61121406285 325.938466194 6.39912597354 323.456694603 4.85658881892 321.623634756 c 0
 3.14264220885 319.586882058 2.25536661166 318.351141844 2.18616521426 318.254148441 c 1
 2.19853147609 318.27181989 l 1
 1.86819129387 317.799905344 1.49237007246 317.350234449 1.07106781187 316.928932188 c 0
 -2.83156057952 313.026303797 -9.16843942048 313.026303797 -13.0710678119 316.928932188 c 0
 -16.5523939427 320.410258319 -16.9282151641 325.828631989 -14.1985314761 329.72818011 c 0
 -13.9251478422 330.118728158 -10.1465824257 335.464940953 -2.64541183519 342.966111544 c 0
 5.68720005132 351.29872343 18.6019633576 362.278886601 36.3823214448 371.942124692 c 0
 37.6593580817 372.636166342 38.9616568171 373.323276867 40.2892179425 374.001960895 c 1
 6 374.001960895 l 2
 3.44012319191 374.001960895 0.880246383827 374.977617992 -1.07106781187 376.928932188 c 0
 -4.97369620325 380.83156058 -4.97369620325 387.16843942 -1.07106781187 391.071067812 c 0
 0.880246383827 393.022382008 3.44012319191 393.998039105 6 393.998039105 c 2
 126 393.998039105 l 2
EndSplineSet
Substitution2: "Single Substitution lookup 30 subtable" six.ten_coll
Substitution2: "Single Substitution lookup 29 subtable" six.ten_coll
EndChar

StartChar: seven.ten
Encoding: 65544 -1 8
Width: 320
Flags: HW
AnchorPoint: "Extension_mkmk" 8 384 mark 0
LayerCount: 2
Fore
SplineSet
9.24875525731 374.079678966 m 0
 6.29054085877 373.709902166 3.19821113617 374.65965324 0.928932188135 376.928932188 c 0
 -2.97369620325 380.83156058 -2.97369620325 387.16843942 0.928932188135 391.071067812 c 0
 2.56228163148 392.704417255 4.62202310367 393.654168329 6.75124474269 393.920321034 c 0
 14.8590917893 394.933801915 24.2609469247 395.998039105 34 395.998039105 c 0
 51.1529867569 395.998039105 66.751373456 393.45198413 79.7596445148 388.841875895 c 0
 85.5462404212 386.79111655 90.8329535969 384.326021661 95.5336163184 381.423223604 c 0
 99.2943284022 379.100872825 102.686765309 376.496449985 105.641459145 373.541756149 c 0
 109.053355543 370.12985975 111.854144385 366.271639823 113.748501009 361.929465958 c 0
 114.799666746 359.520022915 115.564148008 356.964663703 115.977242443 354.31786652 c 0
 116.493787736 351.008234367 116.449793967 347.576864985 115.835872896 344.200299096 c 0
 114.417759741 336.400676742 110.15353378 329.714006515 104.545470353 324.105943088 c 0
 100.970589332 320.531062067 96.81509742 317.355124303 92.187984228 314.492975194 c 0
 86.4049251625 310.915803712 79.8706305353 307.827633335 72.7585083667 305.230438433 c 0
 56.771971755 299.392497183 37.7928245948 296.001960895 18 296.001960895 c 0
 1.51551595995 296.001960895 -13.2378600282 298.268889753 -25.6627479403 302.504646996 c 0
 -35.5959155635 305.890954141 -44.1127218647 310.537431979 -50.7525061874 316.623900941 c 0
 -50.8603756096 316.722781245 -50.966593951 316.824458327 -51.0710678119 316.928932188 c 0
 -54.9736962033 320.83156058 -54.9736962033 327.16843942 -51.0710678119 331.071067812 c 0
 -47.2729132813 334.869222342 -41.1690942119 334.970899425 -37.2474938126 331.376099059 c 0
 -33.2206114686 327.684790243 -27.1201338192 324.133737218 -19.1877321694 321.429509382 c 0
 -9.28065849031 318.052097901 3.37337292894 315.998039105 18 315.998039105 c 0
 35.4744752049 315.998039105 52.3278637594 319.0639412 65.8782093862 324.012237607 c 0
 71.8935904347 326.208926109 77.2432131529 328.769908127 81.6737408133 331.510457206 c 0
 85.217497002 333.702484546 88.1638628745 336.008606857 90.4033347298 338.248078712 c 0
 93.9744539347 341.819197917 95.6805256809 345.139893078 96.1641271039 347.799700904 c 0
 96.3882281479 349.032256646 96.3921902955 350.122223762 96.2217997193 351.2139579 c 0
 96.0853454597 352.088253749 95.829947284 352.977206637 95.419152139 353.918816005 c 0
 94.6819791763 355.608536478 93.4188945531 357.480049493 91.4993235208 359.399620525 c 0
 89.8419781009 361.056965945 87.6737986597 362.766548802 85.0319680486 364.397957226 c 0
 81.7294524015 366.437358173 77.6974772913 368.351577142 73.0581772315 369.995736871 c 0
 62.6081823667 373.699196551 49.1430642608 376.001960895 34 376.001960895 c 0
 25.7390530753 376.001960895 17.1409082107 375.066198085 9.24875525731 374.079678966 c 0
EndSplineSet
Substitution2: "Single Substitution lookup 30 subtable" seven.ten_coll
Substitution2: "Single Substitution lookup 29 subtable" seven.ten_coll
EndChar

StartChar: eight.ten
Encoding: 65545 -1 9
Width: 320
Flags: HW
AnchorPoint: "Extension_mkmk" 8 384 mark 0
LayerCount: 2
Fore
SplineSet
9.24875525731 393.920321034 m 0
 11.3779768963 393.654168329 13.4377183685 392.704417255 15.0710678119 391.071067812 c 0
 18.9736962033 387.16843942 18.9736962033 380.83156058 15.0710678119 376.928932188 c 0
 12.8017888638 374.65965324 9.70945914123 373.709902166 6.75124474269 374.079678966 c 0
 -1.14090821068 375.066198085 -9.7390530753 376.001960895 -18 376.001960895 c 0
 -35.4744752049 376.001960895 -52.3278637594 372.9360588 -65.8782093862 367.987762393 c 0
 -71.8935904347 365.791073891 -77.2432131529 363.230091873 -81.6737408133 360.489542794 c 0
 -85.217497002 358.297515454 -88.1638628745 355.991393143 -90.4033347298 353.751921288 c 0
 -93.9744539347 350.180802083 -95.6805256809 346.860106922 -96.1641271039 344.200299096 c 0
 -96.3882281479 342.967743354 -96.3921902955 341.877776238 -96.2217997193 340.7860421 c 0
 -96.0853454597 339.911746251 -95.829947284 339.022793363 -95.419152139 338.081183995 c 0
 -94.6819791763 336.391463522 -93.4188945531 334.519950507 -91.4993235208 332.600379475 c 0
 -89.8419781009 330.943034055 -87.6737986597 329.233451198 -85.0319680486 327.602042774 c 0
 -81.7294524015 325.562641827 -77.6974772913 323.648422858 -73.0581772315 322.004263129 c 0
 -62.6081823667 318.300803449 -49.1430642608 315.998039105 -34 315.998039105 c 0
 -19.3758929815 315.998039105 -5.33239729253 318.047236691 6.61094773826 321.558124663 c 0
 16.1647525477 324.366578937 24.3398803058 328.120752926 30.3408017761 332.246386437 c 0
 34.235055181 334.923685653 39.6102228461 334.531912778 43.0710678119 331.071067812 c 0
 46.9736962033 327.16843942 46.9736962033 320.83156058 43.0710678119 316.928932188 c 0
 42.6292843862 316.487148762 42.156307059 316.095375888 41.6591982239 315.753613563 c 0
 33.437897472 310.101469296 23.4401857239 305.658112421 12.2751976664 302.376031715 c 0
 -1.67994838649 298.273750963 -17.5129959074 296.001960895 -34 296.001960895 c 0
 -51.1529867569 296.001960895 -66.751373456 298.54801587 -79.7596445148 303.158124105 c 0
 -85.5462404212 305.20888345 -90.8329535969 307.673978339 -95.5336163184 310.576776396 c 0
 -99.2943284022 312.899127175 -102.686765309 315.503550015 -105.641459145 318.458243851 c 0
 -109.053355543 321.87014025 -111.854144385 325.728360177 -113.748501009 330.070534042 c 0
 -114.799666746 332.479977085 -115.564148008 335.035336297 -115.977242443 337.68213348 c 0
 -116.493787736 340.991765633 -116.449793967 344.423135015 -115.835872896 347.799700904 c 0
 -114.417759741 355.599323258 -110.15353378 362.285993485 -104.545470353 367.894056912 c 0
 -100.970589332 371.468937933 -96.81509742 374.644875697 -92.187984228 377.507024806 c 0
 -86.4049251625 381.084196288 -79.8706305353 384.172366665 -72.7585083667 386.769561567 c 0
 -56.771971755 392.607502817 -37.7928245948 395.998039105 -18 395.998039105 c 0
 -8.2609469247 395.998039105 1.14090821068 394.933801915 9.24875525731 393.920321034 c 0
EndSplineSet
Substitution2: "Single Substitution lookup 30 subtable" eight.ten_coll
Substitution2: "Single Substitution lookup 29 subtable" eight.ten_coll
EndChar

StartChar: nine.ten
Encoding: 65546 -1 10
Width: 320
Flags: HW
AnchorPoint: "Extension_mkmk" 5 384 mark 0
LayerCount: 2
Fore
SplineSet
11.3946158915 376.311036454 m 0
 7.46757116615 373.038499183 1.61339994855 373.244464428 -2.07106781187 376.928932188 c 0
 -5.97369620325 380.83156058 -5.97369620325 387.16843942 -2.07106781187 391.071067812 c 0
 -1.8529071809 391.289228443 -1.62713972149 391.495193687 -1.39461589151 391.688963546 c 0
 5.9132039627 397.778813424 13.0795138318 402.031604244 20.1226822662 404.546535232 c 0
 26.3754510509 406.779235206 32.5835975548 407.630791321 38.4566567672 406.971863012 c 0
 42.527921576 406.515087159 46.3890029082 405.328373077 49.8448662824 403.499035564 c 0
 52.6089977723 402.035861568 55.1065108353 400.171596731 57.2923152287 397.985792337 c 0
 63.1456458913 392.132461675 66.4911023637 384.326543536 67.5429233116 375.880689113 c 0
 68.4804126422 368.35288847 67.6101683258 360.241797707 64.9136867064 352.098927745 c 0
 61.5411199548 341.914407183 55.2983230575 331.642665315 45.8948825228 322.23922478 c 0
 43.8716563146 320.215998572 41.7059650373 318.237160742 39.3946158915 316.311036454 c 0
 35.4675711661 313.038499183 29.6133999486 313.244464428 25.9289321881 316.928932188 c 0
 22.0263037967 320.83156058 22.0263037967 327.16843942 25.9289321881 331.071067812 c 0
 26.1470928191 331.289228443 26.3728602785 331.495193687 26.6053841085 331.688963546 c 0
 28.4597323422 333.234253741 30.1735338798 334.802147385 31.7527468991 336.381360404 c 0
 39.0975646704 343.726178175 43.6146405456 351.406792023 45.9331345102 358.408209991 c 0
 47.7895014638 364.014090853 48.2280660043 369.161243916 47.7011460959 373.392276629 c 0
 47.1055066501 378.175109732 45.2936485762 381.700187742 43.150179605 383.843656713 c 0
 42.3496186708 384.644217648 41.4647683698 385.301327045 40.4854520186 385.819721422 c 0
 39.2620055914 386.467344375 37.8795826267 386.914144099 36.2113391884 387.101312794 c 0
 33.8195065252 387.369664635 30.7342473624 387.096530089 26.8687125672 385.716248852 c 0
 22.5287894742 384.166575977 17.2679963944 381.205520207 11.3946158915 376.311036454 c 0
EndSplineSet
Substitution2: "Single Substitution lookup 30 subtable" nine.ten_coll
Substitution2: "Single Substitution lookup 29 subtable" nine.ten_coll
EndChar

StartChar: one.hund
Encoding: 65547 -1 11
Width: 320
Flags: HW
HStem: 135 84G<78 84> 186 37<70 91>
VStem: 78 37<165 186>
AnchorPoint: "Extension_mkmk" -6 384 mark 0
LayerCount: 2
Fore
SplineSet
-6 393.998039105 m 0
 -3.44012319191 393.998039105 -0.880246383827 393.022382008 1.07106781187 391.071067812 c 0
 4.97369620325 387.16843942 4.97369620325 380.83156058 1.07106781187 376.928932188 c 0
 -0.880246383827 374.977617992 -3.44012319191 374.001960895 -6 374.001960895 c 0
 -50.6931459632 374.001960895 -83.5706173189 382.121105079 -107.349698073 392.800332962 c 0
 -126.367868513 401.341427472 -139.50548988 411.491898679 -148.215310435 420.201719235 c 0
 -158.668029958 430.654438758 -162.664239763 438.91483117 -163.061553276 439.766217268 c 0
 -164.789621726 443.46922108 -164.126126571 448.016009053 -161.071067812 451.071067812 c 0
 -157.16843942 454.973696203 -150.83156058 454.973696203 -146.928932188 451.071067812 c 0
 -146.100548525 450.242684149 -145.448000074 449.304623903 -144.97128669 448.303447708 c 0
 -144.906214518 448.172315679 -144.0806935 446.531721273 -142.226781943 443.906482179 c 0
 -140.487733408 441.443895078 -137.844384491 438.115064538 -134.073174812 434.343854859 c 0
 -127.002605789 427.273285836 -115.914406858 418.574958381 -99.1442122922 411.043433875 c 0
 -78.1878367874 401.63188799 -48.2633757759 393.998039105 -6 393.998039105 c 0
EndSplineSet
EndChar

StartChar: three.hund
Encoding: 65548 -1 12
Width: 320
Flags: HW
AnchorPoint: "Extension_mkmk" -10 384 mark 0
LayerCount: 2
Fore
SplineSet
-0.164127103941 382.200299096 m 0
 -0.51531810579 380.268748585 -1.43691980052 378.420944576 -2.92893218813 376.928932188 c 0
 -6.83156057952 373.026303797 -13.1684394205 373.026303797 -17.0710678119 376.928932188 c 0
 -19.4816838156 379.339548192 -20.4032855104 382.678931526 -19.8358728961 385.799700904 c 0
 -17.7124486574 397.478534217 -11.66864356 407.809323268 -3.57240603562 415.905560793 c 0
 0.571239613591 420.049206442 5.25952360001 423.616264464 10.3434993258 426.470603345 c 1
 5.55128824448 429.646539369 1.44094208904 433.028492535 -2.06881386746 436.538248492 c 0
 -10.3773481573 444.846782782 -15.1033962781 453.686536326 -17.6320688726 461.513380071 c 0
 -19.6544015413 467.772981189 -20.2863211634 473.352961232 -20.3802257076 477.578665718 c 0
 -20.4859602598 482.336720567 -19.9170496862 485.401686703 -19.8028821461 485.972524406 c 0
 -19.4291266562 487.841301863 -18.5185218781 489.623613746 -17.0710678119 491.071067812 c 0
 -13.1684394205 494.973696203 -6.83156057952 494.973696203 -2.92893218813 491.071067812 c 0
 -0.4934038803 488.635539591 0.422174936852 485.251948416 -0.182195630888 482.103616828 c 0
 -0.217474784743 481.905227836 -0.402052389789 480.765284597 -0.396930607854 478.656817701 c 0
 -0.392000563131 476.627282623 -0.185803850777 473.856018545 0.563310151894 470.665347793 c 0
 1.16294522745 468.111346545 2.10780056233 465.286938201 3.58495860278 462.315643292 c 0
 5.43121953237 458.601900043 8.10907853305 454.644627339 12.0733217563 450.680384115 c 0
 18.0852199309 444.668485941 27.2542545074 438.451751997 41.3726394145 433.409471674 c 0
 43.2468167427 432.740122628 44.9395984939 431.506792042 46.1713729951 429.757907753 c 0
 49.3481438051 425.247500568 48.2633258227 419.005025728 43.7503636278 415.826455373 c 0
 42.0004886481 414.593983109 39.9904968811 414.001960895 38 414.001960895 c 0
 33.7901506887 414.001960895 29.4145142743 413.116718502 25.151549391 411.422198924 c 0
 19.8255868347 409.305140006 14.7324135303 405.926109111 10.5697295881 401.763425169 c 0
 4.99698115101 396.190676732 1.116882397 389.245851351 -0.164127103941 382.200299096 c 0
EndSplineSet
EndChar

StartChar: four.hund
Encoding: 65549 -1 13
Width: 320
Flags: HW
AnchorPoint: "Extension_mkmk" -10 384 mark 0
LayerCount: 2
Fore
SplineSet
-0.164127103941 382.200299096 m 0
 -0.51531810579 380.268748585 -1.43691980052 378.420944576 -2.92893218813 376.928932188 c 0
 -6.83156057952 373.026303797 -13.1684394205 373.026303797 -17.0710678119 376.928932188 c 0
 -19.4816838156 379.339548192 -20.4032855104 382.678931526 -19.8358728961 385.799700904 c 0
 -19.0636517307 390.046917314 -19.1891450269 393.898766158 -19.9625689826 397.283547709 c 0
 -20.9291745716 401.513761607 -22.9209923022 405.059137667 -25.6145761822 407.752721547 c 0
 -27.7123375195 409.850482884 -30.3308565886 411.529955677 -33.4523831684 412.622029521 c 0
 -35.9511203608 413.496218948 -38.7889707793 414.001960895 -42 414.001960895 c 0
 -44.0563853398 414.001960895 -46.1310615764 414.633353175 -47.9141301145 415.94342712 c 0
 -52.3625376116 419.211805555 -53.322235002 425.474593303 -50.055905426 429.920212212 c 0
 -48.7466527316 431.702162992 -46.955871311 432.923409879 -44.9934597595 433.536663489 c 0
 -20.3090440151 441.250543409 -5.01442413802 451.8904001 4.51222741752 461.417051656 c 0
 10.6783393499 467.583163588 14.5035808774 473.376300902 16.841029625 477.804387039 c 0
 19.3926346403 482.638174908 20.1659695383 485.850098954 20.2171913264 486.070350555 c 0
 20.6028419568 487.903450924 21.5067558893 489.648891513 22.9289321881 491.071067812 c 0
 26.8315605795 494.973696203 33.1684394205 494.973696203 37.0710678119 491.071067812 c 0
 39.5262421407 488.615893483 40.4368469178 485.197299441 39.8028821432 482.02747558 c 0
 39.5291130859 480.658630298 36.0178307708 464.638383762 18.6543630413 447.274916032 c 0
 10.7708366882 439.391389679 0.120279075019 431.344543428 -14.1219232734 424.316352193 c 1
 -13.2029618488 423.549288024 -12.3190963689 422.741512981 -11.4724405584 421.894857171 c 0
 -5.99697929674 416.419395909 -2.23460471205 409.479926876 -0.471174233293 401.762520519 c 0
 0.939430665261 395.589205867 1.0625062249 388.946782404 -0.164127103941 382.200299096 c 0
EndSplineSet
EndChar

StartChar: five.hund
Encoding: 65550 -1 14
Width: 320
Flags: HW
AnchorPoint: "Extension_mkmk" -6 384 mark 0
LayerCount: 2
Fore
SplineSet
35.7700392556 393.998039105 m 1
 28.5474473085 398.55883737 22.5397281598 403.529789011 17.5894758759 408.480041295 c 0
 10.4370975991 415.632419572 5.5297916937 422.685716709 2.25353852497 428.384845627 c 0
 -1.84269208457 435.51034696 -3.39943075611 440.528621149 -3.5752772486 441.114776122 c 0
 -4.59871191173 444.526224991 -3.76397543281 448.378160191 -1.07106781187 451.071067812 c 0
 2.83156057952 454.973696203 9.16843942048 454.973696203 13.0710678119 451.071067812 c 0
 14.2666218312 449.875517775 15.0959227016 448.451515232 15.5589707699 446.939032506 c 0
 15.654210928 446.644230789 16.7841111313 443.245798209 19.59850467 438.350086316 c 0
 22.132278183 433.942520369 26.0257340054 428.328054413 31.7316114996 422.622176918 c 0
 37.8457770282 416.50801139 46.0840679169 410.224764124 57.1747607878 405.090184092 c 0
 71.0314681184 398.675041809 89.4267366102 393.998039105 114 393.998039105 c 0
 119.518067753 393.998039105 123.998039105 389.518067753 123.998039105 384 c 0
 123.998039105 378.481932247 119.518067753 374.001960895 114 374.001960895 c 2
 -6 374.001960895 l 2
 -8.55987680809 374.001960895 -11.1197536162 374.977617992 -13.0710678119 376.928932188 c 0
 -16.9736962033 380.83156058 -16.9736962033 387.16843942 -13.0710678119 391.071067812 c 0
 -11.1197536162 393.022382008 -8.55987680809 393.998039105 -6 393.998039105 c 2
 35.7700392556 393.998039105 l 1
EndSplineSet
EndChar

StartChar: six.hund
Encoding: 65551 -1 15
Width: 320
Flags: HW
AnchorPoint: "Extension_mkmk" -6 384 mark 0
LayerCount: 2
Fore
SplineSet
-126 374.001960895 m 2
 -131.518067753 374.001960895 -135.998039105 378.481932247 -135.998039105 384 c 0
 -135.998039105 389.518067753 -131.518067753 393.998039105 -126 393.998039105 c 0
 -92.0946928271 393.998039105 -65.6553270487 402.915945325 -45.9335791659 413.634286565 c 0
 -30.1586456479 422.207619999 -18.7131886756 431.959559193 -11.4967237885 439.17602408 c 0
 -8.61121406285 442.061533806 -6.39912597354 444.543305397 -4.85658881892 446.376365244 c 0
 -3.14264220885 448.413117942 -2.25536661166 449.648858156 -2.18616521426 449.745851559 c 1
 -2.19853147609 449.72818011 l 1
 -1.86819129387 450.200094656 -1.49237007246 450.649765551 -1.07106781187 451.071067812 c 0
 2.83156057952 454.973696203 9.16843942048 454.973696203 13.0710678119 451.071067812 c 0
 16.5523939427 447.589741681 16.9282151641 442.171368011 14.1985314761 438.27181989 c 0
 13.9251478422 437.881271842 10.1465824257 432.535059047 2.64541183519 425.033888456 c 0
 -5.68720005132 416.70127657 -18.6019633576 405.721113399 -36.3823214448 396.057875308 c 0
 -37.6593580817 395.363833658 -38.9616568171 394.676723133 -40.2892179425 393.998039105 c 1
 -6 393.998039105 l 2
 -3.44012319191 393.998039105 -0.880246383827 393.022382008 1.07106781187 391.071067812 c 0
 4.97369620325 387.16843942 4.97369620325 380.83156058 1.07106781187 376.928932188 c 0
 -0.880246383827 374.977617992 -3.44012319191 374.001960895 -6 374.001960895 c 2
 -126 374.001960895 l 2
EndSplineSet
EndChar

StartChar: seven.hund
Encoding: 65552 -1 16
Width: 320
Flags: HW
AnchorPoint: "Extension_mkmk" -8 384 mark 0
LayerCount: 2
Fore
SplineSet
-9.24875525731 393.920321034 m 0
 -6.29054085877 394.290097834 -3.19821113617 393.34034676 -0.928932188135 391.071067812 c 0
 2.97369620325 387.16843942 2.97369620325 380.83156058 -0.928932188135 376.928932188 c 0
 -2.56228163148 375.295582745 -4.62202310367 374.345831671 -6.75124474269 374.079678966 c 0
 -14.8590917893 373.066198085 -24.2609469247 372.001960895 -34 372.001960895 c 0
 -51.1529867569 372.001960895 -66.751373456 374.54801587 -79.7596445148 379.158124105 c 0
 -85.5462404212 381.20888345 -90.8329535969 383.673978339 -95.5336163184 386.576776396 c 0
 -99.2943284022 388.899127175 -102.686765309 391.503550015 -105.641459145 394.458243851 c 0
 -109.053355543 397.87014025 -111.854144385 401.728360177 -113.748501009 406.070534042 c 0
 -114.799666746 408.479977085 -115.564148008 411.035336297 -115.977242443 413.68213348 c 0
 -116.493787736 416.991765633 -116.449793967 420.423135015 -115.835872896 423.799700904 c 0
 -114.417759741 431.599323258 -110.15353378 438.285993485 -104.545470353 443.894056912 c 0
 -100.970589332 447.468937933 -96.81509742 450.644875697 -92.187984228 453.507024806 c 0
 -86.4049251625 457.084196288 -79.8706305353 460.172366665 -72.7585083667 462.769561567 c 0
 -56.771971755 468.607502817 -37.7928245948 471.998039105 -18 471.998039105 c 0
 -1.51551595995 471.998039105 13.2378600282 469.731110247 25.6627479403 465.495353004 c 0
 35.5959155635 462.109045859 44.1127218647 457.462568021 50.7525061874 451.376099059 c 0
 50.8603756096 451.277218755 50.966593951 451.175541673 51.0710678119 451.071067812 c 0
 54.9736962033 447.16843942 54.9736962033 440.83156058 51.0710678119 436.928932188 c 0
 47.2729132813 433.130777658 41.1690942119 433.029100575 37.2474938126 436.623900941 c 0
 33.2206114686 440.315209757 27.1201338192 443.866262782 19.1877321694 446.570490618 c 0
 9.28065849031 449.947902099 -3.37337292894 452.001960895 -18 452.001960895 c 0
 -35.4744752049 452.001960895 -52.3278637594 448.9360588 -65.8782093862 443.987762393 c 0
 -71.8935904347 441.791073891 -77.2432131529 439.230091873 -81.6737408133 436.489542794 c 0
 -85.217497002 434.297515454 -88.1638628745 431.991393143 -90.4033347298 429.751921288 c 0
 -93.9744539347 426.180802083 -95.6805256809 422.860106922 -96.1641271039 420.200299096 c 0
 -96.3882281479 418.967743354 -96.3921902955 417.877776238 -96.2217997193 416.7860421 c 0
 -96.0853454597 415.911746251 -95.829947284 415.022793363 -95.419152139 414.081183995 c 0
 -94.6819791763 412.391463522 -93.4188945531 410.519950507 -91.4993235208 408.600379475 c 0
 -89.8419781009 406.943034055 -87.6737986597 405.233451198 -85.0319680486 403.602042774 c 0
 -81.7294524015 401.562641827 -77.6974772913 399.648422858 -73.0581772315 398.004263129 c 0
 -62.6081823667 394.300803449 -49.1430642608 391.998039105 -34 391.998039105 c 0
 -25.7390530753 391.998039105 -17.1409082107 392.933801915 -9.24875525731 393.920321034 c 0
EndSplineSet
EndChar

StartChar: eight.hund
Encoding: 65553 -1 17
Width: 320
Flags: HW
AnchorPoint: "Extension_mkmk" -8 384 mark 0
LayerCount: 2
Fore
SplineSet
-9.24875525731 374.079678966 m 0
 -11.3779768963 374.345831671 -13.4377183685 375.295582745 -15.0710678119 376.928932188 c 0
 -18.9736962033 380.83156058 -18.9736962033 387.16843942 -15.0710678119 391.071067812 c 0
 -12.8017888638 393.34034676 -9.70945914123 394.290097834 -6.75124474269 393.920321034 c 0
 1.14090821068 392.933801915 9.7390530753 391.998039105 18 391.998039105 c 0
 35.4744752049 391.998039105 52.3278637594 395.0639412 65.8782093862 400.012237607 c 0
 71.8935904347 402.208926109 77.2432131529 404.769908127 81.6737408133 407.510457206 c 0
 85.217497002 409.702484546 88.1638628745 412.008606857 90.4033347298 414.248078712 c 0
 93.9744539347 417.819197917 95.6805256809 421.139893078 96.1641271039 423.799700904 c 0
 96.3882281479 425.032256646 96.3921902955 426.122223762 96.2217997193 427.2139579 c 0
 96.0853454597 428.088253749 95.829947284 428.977206637 95.419152139 429.918816005 c 0
 94.6819791763 431.608536478 93.4188945531 433.480049493 91.4993235208 435.399620525 c 0
 89.8419781009 437.056965945 87.6737986597 438.766548802 85.0319680486 440.397957226 c 0
 81.7294524015 442.437358173 77.6974772913 444.351577142 73.0581772315 445.995736871 c 0
 62.6081823667 449.699196551 49.1430642608 452.001960895 34 452.001960895 c 0
 19.3758929815 452.001960895 5.33239729253 449.952763309 -6.61094773826 446.441875337 c 0
 -16.1647525477 443.633421063 -24.3398803058 439.879247074 -30.3408017761 435.753613563 c 0
 -34.235055181 433.076314347 -39.6102228461 433.468087222 -43.0710678119 436.928932188 c 0
 -46.9736962033 440.83156058 -46.9736962033 447.16843942 -43.0710678119 451.071067812 c 0
 -42.6292843862 451.512851238 -42.156307059 451.904624112 -41.6591982239 452.246386437 c 0
 -33.437897472 457.898530704 -23.4401857239 462.341887579 -12.2751976664 465.623968285 c 0
 1.67994838649 469.726249037 17.5129959074 471.998039105 34 471.998039105 c 0
 51.1529867569 471.998039105 66.751373456 469.45198413 79.7596445148 464.841875895 c 0
 85.5462404212 462.79111655 90.8329535969 460.326021661 95.5336163184 457.423223604 c 0
 99.2943284022 455.100872825 102.686765309 452.496449985 105.641459145 449.541756149 c 0
 109.053355543 446.12985975 111.854144385 442.271639823 113.748501009 437.929465958 c 0
 114.799666746 435.520022915 115.564148008 432.964663703 115.977242443 430.31786652 c 0
 116.493787736 427.008234367 116.449793967 423.576864985 115.835872896 420.200299096 c 0
 114.417759741 412.400676742 110.15353378 405.714006515 104.545470353 400.105943088 c 0
 100.970589332 396.531062067 96.81509742 393.355124303 92.187984228 390.492975194 c 0
 86.4049251625 386.915803712 79.8706305353 383.827633335 72.7585083667 381.230438433 c 0
 56.771971755 375.392497183 37.7928245948 372.001960895 18 372.001960895 c 0
 8.2609469247 372.001960895 -1.14090821068 373.066198085 -9.24875525731 374.079678966 c 0
EndSplineSet
EndChar

StartChar: nine.hund
Encoding: 65554 -1 18
Width: 320
Flags: HW
AnchorPoint: "Extension_mkmk" -5 384 mark 0
LayerCount: 2
Fore
SplineSet
-11.3946158915 391.688963546 m 0
 -7.46757116615 394.961500817 -1.61339994855 394.755535572 2.07106781187 391.071067812 c 0
 5.97369620325 387.16843942 5.97369620325 380.83156058 2.07106781187 376.928932188 c 0
 1.8529071809 376.710771557 1.62713972149 376.504806313 1.39461589151 376.311036454 c 0
 -5.9132039627 370.221186576 -13.0795138318 365.968395756 -20.1226822662 363.453464768 c 0
 -26.3754510509 361.220764794 -32.5835975548 360.369208679 -38.4566567672 361.028136988 c 0
 -42.527921576 361.484912841 -46.3890029082 362.671626923 -49.8448662824 364.500964436 c 0
 -52.6089977723 365.964138432 -55.1065108353 367.828403269 -57.2923152287 370.014207663 c 0
 -63.1456458913 375.867538325 -66.4911023637 383.673456464 -67.5429233116 392.119310887 c 0
 -68.4804126422 399.64711153 -67.6101683258 407.758202293 -64.9136867064 415.901072255 c 0
 -61.5411199548 426.085592817 -55.2983230575 436.357334685 -45.8948825228 445.76077522 c 0
 -43.8716563146 447.784001428 -41.7059650373 449.762839258 -39.3946158915 451.688963546 c 0
 -35.4675711661 454.961500817 -29.6133999486 454.755535572 -25.9289321881 451.071067812 c 0
 -22.0263037967 447.16843942 -22.0263037967 440.83156058 -25.9289321881 436.928932188 c 0
 -26.1470928191 436.710771557 -26.3728602785 436.504806313 -26.6053841085 436.311036454 c 0
 -28.4597323422 434.765746259 -30.1735338798 433.197852615 -31.7527468991 431.618639596 c 0
 -39.0975646704 424.273821825 -43.6146405456 416.593207977 -45.9331345102 409.591790009 c 0
 -47.7895014638 403.985909147 -48.2280660043 398.838756084 -47.7011460959 394.607723371 c 0
 -47.1055066501 389.824890268 -45.2936485762 386.299812258 -43.150179605 384.156343287 c 0
 -42.3496186708 383.355782352 -41.4647683698 382.698672955 -40.4854520186 382.180278578 c 0
 -39.2620055914 381.532655625 -37.8795826267 381.085855901 -36.2113391884 380.898687206 c 0
 -33.8195065252 380.630335365 -30.7342473624 380.903469911 -26.8687125672 382.283751148 c 0
 -22.5287894742 383.833424023 -17.2679963944 386.794479793 -11.3946158915 391.688963546 c 0
EndSplineSet
EndChar

StartChar: b
Encoding: 98 98 19
Width: 320
Flags: HW
AnchorPoint: "Diacritic_down" 120 -60 basechar 0
AnchorPoint: "Diacritic_up" 204 360 basechar 0
AnchorPoint: "Extension_up" 288 280 basechar 0
AnchorPoint: "Extension_down" 132 0 basechar 0
AnchorPoint: "Diacritic_left" 60 140 basechar 0
AnchorPoint: "Diacritic_right" 260 140 basechar 0
LayerCount: 2
Fore
SplineSet
187.753298892 164.299347005 m 1
 177.596464921 176.995389468 l 1
 174.347413432 160.750132021 l 1
 178.610607806 161.554552481 183.079063877 162.723842528 187.753298892 164.299347005 c 1
288 289.998039105 m 2
 290.559876808 289.998039105 293.119753616 289.022382008 295.071067812 287.071067812 c 0
 298.973696203 283.16843942 298.973696203 276.83156058 295.071067812 272.928932188 c 0
 293.119753616 270.977617992 290.559876808 270.001960895 288 270.001960895 c 2
 96.4115363653 270.001960895 l 1
 93.4715358047 249.988958183 94.5285780811 230.357668988 99.1308776513 213.445340733 c 0
 103.307007483 198.099082308 110.374978232 185.10649137 119.618858874 175.862610728 c 0
 123.926084408 171.555385194 128.735052805 168.012242585 134.044376101 165.323558401 c 0
 139.927873174 162.344107981 146.444108331 160.388802432 153.736603316 159.667792497 c 1
 162.197693428 201.972663805 l 2
 162.42026177 203.085505514 162.837710906 204.178588939 163.461899789 205.20322324 c 0
 166.331295267 209.913465774 172.489976796 211.404968565 177.20634901 208.531838996 c 0
 178.23231672 207.906837824 179.106060274 207.126454039 179.815720718 206.239378484 c 2
 211.819002461 166.253090046 l 2
 212.076190407 165.931605113 212.316311875 165.590694435 212.537243444 165.230865483 c 0
 215.423184034 160.53056402 213.948877872 154.370714418 209.247005738 151.48380945 c 0
 208.887056545 151.262804054 208.518559869 151.067345833 208.143639131 150.896927316 c 0
 194.798464783 144.830938976 182.111396368 141.227617602 170.181849686 139.922313292 c 1
 141.802882145 -1.97252441356 l 2
 141.429126654 -3.84130186778 140.518521876 -5.62361374754 139.071067812 -7.07106781187 c 0
 135.16843942 -10.9736962033 128.83156058 -10.9736962033 124.928932188 -7.07106781187 c 0
 122.473757861 -4.6158934848 121.563153083 -1.19729944591 122.197117855 1.97252441356 c 2
 149.80083886 139.989239664 l 1
 140.853800766 141.10037064 132.532323976 143.666641231 125.003485211 147.479305968 c 0
 117.723809872 151.165792334 111.20010219 155.997096165 105.476723251 161.720475104 c 0
 93.2025473735 173.994650982 84.7446677286 190.141848184 79.8388114633 208.169673244 c 0
 73.6992090028 230.731214617 73.0863624463 256.370823615 78.2085792742 281.981907755 c 0
 79.1382281975 286.630152371 83.2519826425 289.998039105 88 289.998039105 c 2
 288 289.998039105 l 2
EndSplineSet
Substitution2: "Single Substitution lookup 19 subtable" b.ext.up
Substitution2: "Single Substitution lookup 18 subtable" b.ext.down
EndChar

StartChar: c
Encoding: 99 99 20
Width: 320
Flags: HW
AnchorPoint: "Diacritic_right" 200 140 basechar 0
AnchorPoint: "Diacritic_left" 0 140 basechar 0
AnchorPoint: "Diacritic_down" 120 -60 basechar 0
AnchorPoint: "Diacritic_up" 204 360 basechar 0
AnchorPoint: "Extension_up" 88 280 basechar 0
AnchorPoint: "Extension_down" 232 0 basechar 0
LayerCount: 2
Fore
SplineSet
78.1971178554 281.972524414 m 2
 78.5708733462 283.841301868 79.4814781238 285.623613748 80.9289321881 287.071067812 c 0
 84.8315605795 290.973696203 91.1684394205 290.973696203 95.0710678119 287.071067812 c 0
 97.5262421389 284.615893485 98.4368469165 281.197299446 97.8028821446 278.027475586 c 2
 44.1969948484 9.9980391054 l 1
 232 9.9980391054 l 2
 234.559876808 9.9980391054 237.119753616 9.02238200756 239.071067812 7.07106781187 c 0
 242.973696203 3.16843942048 242.973696203 -3.16843942048 239.071067812 -7.07106781187 c 0
 237.119753616 -9.02238200756 234.559876808 -9.9980391054 232 -9.9980391054 c 2
 32.0087505682 -10.00872466 l 2
 31.6797087057 -10.00872466 31.3476286504 -9.99250866685 31.0133594935 -9.95938008497 c 0
 25.5216339504 -9.41510887267 21.5053211792 -4.51068113081 22.050076252 0.985926590902 c 0
 22.0832342854 1.32049291525 22.1325311836 1.64959105463 22.1971178554 1.97252441356 c 2
 78.1971178554 281.972524414 l 2
EndSplineSet
Substitution2: "Single Substitution lookup 19 subtable" c.ext.up
Substitution2: "Single Substitution lookup 18 subtable" c.ext.down
EndChar

StartChar: d
Encoding: 100 100 21
Width: 320
Flags: HW
AnchorPoint: "Diacritic_left" 0 140 basechar 0
AnchorPoint: "Diacritic_right" 200 140 basechar 0
AnchorPoint: "Diacritic_down" 120 -60 basechar 0
AnchorPoint: "Diacritic_up" 204 360 basechar 0
AnchorPoint: "Extension_up" 288 280 basechar 0
AnchorPoint: "Extension_down" 72 0 basechar 0
LayerCount: 2
Fore
SplineSet
288 289.998039105 m 2
 290.559876808 289.998039105 293.119753616 289.022382008 295.071067812 287.071067812 c 0
 298.973696203 283.16843942 298.973696203 276.83156058 295.071067812 272.928932188 c 0
 293.119753616 270.977617992 290.559876808 270.001960895 288 270.001960895 c 2
 96.1977792062 270.001960895 l 1
 75.3611388621 165.818759174 l 1
 101.605384108 187.688963546 l 2
 102.715517492 188.614074699 104.044088715 189.311318519 105.536929539 189.689625854 c 0
 110.883809507 191.044602136 116.326229501 187.798306002 117.682883977 182.444803703 c 0
 118.061659861 180.950113934 118.082152784 179.448179971 117.798530983 178.030070968 c 2
 81.8028821446 -1.97252441356 l 2
 81.4291266538 -3.84130186778 80.5185218762 -5.62361374754 79.0710678119 -7.07106781187 c 0
 75.1684394205 -10.9736962033 68.8315605795 -10.9736962033 64.9289321881 -7.07106781187 c 0
 62.4737578611 -4.6158934848 61.5631530835 -1.19729944591 62.1971178554 1.97252441356 c 2
 92.6395378063 154.184624168 l 1
 66.3902647301 132.313631836 l 2
 65.2801313467 131.388520683 63.9515601242 130.691276863 62.4587192999 130.312969528 c 0
 57.111839332 128.957993246 51.6694193376 132.204289379 50.3127648618 137.557791678 c 0
 49.9339889779 139.052481448 49.9134960548 140.554415411 50.1971178554 141.972524414 c 2
 78.2085792742 281.981907755 l 2
 79.1382281975 286.630152371 83.2519826425 289.998039105 88 289.998039105 c 2
 288 289.998039105 l 2
EndSplineSet
Substitution2: "Single Substitution lookup 19 subtable" d.ext.up
Substitution2: "Single Substitution lookup 18 subtable" d.ext.down
EndChar

StartChar: f
Encoding: 102 102 22
Width: 320
Flags: HW
AnchorPoint: "Diacritic_left" 60 140 basechar 0
AnchorPoint: "Diacritic_right" 260 140 basechar 0
AnchorPoint: "Diacritic_down" 120 -60 basechar 0
AnchorPoint: "Diacritic_up" 204 360 basechar 0
AnchorPoint: "Extension_down" 152 0 basechar 0
AnchorPoint: "Extension_up" 288 280 basechar 0
LayerCount: 2
Fore
SplineSet
288 289.998039105 m 0
 290.559876808 289.998039105 293.119753616 289.022382008 295.071067812 287.071067812 c 0
 298.973696203 283.16843942 298.973696203 276.83156058 295.071067812 272.928932188 c 0
 293.119753616 270.977617992 290.559876808 270.001960895 288 270.001960895 c 0
 250.833924401 270.001960895 220.054348774 268.913766146 194.719686213 266.766079768 c 0
 174.453363374 265.048049959 157.675266482 262.649068081 143.938507075 259.634572817 c 0
 130.19831035 256.619323243 119.526622118 252.984728571 111.417308772 248.935054568 c 0
 104.926092256 245.69343476 100.088268104 242.2060238 96.4643915853 238.582147282 c 0
 93.8395235151 235.957279212 91.7953292358 233.216465854 90.1637468952 230.276772157 c 0
 88.1258796562 226.60505708 86.7146386876 222.586258301 85.8028821446 218.027475586 c 0
 84.2333343344 210.179736536 84.2808536396 203.903654593 85.2925940788 198.844952397 c 0
 85.9964727335 195.325559123 87.1654551109 192.349048631 88.7154919555 189.708875984 c 0
 89.9558526232 187.596173748 91.4506826993 185.691452924 93.1960678119 183.946067812 c 0
 97.3846678922 179.757467732 103.238939605 176.351821652 110.216229666 173.828861405 c 0
 118.921343003 170.681127156 129.209383832 168.962580845 139.241858526 168.235589925 c 0
 149.271119785 167.508831863 159.013104408 167.748314715 166.684092936 168.249984594 c 0
 176.452372147 168.888813794 182.397571466 169.869712078 182.397571466 169.869712078 c 2
 182.979324791 169.963543259 183.577445405 170.007016019 184.187208219 169.995578912 c 0
 189.708947291 169.892009591 194.10780777 165.324633253 194.004230614 159.802476401 c 0
 193.992792641 159.192667455 193.926924163 158.596552525 193.811350269 158.018683057 c 2
 161.802882145 -1.97252441356 l 2
 161.429126654 -3.84130186778 160.518521876 -5.62361374754 159.071067812 -7.07106781187 c 0
 155.16843942 -10.9736962033 148.83156058 -10.9736962033 144.928932188 -7.07106781187 c 0
 142.473757861 -4.6158934848 141.563153083 -1.19729944591 142.197117855 1.97252441356 c 2
 171.512949533 148.551682803 l 1
 170.392924462 148.462450121 169.219824554 148.376700229 167.998767908 148.296845157 c 0
 159.647046483 147.750656479 149.052954289 147.475736038 137.785919252 148.292187853 c 0
 126.52209765 149.10840681 114.553622703 150.990683544 103.395148173 155.025543411 c 0
 94.4815679394 158.248658458 85.9764432189 162.881421157 79.0539321881 169.803932188 c 0
 76.169687671 172.688176705 73.5988265416 175.946540777 71.4616250716 179.586828996 c 0
 68.7897092442 184.137894416 66.8119406181 189.274349427 65.6868297895 194.89990357 c 0
 64.0648253728 203.009925654 64.21111011 212.042485687 66.1971178554 221.972524414 c 0
 67.4489000964 228.231435619 69.5177010566 234.298940124 72.6719768929 239.982137696 c 0
 75.1941090125 244.526374117 78.3993739272 248.801400871 82.3222559616 252.724282906 c 0
 87.7444462497 258.146473194 94.430723731 262.811690344 102.475749279 266.829259949 c 0
 112.536738512 271.853572712 124.741822281 275.896966841 139.628041984 279.163708105 c 0
 154.517699006 282.431203679 172.11566297 284.918214675 193.018220421 286.690179776 c 0
 219.144658222 288.904987036 250.439963323 289.998039105 288 289.998039105 c 0
EndSplineSet
Substitution2: "Single Substitution lookup 19 subtable" f.ext.up
Substitution2: "Single Substitution lookup 18 subtable" f.ext.down
EndChar

StartChar: g
Encoding: 103 103 23
Width: 320
Flags: HW
HStem: -244 84G<351 446> -4 40<223 431>
AnchorPoint: "Diacritic_right" 260 140 basechar 0
AnchorPoint: "Diacritic_left" 60 140 basechar 0
AnchorPoint: "Diacritic_down" 120 -60 basechar 0
AnchorPoint: "Diacritic_up" 204 360 basechar 0
AnchorPoint: "Extension_down" 212 0 basechar 0
AnchorPoint: "Extension_up" 308 280 basechar 0
LayerCount: 2
Fore
SplineSet
308 289.998039105 m 2
 310.559876808 289.998039105 313.119753616 289.022382008 315.071067812 287.071067812 c 0
 318.973696203 283.16843942 318.973696203 276.83156058 315.071067812 272.928932188 c 0
 313.119753616 270.977617992 310.559876808 270.001960895 308 270.001960895 c 2
 76.3144059521 270.001960895 l 1
 72.2746414731 246.311567198 72.2842447379 227.45389555 74.7265376724 212.528772062 c 0
 76.6106451523 201.014781907 79.928504208 191.815866661 84.0138285778 184.367232743 c 0
 87.2829760374 178.406706614 91.0546844388 173.550589181 95.0605064574 169.544767163 c 0
 103.637911949 160.967361671 113.548255782 156.094225614 122.005531502 153.368584267 c 0
 126.073467803 152.057555073 129.782825663 151.250000455 132.767614781 150.758089628 c 0
 135.13769706 156.537522937 138.673543444 161.68450361 142.981487965 165.992448131 c 0
 147.7735431 170.784503266 153.501923382 174.532384903 159.833218385 176.961192817 c 0
 164.896962705 178.903743633 170.368359029 179.998039105 176 179.998039105 c 0
 184.247726247 179.998039105 191.795392373 178.438363925 198.413399179 175.4237306 c 0
 203.702571487 173.014407737 208.341224779 169.706546656 212.296852248 165.750919187 c 0
 216.477783405 161.56998803 219.840629966 156.747043653 222.567284958 151.528636209 c 0
 225.977036803 145.002884156 228.408454554 137.843098737 230.155555582 130.322672675 c 0
 231.903204352 122.799888848 232.964797155 114.898925266 233.536838106 106.842246651 c 0
 234.251833402 96.772185584 234.199313052 86.452347209 233.676062429 76.3471184214 c 0
 232.734449666 58.1623099164 230.265119191 40.6592714665 227.817314333 26.7620872767 c 0
 224.758312327 9.39488817937 221.726132271 -2.33144017697 221.677909017 -2.51775729602 c 0
 221.24600002 -4.18649660486 220.377052951 -5.76508267237 219.071067812 -7.07106781187 c 0
 215.16843942 -10.9736962033 208.83156058 -10.9736962033 204.928932188 -7.07106781187 c 0
 202.332288936 -4.47442455998 201.463341868 -0.800137015645 202.322090983 2.51775729602 c 2
 202.322090983 2.51775729602 211.705948314 38.7450234808 213.706937281 77.3889359697 c 0
 214.196874443 86.8508016445 214.232306176 96.3880995399 213.591341001 105.415513407 c 0
 213.078613576 112.63681474 212.131333968 119.52764785 210.680443749 125.773029451 c 0
 209.229005788 132.020768817 207.272217971 137.605517561 204.838535123 142.263220397 c 0
 202.89044236 145.991576864 200.647194525 149.116305662 198.154716624 151.608783564 c 0
 195.79555281 153.967947378 193.163729347 155.833887253 190.111534634 157.224222465 c 0
 186.302832662 158.959161734 181.750523972 160.001960895 176 160.001960895 c 0
 172.986908534 160.001960895 169.9428655 159.415446357 167.014947325 158.292239994 c 0
 163.35666421 156.888851433 159.913867724 154.640556642 157.123623589 151.850312507 c 0
 153.355905574 148.082594492 150.728840271 143.312430314 149.834115349 138.24232242 c 0
 148.995233859 133.488660646 144.834177637 130.001960891 139.999999993 130.001960895 c 0
 139.301180181 130.001960895 129.205459762 130.033563297 115.848024684 134.338445688 c 0
 105.174250045 137.778428307 92.3175869872 144.003415385 80.9183708337 155.402631539 c 0
 75.6017694179 160.719232955 70.6587382828 167.119078632 66.4739368387 174.749085739 c 0
 61.2418250788 184.288618366 57.2122333686 195.725635487 54.9944745374 209.278606122 c 0
 51.7977009207 228.814444891 52.3411734787 252.644878777 58.2085792742 281.981907755 c 0
 59.1382281975 286.630152371 63.2519826425 289.998039105 68 289.998039105 c 2
 308 289.998039105 l 2
EndSplineSet
Substitution2: "Single Substitution lookup 19 subtable" g.ext.up
Substitution2: "Single Substitution lookup 18 subtable" g.ext.down
EndChar

StartChar: h
Encoding: 104 104 24
Width: 320
Flags: HW
AnchorPoint: "Diacritic_right" 290 140 basechar 0
AnchorPoint: "Diacritic_left" 30 140 basechar 0
AnchorPoint: "Diacritic_down" 120 -60 basechar 0
AnchorPoint: "Diacritic_up" 204 360 basechar 0
AnchorPoint: "Extension_down" 172 0 basechar 0
AnchorPoint: "Extension_up" 108 280 basechar 0
LayerCount: 2
Fore
SplineSet
215.194345211 129.998039105 m 1
 209.596464921 136.995389468 l 1
 208.196994848 129.998039105 l 1
 215.194345211 129.998039105 l 1
98.1971178554 281.972524414 m 2
 98.5708733462 283.841301868 99.4814781238 285.623613748 100.928932188 287.071067812 c 0
 104.83156058 290.973696203 111.16843942 290.973696203 115.071067812 287.071067812 c 0
 117.526242139 284.615893485 118.436846917 281.197299446 117.802882145 278.027475586 c 2
 88.1969948484 129.998039105 l 1
 187.802659036 129.998039105 l 1
 194.197693428 161.972663805 l 2
 194.42026177 163.085505514 194.837710906 164.178588939 195.461899789 165.20322324 c 0
 198.331295267 169.913465774 204.489976796 171.404968565 209.20634901 168.531838997 c 0
 210.23231672 167.906837824 211.106060274 167.126454039 211.815720718 166.239378484 c 2
 243.815807622 126.239559029 l 2
 244.500850122 125.383255904 245.055209065 124.398932986 245.438280479 123.306098845 c 0
 247.262780169 118.101127987 244.515243339 112.393029598 239.306549157 110.567224771 c 0
 238.212933269 110.18387933 237.09721556 110.001960895 236 110.001960895 c 0
 225.399118132 110.001960895 214.798236265 109.999836848 204.197354397 109.999836848 c 1
 181.802882145 -1.97252441356 l 2
 181.429126654 -3.84130186778 180.518521876 -5.62361374754 179.071067812 -7.07106781187 c 0
 175.16843942 -10.9736962033 168.83156058 -10.9736962033 164.928932188 -7.07106781187 c 0
 162.473757861 -4.6158934848 161.563153083 -1.19729944591 162.197117855 1.97252441356 c 2
 183.802677699 109.998474721 l 1
 147.871368655 109.998474721 111.940059612 109.99127534 76.0087505682 109.99127534 c 0
 75.6797087057 109.99127534 75.3476286504 110.007491333 75.0133594935 110.040619915 c 0
 69.5216339504 110.584891127 65.5053211792 115.489318869 66.050076252 120.985926591 c 0
 66.0832342854 121.320492915 66.1325311836 121.649591055 66.1971178554 121.972524414 c 2
 98.1971178554 281.972524414 l 2
EndSplineSet
Substitution2: "Single Substitution lookup 19 subtable" h.ext.up
Substitution2: "Single Substitution lookup 18 subtable" h.ext.down
EndChar

StartChar: j
Encoding: 106 106 25
Width: 320
Flags: HW
AnchorPoint: "Diacritic_left" 10 140 basechar 0
AnchorPoint: "Diacritic_right" 240 140 basechar 0
AnchorPoint: "Diacritic_down" 120 -60 basechar 0
AnchorPoint: "Diacritic_up" 204 360 basechar 0
AnchorPoint: "Extension_down" 232 0 basechar 0
AnchorPoint: "Extension_up" 288 280 basechar 0
LayerCount: 2
Fore
SplineSet
288 289.998039105 m 0
 290.559876808 289.998039105 293.119753616 289.022382008 295.071067812 287.071067812 c 0
 298.973696203 283.16843942 298.973696203 276.83156058 295.071067812 272.928932188 c 0
 293.119753616 270.977617992 290.559876808 270.001960895 288 270.001960895 c 0
 257.116559324 270.001960895 230.852258759 268.309391443 208.636684865 265.236734886 c 0
 190.86402546 262.778581939 175.68690284 259.437395645 162.803685513 255.404901418 c 0
 139.593670899 248.140081803 123.917023494 238.666291965 113.439620568 228.188889039 c 0
 109.184986985 223.934255455 105.738981254 219.473735457 102.94203174 214.81310651 c 0
 99.4466503002 208.988662472 96.9555574512 202.837045377 95.2532729101 196.338228029 c 0
 92.8033419742 186.985118557 92.003369484 176.884718138 92.3596878841 166.269683127 c 0
 92.6445601004 157.783092063 93.6673786278 148.989295976 95.112993936 140.079050287 c 0
 96.9201789594 128.940220701 99.3857602558 117.628420288 101.823217029 106.468868841 c 0
 104.290507387 95.1727285433 106.73133174 84.0370707845 108.381636568 73.2846755345 c 0
 109.702034284 64.6817569203 110.525332232 56.3116812875 110.355136686 48.2240484582 c 0
 110.219058912 41.7576802026 109.444463663 35.4441178884 107.662275738 29.4064042338 c 0
 105.575089367 22.3354138611 102.058938676 15.6729762045 96.7618597926 9.9980391054 c 1
 232 9.9980391054 l 2
 234.559876808 9.9980391054 237.119753616 9.02238200756 239.071067812 7.07106781187 c 0
 242.973696203 3.16843942048 242.973696203 -3.16843942048 239.071067812 -7.07106781187 c 0
 237.119753616 -9.02238200756 234.559876808 -9.9980391054 232 -9.9980391054 c 2
 32 -9.9980391054 l 2
 26.4819322471 -9.9980391054 22.0019608946 -5.51806775286 22.0019608946 0 c 0
 22.0019608946 5.51806775286 26.4819322471 9.9980391054 32 9.9980391054 c 0
 47.3582507364 9.9980391054 58.8632668987 11.7662577382 67.1397507518 14.6072569789 c 0
 73.7664371492 16.8819440753 78.3068512459 19.7889127729 81.5229698607 23.0050313878 c 0
 84.8382413023 26.3203028294 87.0496528249 30.2243347895 88.4864859054 35.0920519315 c 0
 89.6361858877 38.9870167593 90.2556235687 43.5208435348 90.3635184085 48.6479686021 c 0
 90.4982886303 55.0522024263 89.8295831012 62.3397813113 88.6184195424 70.2309957548 c 0
 87.1042727775 80.0962668269 84.7563364789 90.8852731087 82.2898763557 102.177612296 c 0
 79.8519049759 113.339519796 77.300475907 124.997392487 75.3765437773 136.85580867 c 0
 73.8372653631 146.343359595 72.6981618241 155.965006631 72.3749510473 165.593736752 c 0
 71.971165706 177.622853223 72.8389630267 189.697663762 75.9121508788 201.430183233 c 0
 78.045365496 209.574163763 81.2490257488 217.539890256 85.7857099851 225.099483938 c 0
 89.4144130126 231.146085167 93.8899398711 236.923479589 99.2974849445 242.331024662 c 0
 112.641505992 255.67504571 131.366529006 266.523159533 156.806429262 274.485941525 c 0
 170.950942418 278.913225968 187.199156593 282.459502896 205.878383711 285.043044062 c 0
 229.227667971 288.272505147 256.382209511 289.998039105 288 289.998039105 c 0
EndSplineSet
Substitution2: "Single Substitution lookup 19 subtable" j.ext.up
Substitution2: "Single Substitution lookup 18 subtable" j.ext.down
EndChar

StartChar: k
Encoding: 107 107 26
Width: 320
Flags: HW
AnchorPoint: "Diacritic_right" 200 140 basechar 0
AnchorPoint: "Diacritic_left" 0 140 basechar 0
AnchorPoint: "Diacritic_down" 120 -60 basechar 0
AnchorPoint: "Diacritic_up" 204 360 basechar 0
AnchorPoint: "Extension_down" 172 0 basechar 0
AnchorPoint: "Extension_up" 308 280 basechar 0
LayerCount: 2
Fore
SplineSet
308 289.998039105 m 2
 310.559876808 289.998039105 313.119753616 289.022382008 315.071067812 287.071067812 c 0
 318.973696203 283.16843942 318.973696203 276.83156058 315.071067812 272.928932188 c 0
 313.119753616 270.977617992 310.559876808 270.001960895 308 270.001960895 c 2
 74.8185814048 270.001960895 l 1
 55.2245737688 219.150026649 48.1304017603 176.896711418 49.3816737539 142.518247917 c 0
 50.1054204717 122.633442496 53.6076434892 105.365147473 59.1073595931 90.4523906824 c 0
 65.9807346173 71.8148886497 75.9869281742 56.8094589306 87.7882585491 45.0081285557 c 0
 98.4446697277 34.3517173771 110.653848195 26.239578198 123.441540405 20.5235530555 c 0
 139.426462482 13.3783844828 156.301853454 9.9980391054 172 9.9980391054 c 0
 174.559876808 9.9980391054 177.119753616 9.02238200756 179.071067812 7.07106781187 c 0
 182.973696203 3.16843942048 182.973696203 -3.16843942048 179.071067812 -7.07106781187 c 0
 177.119753616 -9.02238200756 174.559876808 -9.9980391054 172 -9.9980391054 c 0
 153.440668922 -9.9980391054 133.85812957 -6.04354215041 115.267858076 2.26620268256 c 0
 100.395395428 8.91410826465 86.1493705604 18.3627452969 73.6461229254 30.865992932 c 0
 59.7992645054 44.712851352 48.1990827905 62.2223480088 40.3474042585 83.5125692009 c 0
 34.0670775174 100.54199099 30.1933035879 119.960064531 29.3989274512 141.785400001 c 0
 27.9683440164 181.09041174 36.4774012699 228.105858665 58.7265748086 283.728792512 c 0
 60.2359028961 287.502112731 63.9278595252 289.998039105 68 289.998039105 c 2
 308 289.998039105 l 2
EndSplineSet
Substitution2: "Single Substitution lookup 19 subtable" k.ext.up
Substitution2: "Single Substitution lookup 18 subtable" k.ext.down
EndChar

StartChar: l
Encoding: 108 108 27
Width: 320
Flags: HW
AnchorPoint: "Diacritic_left" 20 140 basechar 0
AnchorPoint: "Diacritic_right" 220 140 basechar 0
AnchorPoint: "Diacritic_down" 120 -60 basechar 0
AnchorPoint: "Diacritic_up" 204 360 basechar 0
AnchorPoint: "Extension_up" 88 280 basechar 0
AnchorPoint: "Extension_down" 232 0 basechar 0
LayerCount: 2
Fore
SplineSet
78.1971178554 281.972524414 m 2
 78.5708733462 283.841301868 79.4814781238 285.623613748 80.9289321881 287.071067812 c 0
 84.8315605795 290.973696203 91.1684394205 290.973696203 95.0710678119 287.071067812 c 0
 97.5262421389 284.615893485 98.4368469165 281.197299446 97.8028821446 278.027475586 c 2
 72.1719508828 149.872819277 l 1
 84.1896208674 149.617445447 94.8638067056 148.974522233 104.334005354 147.972172672 c 0
 114.378228755 146.909066893 123.070789846 145.443613499 130.602798846 143.568646821 c 0
 138.133511391 141.694002873 144.519191967 139.41522559 149.934491016 136.606972721 c 0
 154.264365496 134.361596737 157.995599672 131.766370663 161.098115145 128.66385519 c 0
 162.8493206 126.912649735 164.374192287 125.017924754 165.6364032 122.987474806 c 0
 167.213973768 120.449722959 168.370112294 117.702183195 169.060796907 114.866313432 c 0
 171.020642778 106.819416852 169.176152823 98.867770893 165.836637055 91.8138782834 c 0
 163.958543569 87.8468750768 161.553465345 84.0150985278 158.755108452 80.2416887343 c 0
 155.257540106 75.5254358902 151.133366354 70.8934159538 146.554804511 66.3148541109 c 0
 138.980709794 58.7407593937 130.163332935 51.3198885821 120.851620489 44.202387576 c 0
 109.216010725 35.3085922956 96.807970552 26.9010081094 85.1782394486 19.4921471256 c 0
 79.8532719039 16.0998120897 74.6910281508 12.9169017606 69.8446013306 9.9980391054 c 1
 232 9.9980391054 l 2
 234.559876808 9.9980391054 237.119753616 9.02238200756 239.071067812 7.07106781187 c 0
 242.973696203 3.16843942048 242.973696203 -3.16843942048 239.071067812 -7.07106781187 c 0
 237.119753616 -9.02238200756 234.559876808 -9.9980391054 232 -9.9980391054 c 2
 31.998533591 -9.99206731682 l 2
 30.2339446845 -9.99206731682 28.4473479824 -9.52531192909 26.8291726212 -8.54506006951 c 0
 22.1084324199 -5.68534877249 20.5972835496 0.468638045125 23.4567123285 5.18891187245 c 0
 24.4368673465 6.80692736995 25.8041443233 8.04780523539 27.3681141226 8.86480438466 c 2
 27.3681141226 8.86480438466 48.9349712427 20.1207151909 74.440846954 36.3695420755 c 0
 85.7221227873 43.5564154111 97.7027082793 51.6841438626 108.721150779 60.1062011407 c 0
 117.532680144 66.8413821814 125.728418118 73.7727389658 132.412668887 80.4569897346 c 0
 136.448805405 84.4931262524 139.933725705 88.4415338384 142.676916413 92.1405554715 c 0
 144.871166764 95.0993652596 146.582961386 97.8941103434 147.760288234 100.38091913 c 0
 149.920529069 104.943888109 150.136689581 108.049524508 149.634971754 110.109518879 c 0
 149.446526475 110.883253028 149.146722077 111.624093781 148.642196855 112.435696024 c 0
 148.238731138 113.084729349 147.69718836 113.780510727 146.955979521 114.521719566 c 0
 145.643361102 115.834337985 143.622691311 117.346436904 140.723468644 118.849908882 c 0
 137.102396257 120.727715967 132.14359105 122.574878277 125.747439585 124.167092369 c 0
 117.752530043 126.157290335 107.539909729 127.753036884 94.9389680141 128.760881857 c 0
 84.8576233827 129.567205125 73.2479183757 130.001960895 60 130.001960895 c 2
 60 130.001960895 59.9896333131 129.993945133 59.7774010894 129.993945133 c 1
 59.8546765198 129.993945133 59.9317966334 129.99127534 60.0087505682 129.99127534 c 1
 59.7774010894 129.993945133 l 2
 59.5242599982 129.999785358 59.2694521935 130.015239207 59.0133594935 130.040619915 c 0
 53.5216339505 130.584891127 49.5053211792 135.489318869 50.050076252 140.985926591 c 0
 50.0832342854 141.320492915 50.1325311836 141.649591055 50.1971178554 141.972524414 c 2
 78.1971178554 281.972524414 l 2
EndSplineSet
Substitution2: "Single Substitution lookup 19 subtable" l.ext.up
Substitution2: "Single Substitution lookup 18 subtable" l.ext.down
EndChar

StartChar: m
Encoding: 109 109 28
Width: 320
Flags: HW
AnchorPoint: "Diacritic_right" 230 140 basechar 0
AnchorPoint: "Diacritic_left" 30 140 basechar 0
AnchorPoint: "Diacritic_down" 120 -60 basechar 0
AnchorPoint: "Diacritic_up" 204 360 basechar 0
AnchorPoint: "Extension_up" 118 280 basechar 0
AnchorPoint: "Extension_down" 202 0 basechar 0
LayerCount: 2
Fore
SplineSet
108.197117855 281.972524414 m 2
 108.570873346 283.841301868 109.481478124 285.623613748 110.928932188 287.071067812 c 0
 114.83156058 290.973696203 121.16843942 290.973696203 125.071067812 287.071067812 c 0
 127.526242139 284.615893485 128.436846917 281.197299446 127.802882145 278.027475586 c 2
 102.145853731 149.742333517 l 1
 145.208919788 147.883635174 173.829208379 136.006620505 191.962042088 117.873786796 c 0
 208.603790397 101.232038487 215.272011501 80.3973576503 217.168214598 60.7160139054 c 0
 218.224150666 49.7560904964 217.836570455 39.0601148898 216.84699318 29.2605915108 c 0
 215.610896719 17.0198535004 213.422063874 6.12338423178 211.802882145 -1.97252441356 c 0
 211.429126654 -3.84130186778 210.518521876 -5.62361374754 209.071067812 -7.07106781187 c 0
 205.16843942 -10.9736962033 198.83156058 -10.9736962033 194.928932188 -7.07106781187 c 0
 192.473757861 -4.6158934848 191.563153083 -1.19729944591 192.197117855 1.97252441356 c 0
 193.810528972 10.0395799952 195.833944269 20.20435144 196.952802325 31.2841083752 c 0
 197.847188664 40.1409809527 198.154904145 49.5473240112 197.264950136 58.7844625819 c 0
 195.658551096 75.4578304003 190.266728171 91.284829466 177.819906464 103.731651172 c 0
 163.072172717 118.47938492 136.810815412 130.001960895 90 130.001960895 c 1
 90 130.001960895 89.9896333131 129.993945133 89.7774010894 129.993945133 c 1
 89.8546765198 129.993945133 89.9317966334 129.99127534 90.0087505682 129.99127534 c 1
 89.7774010894 129.993945133 l 2
 89.5242599982 129.999785358 89.2694521935 130.015239207 89.0133594935 130.040619915 c 0
 83.5216339505 130.584891127 79.5053211792 135.489318869 80.050076252 140.985926591 c 0
 80.0832342854 141.320492915 80.1325311836 141.649591055 80.1971178554 141.972524414 c 2
 108.197117855 281.972524414 l 2
EndSplineSet
Substitution2: "Single Substitution lookup 19 subtable" m.ext.up
Substitution2: "Single Substitution lookup 18 subtable" m.ext.down
EndChar

StartChar: n
Encoding: 110 110 29
Width: 320
Flags: HW
AnchorPoint: "Diacritic_right" 240 140 basechar 0
AnchorPoint: "Diacritic_left" 40 140 basechar 0
AnchorPoint: "Diacritic_down" 120 -60 basechar 0
AnchorPoint: "Diacritic_up" 204 360 basechar 0
AnchorPoint: "Extension_up" 118 280 basechar 0
AnchorPoint: "Extension_down" 202 0 basechar 0
LayerCount: 2
Fore
SplineSet
108.197117855 281.972524414 m 2
 108.570873346 283.841301868 109.481478124 285.623613748 110.928932188 287.071067812 c 0
 114.83156058 290.973696203 121.16843942 290.973696203 125.071067812 287.071067812 c 0
 127.526242139 284.615893485 128.436846917 281.197299446 127.802882145 278.027475586 c 2
 103.821236682 158.119248272 l 2
 103.065275475 153.904068603 103.194067767 150.079690161 103.962568983 146.716452291 c 0
 104.929174572 142.486238393 106.920992302 138.940862333 109.614576182 136.247278453 c 0
 111.71233752 134.149517116 114.330856589 132.470044323 117.452383168 131.377970479 c 0
 117.80749219 131.253734704 118.169450209 131.136940383 118.538355003 131.02798159 c 0
 119.438382141 133.713797029 120.499296498 136.314692469 121.701434359 138.814348093 c 0
 124.870766604 145.404473427 129.018651432 151.309884368 133.946135694 156.23736863 c 0
 138.467170503 160.758403439 143.622766936 164.438834862 149.335538818 166.883790461 c 0
 153.90102095 168.837728293 158.862017331 169.998039105 164 169.998039105 c 0
 171.050195404 169.998039105 177.588724533 169.032542724 183.543576954 167.068513449 c 0
 190.994201094 164.611148783 197.438093885 160.588561476 202.692881792 155.333773569 c 0
 208.940630897 149.086024463 213.340280403 141.358997169 216.411575417 132.789034055 c 0
 220.254715262 122.065359981 222.088448845 109.923785263 222.649325638 96.818625165 c 0
 223.210497915 83.7065609173 222.475960515 69.5821676327 220.900998552 54.8801742148 c 0
 218.932603229 36.5055494646 215.642311485 17.2246222883 211.802882145 -1.97252441356 c 0
 211.429126654 -3.84130186778 210.518521876 -5.62361374754 209.071067812 -7.07106781187 c 0
 205.16843942 -10.9736962033 198.83156058 -10.9736962033 194.928932188 -7.07106781187 c 0
 192.473757861 -4.6158934848 191.563153083 -1.19729944591 192.197117855 1.97252441356 c 0
 195.961145862 20.7926644479 199.145159832 39.5290240078 201.01946374 57.025321923 c 0
 202.518661161 71.0200666374 203.174054997 84.2187384797 202.671673478 95.9571279494 c 0
 202.168996474 107.702421569 200.485691228 117.938689158 197.589050329 126.021307579 c 0
 195.268520748 132.49637846 192.213790833 137.52859328 188.550746168 141.191637945 c 0
 185.472451275 144.269932838 181.84667588 146.566690802 177.256929355 148.080480886 c 0
 173.579485244 149.29337541 169.224468255 150.001960895 164 150.001960895 c 0
 161.906038629 150.001960895 159.63509097 149.533520388 157.218837394 148.499410707 c 0
 154.204439641 147.209306915 151.023816957 145.030778646 148.088271317 142.095233006 c 0
 145.532891256 139.539852944 143.139728606 136.394657246 141.144973573 132.858631903 c 0
 138.650397161 128.43659247 136.777524966 123.431019412 135.824808053 118.191076394 c 0
 134.964859597 113.461359885 130.814480833 110.001960895 126 110.001960895 c 0
 120.649173383 110.001960895 115.530997513 110.859335432 110.826896637 112.505076833 c 0
 104.944875632 114.562916524 99.7367037102 117.840879678 95.4724405584 122.105142829 c 0
 89.9969792967 127.580604091 86.2346047121 134.520073124 84.4711742333 142.237479481 c 0
 83.060707956 148.410187476 82.937746829 155.054673796 84.1638807749 161.798410499 c 0
 84.1744519027 161.856551702 84.1855313946 161.91459211 84.1971178554 161.972524414 c 2
 108.197117855 281.972524414 l 2
EndSplineSet
Substitution2: "Single Substitution lookup 19 subtable" n.ext.up
Substitution2: "Single Substitution lookup 18 subtable" n.ext.down
EndChar

StartChar: p
Encoding: 112 112 30
Width: 320
Flags: HW
AnchorPoint: "Diacritic_left" 40 140 basechar 0
AnchorPoint: "Diacritic_right" 240 140 basechar 0
AnchorPoint: "Diacritic_down" 120 -60 basechar 0
AnchorPoint: "Diacritic_up" 204 360 basechar 0
AnchorPoint: "Extension_down" 152 0 basechar 0
AnchorPoint: "Extension_up" 288 280 basechar 0
LayerCount: 2
Fore
SplineSet
288 289.998039105 m 2
 290.559876808 289.998039105 293.119753616 289.022382008 295.071067812 287.071067812 c 0
 298.973696203 283.16843942 298.973696203 276.83156058 295.071067812 272.928932188 c 0
 293.119753616 270.977617992 290.559876808 270.001960895 288 270.001960895 c 2
 96.3434085454 270.001960895 l 1
 94.5857453791 259.221232803 93.8321294671 249.396041596 94.0286103807 240.554400481 c 0
 94.2457687152 230.782275433 95.617685024 222.227231117 98.0124100526 214.814986981 c 0
 101.00505958 205.552024159 105.570992591 198.025688488 111.732224837 191.864456242 c 0
 117.895762684 185.700918394 125.872268752 180.718777714 135.993199052 177.051773982 c 0
 148.638605919 172.470104828 164.632832582 169.998039105 184 169.998039105 c 0
 184.329041862 169.998039105 184.661121918 169.981823112 184.995391075 169.94869453 c 0
 190.487116618 169.404423318 194.503429389 164.499995576 193.958674316 159.003387855 c 0
 193.925516283 158.66882153 193.876219385 158.339723391 193.811632713 158.016790032 c 2
 161.802882145 -1.97252441356 l 2
 161.429126654 -3.84130186778 160.518521876 -5.62361374754 159.071067812 -7.07106781187 c 0
 155.16843942 -10.9736962033 148.83156058 -10.9736962033 144.928932188 -7.07106781187 c 0
 142.473757861 -4.6158934848 141.563153083 -1.19729944591 142.197117855 1.97252441356 c 2
 171.865023435 150.312052312 l 1
 155.851990093 151.156490348 141.612875855 153.740930542 129.160152647 158.252786777 c 0
 116.752769509 162.74821545 106.118929694 169.193480137 97.5900892129 177.722320618 c 0
 87.6294121254 187.682997705 80.8624562115 200.214264363 77.247554171 214.744752958 c 0
 74.3564424573 226.365888277 73.4458609213 239.231734789 74.3188272951 253.296193034 c 0
 74.8808717752 262.351354101 76.1873710438 271.875866603 78.2085792742 281.981907755 c 0
 79.1382281975 286.630152371 83.2519826425 289.998039105 88 289.998039105 c 2
 288 289.998039105 l 2
EndSplineSet
Substitution2: "Single Substitution lookup 19 subtable" p.ext.up
Substitution2: "Single Substitution lookup 18 subtable" p.ext.down
EndChar

StartChar: r
Encoding: 114 114 31
Width: 320
Flags: HW
AnchorPoint: "Diacritic_right" 260 140 basechar 0
AnchorPoint: "Diacritic_left" 60 140 basechar 0
AnchorPoint: "Diacritic_down" 120 -60 basechar 0
AnchorPoint: "Diacritic_up" 204 360 basechar 0
AnchorPoint: "Extension_up" 88 280 basechar 0
AnchorPoint: "Extension_down" 232 0 basechar 0
LayerCount: 2
Fore
SplineSet
88 270.001960895 m 0
 85.4401231919 270.001960895 82.8802463838 270.977617992 80.9289321881 272.928932188 c 0
 77.0263037967 276.83156058 77.0263037967 283.16843942 80.9289321881 287.071067812 c 0
 82.8802463838 289.022382008 85.4401231919 289.998039105 88 289.998039105 c 0
 125.685255817 289.998039105 154.378581095 279.388304256 173.228552925 260.538332425 c 0
 182.025872536 251.741012814 188.47915619 241.327385439 192.648896772 229.881632866 c 0
 195.984473549 220.725622864 197.86196819 210.926266456 198.390342903 200.746996871 c 0
 199.447266631 180.385099734 195.149921457 158.499484943 186.188454281 136.524806581 c 0
 174.98251444 109.046390503 156.424926648 81.3005782108 131.167163634 56.0428151966 c 0
 114.418920486 39.2945720491 94.7348087265 23.661898703 72.285157147 9.9980391054 c 1
 232 9.9980391054 l 2
 234.559876808 9.9980391054 237.119753616 9.02238200756 239.071067812 7.07106781187 c 0
 242.973696203 3.16843942048 242.973696203 -3.16843942048 239.071067812 -7.07106781187 c 0
 237.119753616 -9.02238200756 234.559876808 -9.9980391054 232 -9.9980391054 c 2
 31.9987289963 -9.99218010468 l 2
 30.1449444592 -9.99218010468 28.2698667813 -9.47774837813 26.5964891782 -8.40058591961 c 0
 21.9552525384 -5.41299611314 20.6119185966 0.779428222635 23.5985447217 5.41916777839 c 0
 24.6753597292 7.09200561441 26.1689628501 8.3360735849 27.8563608691 9.10307268445 c 0
 63.6348054096 25.366002021 93.5558967036 46.7158195138 117.02502801 70.1849508203 c 0
 140.536589264 93.6965120746 157.595936947 119.384187837 167.672508271 144.093246016 c 0
 175.737050026 163.86854706 179.291682225 182.935462845 178.421349583 199.702636532 c 0
 177.986096111 208.087902359 176.455154132 215.897216424 173.861835578 223.015760593 c 0
 170.620456998 231.913200733 165.724404757 239.758209346 159.086417302 246.396196801 c 0
 144.960610361 260.522003743 122.029185912 270.001960895 88 270.001960895 c 0
EndSplineSet
Substitution2: "Single Substitution lookup 19 subtable" r.ext.up
Substitution2: "Single Substitution lookup 18 subtable" r.ext.down
EndChar

StartChar: s
Encoding: 115 115 32
Width: 320
Flags: HW
AnchorPoint: "Diacritic_left" 0 140 basechar 0
AnchorPoint: "Diacritic_right" 240 140 basechar 0
AnchorPoint: "Diacritic_down" 120 -60 basechar 0
AnchorPoint: "Diacritic_up" 204 360 basechar 0
AnchorPoint: "Extension_up" 288 280 basechar 0
AnchorPoint: "Extension_down" 192 0 basechar 0
LayerCount: 2
Fore
SplineSet
278.659937384 283.576268352 m 0
 279.146459839 284.850493831 279.902791441 286.044927064 280.928932188 287.071067812 c 0
 284.83156058 290.973696203 291.16843942 290.973696203 295.071067812 287.071067812 c 0
 297.947555456 284.194580168 298.703887057 279.995652803 297.340062616 276.423731648 c 0
 287.813715626 251.473775244 277.620429585 230.884052207 266.925392072 213.973095456 c 0
 258.36972687 200.444906888 249.489805553 189.267669929 240.351067812 180.128932188 c 0
 232.735914828 172.513779205 224.960715683 166.33841826 217.101717253 161.448374793 c 0
 207.278290413 155.336020315 197.32611579 151.242896451 187.499909789 148.840934985 c 0
 159.879693318 142.089326514 134.034143732 148.754615762 113.71266316 158.360438028 c 0
 102.375052444 163.719647613 92.6008118101 170.051260411 84.8174345859 175.820082613 c 0
 82.6194532988 177.449165065 80.5798937156 179.033982317 78.7097584529 180.540987989 c 1
 74.1546257595 150.719438538 74.2599984707 126.208690169 77.4872334219 106.144011392 c 0
 80.1527702234 89.5715769392 84.9335743215 76.0095167925 91.0309271035 64.817482469 c 0
 95.9097110849 55.8621997866 101.642064248 48.4076799071 107.892380988 42.1573631675 c 0
 119.84741873 30.2023254253 133.903292491 22.4899135596 147.655608025 17.6269328974 c 0
 164.831050061 11.5534944079 181.477854856 9.9980391054 192 9.9980391054 c 0
 194.559876808 9.9980391054 197.119753616 9.02238200756 199.071067812 7.07106781187 c 0
 202.973696203 3.16843942048 202.973696203 -3.16843942048 199.071067812 -7.07106781187 c 0
 197.119753616 -9.02238200756 194.559876808 -9.9980391054 192 -9.9980391054 c 0
 179.620412691 -9.9980391054 160.908862987 -8.2754359746 140.967261929 -1.22385109208 c 0
 125.025942987 4.41318694335 108.262621572 13.502851336 93.7502453641 28.0152275438 c 0
 86.1690059815 35.5964669265 79.2582672695 44.6130908885 73.4641386367 55.2485402141 c 0
 66.220350651 68.5449209006 60.7384190768 84.3456322739 57.7464124383 102.947826725 c 0
 53.437145546 129.739819644 54.2613712449 162.304088328 62.1949335553 201.97189988 c 0
 62.3920336812 202.95740051 62.742443417 203.929316515 63.2556453158 204.854611119 c 0
 65.9306676778 209.677632549 72.0221511176 211.419304361 76.8501272551 208.741533939 c 0
 77.7763724172 208.227804826 78.5892524377 207.588495648 79.2700005702 206.866472823 c 0
 79.2771519576 206.85893471 79.5389233618 206.583212262 80.0385678119 206.083567812 c 0
 82.0623688085 204.059766815 88.0024307803 198.356753503 96.7118878162 191.901546763 c 0
 103.679053612 186.737677715 112.414130099 181.100178859 122.268918916 176.441888853 c 0
 140.093757503 168.016211856 161.087714089 162.973224926 182.726756878 168.262768719 c 0
 190.493143469 170.161218775 198.442203414 173.397770266 206.54287351 178.438187215 c 0
 213.02315263 182.470360889 219.601862949 187.663998573 226.208932188 194.271067812 c 0
 234.136861113 202.198996737 242.133976833 212.197068421 250.012879532 224.655162432 c 0
 259.861051896 240.227058904 269.519617708 259.637335867 278.659937384 283.576268352 c 0
EndSplineSet
Substitution2: "Single Substitution lookup 19 subtable" s.ext.up
Substitution2: "Single Substitution lookup 18 subtable" s.ext.down
EndChar

StartChar: t
Encoding: 116 116 33
Width: 320
Flags: HW
AnchorPoint: "Diacritic_left" 0 140 basechar 0
AnchorPoint: "Diacritic_right" 200 140 basechar 0
AnchorPoint: "Diacritic_down" 120 -60 basechar 0
AnchorPoint: "Diacritic_up" 204 360 basechar 0
AnchorPoint: "Extension_up" 288 280 basechar 0
AnchorPoint: "Extension_down" 32 0 basechar 0
LayerCount: 2
Fore
SplineSet
288 289.998039105 m 2
 290.559876808 289.998039105 293.119753616 289.022382008 295.071067812 287.071067812 c 0
 298.973696203 283.16843942 298.973696203 276.83156058 295.071067812 272.928932188 c 0
 293.119753616 270.977617992 290.559876808 270.001960895 288 270.001960895 c 2
 96.1977792062 270.001960895 l 1
 41.8028821446 -1.97252441356 l 2
 41.4291266538 -3.84130186778 40.5185218762 -5.62361374754 39.0710678119 -7.07106781187 c 0
 35.1684394205 -10.9736962033 28.8315605795 -10.9736962033 24.9289321881 -7.07106781187 c 0
 22.4737578611 -4.6158934848 21.5631530835 -1.19729944591 22.1971178554 1.97252441356 c 2
 78.2085792742 281.981907755 l 2
 79.1382281975 286.630152371 83.2519826425 289.998039105 88 289.998039105 c 2
 288 289.998039105 l 2
EndSplineSet
Substitution2: "Single Substitution lookup 19 subtable" t.ext.up
Substitution2: "Single Substitution lookup 18 subtable" t.ext.down
EndChar

StartChar: v
Encoding: 118 118 34
Width: 320
Flags: HW
HStem: -244 84G<300 340> -104 40<271 300> -4 40<240 400>
VStem: 200 40<-94 -4> 300 40<-204 -104>
AnchorPoint: "Diacritic_left" 60 140 basechar 0
AnchorPoint: "Diacritic_right" 260 140 basechar 0
AnchorPoint: "Diacritic_down" 120 -60 basechar 0
AnchorPoint: "Diacritic_up" 204 360 basechar 0
AnchorPoint: "Extension_up" 288 280 basechar 0
AnchorPoint: "Extension_down" 32 0 basechar 0
LayerCount: 2
Fore
SplineSet
114.268390386 157.641884648 m 1
 121.332946415 146.338595 l 1
 122.15428739 149.989571074 122.992543827 153.584942385 123.853946839 157.123908384 c 1
 120.763289043 157.332915671 117.568613401 157.506118502 114.268390386 157.641884648 c 1
288 289.998039105 m 0
 290.559876808 289.998039105 293.119753616 289.022382008 295.071067812 287.071067812 c 0
 298.973696203 283.16843942 298.973696203 276.83156058 295.071067812 272.928932188 c 0
 293.119753616 270.977617992 290.559876808 270.001960895 288 270.001960895 c 0
 264.347789566 270.001960895 244.956200614 267.593192189 229.003768492 263.140735971 c 0
 217.922204016 260.047779344 208.492401816 255.978755121 200.326711389 251.020834813 c 0
 193.792700339 247.05361289 188.056561097 242.511748439 182.923904157 237.379091499 c 0
 171.91776984 226.372957183 163.497268622 212.424681345 156.5924242 195.377248026 c 0
 153.951319947 188.856601667 151.541547965 181.892599929 149.29662907 174.505927724 c 1
 158.149707829 173.162699109 166.09986585 171.444213203 173.226020002 169.36343376 c 0
 181.770290048 166.868575932 189.141328356 163.851160257 195.439252453 160.263192618 c 0
 200.476402469 157.393496037 204.833203133 154.153035561 208.497107352 150.489131342 c 0
 213.926946526 145.059292169 217.693955861 138.766842784 219.624803581 131.972318877 c 0
 222.643759699 121.348814337 221.056300724 110.282646538 216.853175859 99.8957696459 c 0
 214.505633944 94.0944599912 211.322907797 88.3999313476 207.47544391 82.7977544352 c 0
 202.666079731 75.7949833214 196.806877407 68.9264538153 190.12688663 62.2464630386 c 0
 180.574377147 52.6939535558 169.35448273 43.5426687464 157.07509333 35.1112812593 c 0
 141.727863329 24.5734247927 124.722587467 15.1630709831 107.243251306 7.67418906077 c 0
 93.2592558769 1.68285794805 78.9694720801 -3.08088106095 64.9381601525 -6.15539389692 c 0
 53.7131513024 -8.61499524936 42.6444303707 -9.9980391054 32 -9.9980391054 c 0
 29.4401231919 -9.9980391054 26.8802463838 -9.02238200756 24.9289321881 -7.07106781187 c 0
 21.0263037967 -3.16843942048 21.0263037967 3.16843942048 24.9289321881 7.07106781187 c 0
 26.8802463838 9.02238200756 29.4401231919 9.9980391054 32 9.9980391054 c 0
 40.8892046434 9.9980391054 50.5708371469 11.1701039337 60.6338449087 13.3750899459 c 0
 73.2125537461 16.1313113156 86.372889428 20.4943669502 99.352832417 26.0555198172 c 0
 115.578419279 33.0072428695 131.518408533 41.827633622 145.766395556 51.610717747 c 0
 157.163179775 59.4360827332 167.4754282 67.8792758559 175.984751006 76.3885986623 c 0
 181.932408606 82.3362562621 187.004605323 88.3238127625 190.977162391 94.1081341094 c 0
 194.155235502 98.7356311655 196.622380565 103.226620621 198.316991102 107.414388435 c 0
 201.389740649 115.007850986 201.86914731 121.285554984 200.392627363 126.481329866 c 0
 199.433526183 129.85634273 197.598598467 133.10336898 194.354971729 136.346995718 c 0
 192.164481724 138.537485723 189.267516177 140.756870111 185.540963438 142.879911042 c 0
 180.884259091 145.532865292 174.941393104 148.026516269 167.596536605 150.171155031 c 0
 160.897395822 152.12725002 153.040288989 153.793363843 143.965373915 155.07475841 c 1
 141.086327254 143.532705085 138.430089589 131.163512808 135.802882145 118.027475586 c 0
 135.54383677 116.732248712 135.022264672 115.467974191 134.223747594 114.313559375 c 0
 131.085720912 109.776919396 124.851396969 108.643821385 120.310485729 111.78480253 c 0
 119.154984027 112.584071414 118.219766186 113.583572112 117.51925046 114.704397274 c 2
 87.5155982818 162.703733485 l 2
 87.0325845349 163.47655548 86.648234027 164.328743792 86.384722046 165.24801119 c 0
 84.8645065942 170.551316559 87.9380267864 176.091761097 93.243956772 177.612728906 c 0
 94.163679118 177.8763713 95.0904934211 178.002048881 96.0022243933 178.002048881 c 0
 108.015977416 178.002048881 119.024480405 177.586770177 129.090008726 176.791176515 c 1
 131.769974626 185.940171688 134.716081143 194.649322368 138.058674742 202.901882166 c 0
 145.644487574 221.630564599 155.338217917 238.077676507 168.781768533 251.521227123 c 0
 175.040361958 257.779820548 182.070698716 263.33858329 189.952650714 268.124227593 c 0
 199.806914097 274.107390069 210.974389219 278.873572119 223.603092399 282.398348001 c 0
 241.793445702 287.475426596 262.999738934 289.998039105 288 289.998039105 c 0
EndSplineSet
Substitution2: "Single Substitution lookup 19 subtable" v.ext.up
Substitution2: "Single Substitution lookup 18 subtable" v.ext.down
EndChar

StartChar: x
Encoding: 120 120 35
Width: 320
Flags: HW
HStem: -244 84G<269 379> -4 40<229 431>
AnchorPoint: "Diacritic_left" 40 140 basechar 0
AnchorPoint: "Diacritic_right" 240 140 basechar 0
AnchorPoint: "Diacritic_up" 204 360 basechar 0
AnchorPoint: "Diacritic_down" 120 -60 basechar 0
AnchorPoint: "Extension_up" 308 280 basechar 0
AnchorPoint: "Extension_down" 252 0 basechar 0
LayerCount: 2
Fore
SplineSet
308 289.998039105 m 2
 310.559876808 289.998039105 313.119753616 289.022382008 315.071067812 287.071067812 c 0
 318.973696203 283.16843942 318.973696203 276.83156058 315.071067812 272.928932188 c 0
 313.119753616 270.977617992 310.559876808 270.001960895 308 270.001960895 c 2
 76.2673951773 270.001960895 l 1
 73.1379813847 252.841211132 71.4710408233 238.102825893 71.0315606898 225.530913724 c 0
 70.6262932188 213.937700146 71.2655820206 204.19812952 72.699961781 196.089350404 c 0
 73.8478268879 189.600284633 75.4998391052 184.159589956 77.5137723445 179.584635399 c 0
 80.0312756518 173.865745119 83.1045679645 169.478866534 86.6127654641 165.970669034 c 0
 93.2342654095 159.349169089 101.983557624 155.352519073 112.853099577 153.013977345 c 0
 118.870360598 151.719385903 125.475758506 150.959339382 132.460445863 150.535190065 c 0
 141.191809837 150.004972766 150.501359735 149.998039105 160 149.998039105 c 0
 160.329041862 149.998039105 160.661121918 149.981823112 160.995391075 149.94869453 c 0
 166.487116618 149.404423318 170.503429389 144.499995576 169.958674316 139.003387855 c 0
 169.933268765 138.747043284 169.898388588 138.493908901 169.85441583 138.244298012 c 1
 169.868702869 138.310578835 169.84544397 138.190008338 169.828010359 138.100528769 c 1
 169.837147171 138.148319835 169.845949726 138.196243724 169.85441583 138.244298012 c 1
 169.809722537 138.036955099 169.802882145 138.027475586 169.802882145 138.027475586 c 2
 166.50084473 121.517288516 164.470793876 107.099569744 163.533408376 94.5732916284 c 0
 162.361384422 78.9115409146 162.906936246 66.2256116725 164.699961781 56.0893504044 c 0
 165.847826888 49.6002846329 167.499839105 44.1595899555 169.513772344 39.5846353988 c 0
 172.031275652 33.8657451185 175.104567964 29.4788665341 178.612765464 25.9706690345 c 0
 185.23426541 19.3491690891 193.983557624 15.3525190734 204.853099577 13.0139773453 c 0
 210.870360598 11.7193859035 217.475758506 10.959339382 224.460445863 10.5351900652 c 0
 233.191809837 10.0049727663 242.501359735 9.9980391054 252 9.9980391054 c 0
 254.559876808 9.9980391054 257.119753616 9.02238200756 259.071067812 7.07106781187 c 0
 262.973696203 3.16843942048 262.973696203 -3.16843942048 259.071067812 -7.07106781187 c 0
 257.119753616 -9.02238200756 254.559876808 -9.9980391054 252 -9.9980391054 c 0
 242.499041152 -9.9980391054 232.808991938 -10.0049727663 223.239314432 -9.42384837684 c 0
 215.583168604 -8.95892434292 207.994810213 -8.11863883318 200.623053328 -6.53263261871 c 0
 187.39236305 -3.68609856563 174.648775426 1.65038782495 164.47062984 11.8285334108 c 0
 159.118331518 17.1808317336 154.636661598 23.7314342291 151.210765867 31.5138755638 c 0
 148.469979875 37.7399862992 146.398673305 44.7412212563 145.011307226 52.584224484 c 0
 143.276648003 62.3905316177 142.603284698 73.5193899977 143.0477816 86.2348134609 c 0
 143.497586268 99.1020726516 145.092898113 113.605710052 147.959892095 130.04228837 c 1
 142.386145969 130.099732829 136.792463711 130.238933312 131.239314432 130.576151623 c 0
 123.583168604 131.041075657 115.994810213 131.881361167 108.623053328 133.467367381 c 0
 95.3923630498 136.313901434 82.6487754262 141.650387825 72.4706298404 151.828533411 c 0
 67.1183315176 157.180831734 62.6366615982 163.731434229 59.2107658669 171.513875564 c 0
 56.4699798752 177.739986299 54.3986733055 184.741221256 53.011307226 192.584224484 c 0
 51.2766480034 202.390531618 50.6032846983 213.519389998 51.0477815995 226.234813461 c 0
 51.6038090139 242.140715195 53.913196347 260.504993119 58.2085792742 281.981907755 c 0
 59.1382281975 286.630152371 63.2519826425 289.998039105 68 289.998039105 c 2
 308 289.998039105 l 2
169.828010359 138.100528769 m 1
 169.81905299 138.054555686 169.811633214 138.016789849 169.811632713 138.016790032 c 0
 169.817206132 138.044657126 169.822665694 138.072570128 169.828010359 138.100528769 c 1
EndSplineSet
Substitution2: "Single Substitution lookup 19 subtable" x.ext.up
Substitution2: "Single Substitution lookup 18 subtable" x.ext.down
EndChar

StartChar: z
Encoding: 122 122 36
Width: 320
Flags: HW
AnchorPoint: "Diacritic_left" 0 140 basechar 0
AnchorPoint: "Diacritic_right" 300 140 basechar 0
AnchorPoint: "Diacritic_up" 204 360 basechar 0
AnchorPoint: "Diacritic_down" 120 -60 basechar 0
AnchorPoint: "Extension_up" 108 280 basechar 0
AnchorPoint: "Extension_down" 212 0 basechar 0
LayerCount: 2
Fore
SplineSet
73.81413895 155.160639003 m 1
 67.619019073 149.998039105 l 1
 73.2161544224 149.998039105 l 1
 73.3991485437 151.70183576 73.5984067973 153.422638774 73.81413895 155.160639003 c 1
108 270.001960895 m 0
 105.440123192 270.001960895 102.880246384 270.977617992 100.928932188 272.928932188 c 0
 97.0263037967 276.83156058 97.0263037967 283.16843942 100.928932188 287.071067812 c 0
 102.880246384 289.022382008 105.440123192 289.998039105 108 289.998039105 c 0
 131.777554272 289.998039105 151.875510434 287.016597608 168.843079834 281.737798239 c 0
 190.056884084 275.137948028 206.313086755 264.923741897 218.471423624 252.765405028 c 0
 238.913258888 232.323569763 247.213335241 207.164767186 250.277940799 186.004395478 c 0
 251.985387525 174.214882371 252.087813101 163.56312154 251.683809809 155.308486361 c 0
 251.178805993 144.990198523 249.878198148 138.404055605 249.802882146 138.027475592 c 0
 248.873233225 133.379230973 244.759478778 130.011344236 240.011461419 130.011344236 c 0
 190.604104415 130.011344236 141.196747411 130.004390543 91.7893904064 130.004390543 c 1
 91.3299749653 117.701176507 91.9011970681 106.705005844 93.3113579099 96.900278287 c 0
 95.000092631 85.1586504068 97.8841413825 75.1153294669 101.645754162 66.4825320425 c 0
 106.346931227 55.6934605348 112.421188423 47.0742847675 119.420587705 40.0748854855 c 0
 130.308115853 29.1873573375 143.712983731 22.0057143983 158.072280859 17.3986752608 c 0
 176.010074248 11.6435108233 195.322369128 9.9980391054 212 9.9980391054 c 0
 214.559876808 9.9980391054 217.119753616 9.02238200756 219.071067812 7.07106781187 c 0
 222.973696203 3.16843942048 222.973696203 -3.16843942048 219.071067812 -7.07106781187 c 0
 217.119753616 -9.02238200756 214.559876808 -9.9980391054 212 -9.9980391054 c 0
 194.049870829 -9.9980391054 172.738996839 -8.31272814109 151.939611333 -1.63945004069 c 0
 135.309165345 3.69626485223 118.931323692 12.279878251 105.278452081 25.9327498618 c 0
 96.5100032352 34.701198708 88.9806465784 45.4725997867 83.312842956 58.4800525433 c 0
 78.7792711853 68.8844745302 75.438300613 80.6981793494 73.5202254686 94.0343915507 c 0
 71.9475839404 104.968833404 71.3252937404 116.92160082 71.7750863705 130.003451592 c 1
 61.1833909136 130.003451592 50.5916954568 130.001960895 40 130.001960895 c 0
 38.5803375966 130.001960895 37.1386989712 130.305757291 35.769308849 130.947470399 c 0
 30.7724039579 133.289081686 28.6176059417 139.249082861 30.9604042524 144.248520811 c 0
 31.6024426612 145.618605113 32.5160586127 146.775277742 33.6070273815 147.684418382 c 2
 81.6053841085 187.688963546 l 2
 82.715517492 188.614074699 84.0440887146 189.311318519 85.536929539 189.689625854 c 0
 90.8838095069 191.044602136 96.3262295012 187.798306002 97.6828839769 182.444803703 c 0
 98.0616598608 180.950113934 98.0821527838 179.448179971 97.7985309832 178.030070968 c 0
 95.8132305218 168.103568661 94.3430235542 158.769726714 93.3373222382 149.998039105 c 1
 231.260561408 149.998039105 l 1
 231.43583147 151.839039805 231.597266377 153.952852406 231.711817129 156.293364677 c 0
 232.065907292 163.52816986 231.966174613 172.923769303 230.489628825 183.118966413 c 0
 227.823047857 201.531073093 220.730794685 222.22176272 204.329288 238.623269404 c 0
 194.557064186 248.395493219 181.282432496 256.920893175 162.878670583 262.646507992 c 0
 148.152187052 267.228080647 130.100581929 270.001960895 108 270.001960895 c 0
EndSplineSet
Substitution2: "Single Substitution lookup 19 subtable" z.ext.up
Substitution2: "Single Substitution lookup 18 subtable" z.ext.down
EndChar

StartChar: zcaron
Encoding: 382 382 37
Width: 320
Flags: HW
AnchorPoint: "Diacritic_right" 280 140 basechar 0
AnchorPoint: "Diacritic_left" 40 140 basechar 0
AnchorPoint: "Diacritic_up" 204 360 basechar 0
AnchorPoint: "Diacritic_down" 120 -60 basechar 0
AnchorPoint: "Extension_up" 128 280 basechar 0
AnchorPoint: "Extension_down" 192 0 basechar 0
LayerCount: 2
Fore
SplineSet
118.197117855 281.972524414 m 0
 118.570873346 283.841301868 119.481478124 285.623613748 120.928932188 287.071067812 c 0
 124.83156058 290.973696203 131.16843942 290.973696203 135.071067812 287.071067812 c 0
 137.526242139 284.615893485 138.436846917 281.197299446 137.802882145 278.027475586 c 0
 134.32812821 260.653705915 133.058317412 244.440506407 133.965421801 229.90468349 c 0
 134.691262086 218.27351294 136.806270834 207.729584765 140.237526417 198.456630212 c 0
 144.098710976 188.021794313 149.61140609 179.188989357 156.762831574 172.037563873 c 0
 164.370461062 164.429934385 174.004844997 158.528932899 186.084936111 154.727306091 c 0
 195.750923044 151.685402292 207.013814166 149.998039105 220 149.998039105 c 0
 225.518067753 149.998039105 229.998039105 145.518067753 229.998039105 140 c 0
 229.998039105 134.481932247 225.518067753 130.001960895 220 130.001960895 c 0
 190.680301703 130.001960895 166.28699311 125.114297731 147.134163554 117.4484047 c 0
 131.809235591 111.314623886 119.862290067 103.397997177 111.395286716 94.9309938257 c 0
 102.18070573 85.7164128398 97.0727592613 75.8643974725 95.5699321259 66.7508184108 c 0
 94.5256899179 60.4182311841 95.1375995395 54.3430762089 97.4548896354 48.4844914479 c 0
 99.3116704486 43.7901686283 102.310220911 39.178853488 106.662904547 34.8261698527 c 0
 112.682047276 28.8070271237 121.434400519 23.1907061786 133.255343402 18.8459768247 c 0
 148.024017105 13.417823522 167.528032795 9.9980391054 192 9.9980391054 c 0
 194.559876808 9.9980391054 197.119753616 9.02238200756 199.071067812 7.07106781187 c 0
 202.973696203 3.16843942048 202.973696203 -3.16843942048 199.071067812 -7.07106781187 c 0
 197.119753616 -9.02238200756 194.559876808 -9.9980391054 192 -9.9980391054 c 0
 165.678316412 -9.9980391054 143.862100305 -6.36314980067 126.336045416 0.0784653801456 c 0
 112.321205427 5.22955081305 101.014097849 12.1907053026 92.5207689228 20.684034229 c 0
 86.3790093921 26.8257937596 81.7837534616 33.7207718223 78.8606444323 41.1109911324 c 0
 75.2030722252 50.3580840333 74.2368641544 60.2921206678 75.8418734306 70.0253618295 c 0
 78.1539684324 84.0465756471 85.6268168262 97.4467951837 97.253151092 109.073129449 c 0
 107.973452275 119.793430633 122.215144366 129.020257855 139.685521346 136.012751614 c 0
 146.662924741 138.805447487 154.159012047 141.241095427 162.158892498 143.262813707 c 1
 154.849121783 147.292202333 148.320594378 152.195529822 142.62069595 157.895428249 c 0
 133.217134564 167.298989636 126.221091714 178.697429209 121.485069949 191.496509175 c 0
 117.274364355 202.875924279 114.838004829 215.356846815 114.0084535 228.649926828 c 0
 112.971318371 245.269417114 114.438481588 263.179343076 118.197117855 281.972524414 c 0
EndSplineSet
Substitution2: "Single Substitution lookup 19 subtable" zcaron.ext.up
Substitution2: "Single Substitution lookup 18 subtable" zcaron.ext.down
EndChar

StartChar: zdotaccent
Encoding: 380 380 38
Width: 320
Flags: HW
AnchorPoint: "Diacritic_right" 260 140 basechar 0
AnchorPoint: "Diacritic_left" 20 140 basechar 0
AnchorPoint: "Diacritic_up" 204 360 basechar 0
AnchorPoint: "Diacritic_down" 120 -60 basechar 0
AnchorPoint: "Extension_up" 148 280 basechar 0
AnchorPoint: "Extension_down" 232 0 basechar 0
LayerCount: 2
Fore
SplineSet
138.193870409 281.956216878 m 2
 138.565581117 283.830931753 139.477268377 285.619404 140.928932188 287.071067812 c 0
 144.83156058 290.973696203 151.16843942 290.973696203 155.071067812 287.071067812 c 0
 157.522032392 284.620103232 158.433719652 281.209019949 157.806129591 278.043783122 c 2
 111.81717947 46.1003650287 l 2
 109.577426412 34.4536491263 103.236487576 24.091765866 94.703256767 15.5585350569 c 0
 92.756479264 13.611757554 90.6922552144 11.756003011 88.5233699078 9.9980391054 c 1
 232 9.9980391054 l 2
 234.559876808 9.9980391054 237.119753616 9.02238200756 239.071067812 7.07106781187 c 0
 242.973696203 3.16843942048 242.973696203 -3.16843942048 239.071067812 -7.07106781187 c 0
 237.119753616 -9.02238200756 234.559876808 -9.9980391054 232 -9.9980391054 c 2
 32 -9.9980391054 l 2
 26.4819322471 -9.9980391054 22.0019608946 -5.51806775286 22.0019608946 0 c 0
 22.0019608946 5.51806775286 26.4819322471 9.9980391054 32 9.9980391054 c 0
 40.1757160678 9.9980391054 48.4095460863 11.5706397606 56.062136397 14.3837520897 c 0
 65.6304645425 17.9010946863 74.2225447071 23.3620942445 80.5611211432 29.7006706807 c 0
 86.86002692 35.9995764574 90.8728931887 43.088012798 92.1828205297 49.8996349713 c 2
 138.193870409 281.956216878 l 2
EndSplineSet
Substitution2: "Single Substitution lookup 19 subtable" zdotaccent.ext.up
Substitution2: "Single Substitution lookup 18 subtable" zdotaccent.ext.down
EndChar

StartChar: tcedilla
Encoding: 355 355 39
Width: 320
Flags: HW
AnchorPoint: "Diacritic_right" 260 140 basechar 0
AnchorPoint: "Diacritic_left" 20 140 basechar 0
AnchorPoint: "Diacritic_up" 204 360 basechar 0
AnchorPoint: "Diacritic_down" 120 -60 basechar 0
AnchorPoint: "Extension_up" 288 280 basechar 0
AnchorPoint: "Extension_down" 172 0 basechar 0
LayerCount: 2
Fore
SplineSet
288 289.998039105 m 0
 290.559876808 289.998039105 293.119753616 289.022382008 295.071067812 287.071067812 c 0
 298.973696203 283.16843942 298.973696203 276.83156058 295.071067812 272.928932188 c 0
 293.119753616 270.977617992 290.559876808 270.001960895 288 270.001960895 c 0
 243.534089093 270.001960895 208.46506242 264.968118997 180.810967568 256.914701279 c 0
 146.244185506 246.848172738 123.230587488 232.114528007 107.469415072 216.353355591 c 0
 98.3283210291 207.212261548 91.5496330598 197.635336351 86.4056785015 188.201095795 c 0
 78.9087119047 174.451326914 74.9109107063 161.043964002 72.2844957293 149.736312629 c 1
 115.270358707 147.858126666 143.848675004 135.98715388 161.962042088 117.873786796 c 0
 178.603790397 101.232038487 185.272011501 80.3973576503 187.168214598 60.7160139054 c 0
 188.224150666 49.7560904964 187.836570455 39.0601148898 186.84699318 29.2605915108 c 0
 185.610896719 17.0198535004 183.422063874 6.12338423178 181.802882145 -1.97252441356 c 0
 181.429126654 -3.84130186778 180.518521876 -5.62361374754 179.071067812 -7.07106781187 c 0
 175.16843942 -10.9736962033 168.83156058 -10.9736962033 164.928932188 -7.07106781187 c 0
 162.473757861 -4.6158934848 161.563153083 -1.19729944591 162.197117855 1.97252441356 c 0
 163.810528972 10.0395799952 165.833944269 20.20435144 166.952802325 31.2841083752 c 0
 167.847188664 40.1409809527 168.154904145 49.5473240112 167.264950136 58.7844625819 c 0
 165.658551096 75.4578304003 160.266728171 91.284829466 147.819906464 103.731651172 c 0
 133.072172717 118.47938492 106.810815412 130.001960895 60 130.001960895 c 1
 60 130.001960895 59.9896333131 129.993945133 59.7774010894 129.993945133 c 1
 59.8546765198 129.993945133 59.9317966334 129.99127534 60.0087505682 129.99127534 c 1
 59.7774010894 129.993945133 l 2
 59.5242599982 129.999785358 59.2694521935 130.015239207 59.0133594935 130.040619915 c 0
 53.5216339505 130.584891127 49.5053211792 135.489318869 50.050076252 140.985926591 c 0
 50.0832342854 141.320492915 50.1325311836 141.649591055 50.1971178554 141.972524414 c 0
 52.8292209942 155.133040108 56.9485904052 175.96270423 68.8421765602 197.776068168 c 0
 74.7947309371 208.693316615 82.7071546743 219.875366441 93.3272794478 230.495491214 c 0
 111.671793875 248.840005642 137.866189206 265.240035581 175.195128344 276.110958728 c 0
 205.057610452 284.807502361 242.025306565 289.998039105 288 289.998039105 c 0
EndSplineSet
Substitution2: "Single Substitution lookup 19 subtable" tcedilla.ext.up
Substitution2: "Single Substitution lookup 18 subtable" tcedilla.ext.down
EndChar

StartChar: scaron
Encoding: 353 353 40
Width: 320
Flags: HW
AnchorPoint: "Diacritic_right" 260 140 basechar 0
AnchorPoint: "Diacritic_left" 20 140 basechar 0
AnchorPoint: "Diacritic_up" 204 360 basechar 0
AnchorPoint: "Diacritic_down" 120 -60 basechar 0
AnchorPoint: "Extension_up" 208 280 basechar 0
AnchorPoint: "Extension_down" 232 0 basechar 0
LayerCount: 2
Fore
SplineSet
232 9.9980391054 m 0
 234.559876808 9.9980391054 237.119753616 9.02238200756 239.071067812 7.07106781187 c 0
 242.973696203 3.16843942048 242.973696203 -3.16843942048 239.071067812 -7.07106781187 c 0
 237.119753616 -9.02238200756 234.559876808 -9.9980391054 232 -9.9980391054 c 0
 197.922497567 -9.9980391054 169.358365017 -9.09826140973 145.474998198 -7.27559831764 c 0
 126.366365662 -5.81731986272 110.252344342 -3.77156198646 96.6590048039 -1.08061586754 c 0
 83.0674713044 1.60997272675 71.9733002989 4.93367265467 62.8965758427 9.12969116807 c 0
 55.6408059072 12.4839127405 49.6292846101 16.4196898491 44.8474627453 21.2015117139 c 0
 42.1182344996 23.9307399595 39.8334340037 26.9077420254 38.0344009416 30.0961329328 c 0
 35.7844962617 34.0835947392 34.319658742 38.3763771733 33.5779494783 42.7658838355 c 0
 32.5084100585 49.0955208486 32.9094986375 55.5344283244 34.1971178554 61.9725244136 c 0
 36.0905764672 71.4398174727 39.2851276088 79.8442008807 43.5195522509 87.1783350647 c 0
 46.9065340353 93.0446760638 50.9492005955 98.2160527725 55.4634317022 102.730283879 c 0
 63.993229975 111.260082152 74.0547717748 117.327125506 84.5245649554 121.66134275 c 0
 97.6190963999 127.08213216 111.411360973 129.837383304 124.223667557 131.164458374 c 0
 137.040933724 132.492047148 148.914825477 132.379086655 158.21053208 131.856028192 c 0
 161.928576776 131.646818196 165.234624766 131.371299276 168.020957637 131.091723321 c 1
 198.197117855 281.972524414 l 2
 198.570873346 283.841301868 199.481478124 285.623613748 200.928932188 287.071067812 c 0
 204.83156058 290.973696203 211.16843942 290.973696203 215.071067812 287.071067812 c 0
 217.526242139 284.615893485 218.436846917 281.197299446 217.802882145 278.027475586 c 2
 185.800027994 118.025522164 l 2
 184.740024014 112.725502264 179.629323968 109.227665013 174.290403904 110.14816847 c 2
 174.290403904 110.14816847 167.904982217 111.282583861 157.078701506 111.891765927 c 0
 148.59215995 112.369293626 137.727096997 112.459268918 126.298610255 111.275527353 c 0
 114.865163929 110.091272084 102.904877389 107.620926765 92.1899678619 103.185237841 c 0
 83.612208265 99.6342724183 75.8697877777 94.8523687072 69.605567326 88.5881482555 c 0
 66.2876708727 85.2702518023 63.3418272728 81.5037888248 60.8460110232 77.1809698304 c 0
 57.7269381229 71.7786540226 55.295666919 65.4913994585 53.8028821446 58.0274755864 c 0
 52.8607920464 53.3170250955 52.7411600586 49.384199059 53.2929056547 46.1189156275 c 0
 53.6770887631 43.8452830922 54.3711324189 41.8495468283 55.4581141793 39.9231104361 c 0
 56.3285902695 38.3803827846 57.4672222953 36.8660234114 58.989598369 35.3436473376 c 0
 61.6540525933 32.6791931133 65.6291542916 29.9041288083 71.2992378296 27.2829436426 c 0
 78.3798302151 24.0097037333 88.0355236732 21.0132619189 100.565471735 18.5328254513 c 0
 113.093613758 16.0527465084 128.472691098 14.0765960032 147.007843795 12.6620827571 c 0
 170.179208517 10.8937562229 198.280255279 9.9980391054 232 9.9980391054 c 0
EndSplineSet
Substitution2: "Single Substitution lookup 19 subtable" scaron.ext.up
Substitution2: "Single Substitution lookup 18 subtable" scaron.ext.down
EndChar

StartChar: rcaron
Encoding: 345 345 41
Width: 320
Flags: HW
AnchorPoint: "Diacritic_right" 260 140 basechar 0
AnchorPoint: "Diacritic_left" 20 140 basechar 0
AnchorPoint: "Diacritic_up" 204 360 basechar 0
AnchorPoint: "Diacritic_down" 120 -60 basechar 0
AnchorPoint: "Extension_up" 88 280 basechar 0
AnchorPoint: "Extension_down" 232 0 basechar 0
LayerCount: 2
Fore
SplineSet
201.484647871 148.727493256 m 1
 210.396369392 157.282745916 l 1
 207.7886616 157.128968028 205.238412824 156.951429834 202.744954268 156.75100459 c 0
 202.350941641 154.107845338 201.92994582 151.433316278 201.484647871 148.727493256 c 1
88 270.001960895 m 0
 85.4401231919 270.001960895 82.8802463838 270.977617992 80.9289321881 272.928932188 c 0
 77.0263037967 276.83156058 77.0263037967 283.16843942 80.9289321881 287.071067812 c 0
 82.8802463838 289.022382008 85.4401231919 289.998039105 88 289.998039105 c 0
 113.922063775 289.998039105 134.783979995 287.315839437 151.642783364 281.715728207 c 0
 165.123472104 277.237749863 176.077193334 270.82762473 184.531979569 262.372838495 c 0
 192.245815217 254.659002847 197.626389156 245.461659235 201.060359791 235.288234659 c 0
 203.807422658 227.149831668 205.332987762 218.408604485 205.971876396 209.151691838 c 0
 206.667372938 199.074582317 206.318572702 188.362002697 205.24937653 176.998678752 c 1
 214.817275601 177.655784197 225.055294641 177.994776467 236.00131207 177.994776467 c 0
 237.308173008 177.994776467 238.636184909 177.737012901 239.913418222 177.192545901 c 0
 244.989977588 175.028478446 247.354269866 169.14934633 245.189855231 164.071972537 c 0
 244.645300884 162.794534319 243.865630109 161.688773605 242.922772459 160.783630261 c 2
 192.917681733 112.786427051 l 2
 191.793346018 111.707064765 190.399764259 110.875907584 188.801260619 110.410275019 c 0
 183.504079374 108.867244379 177.949628117 111.918799961 176.405283837 117.220490898 c 0
 175.939254861 118.820355404 175.891307588 120.443473079 176.197117855 121.972524414 c 0
 178.47722585 133.373064385 180.509378361 144.201520752 182.143154956 154.402109991 c 1
 170.90843452 152.700142998 161.150921744 150.450840047 152.777058625 147.776360778 c 0
 137.011595482 142.741121517 126.26321982 136.234421548 119.456858233 129.428059961 c 0
 116.003228143 125.974429871 113.499517628 122.406974598 111.742781032 118.75958108 c 0
 109.548905294 114.204585094 108.479134768 109.47534986 108.376535622 104.434031559 c 0
 108.228969762 97.1832258812 110.159674596 89.165623089 114.150647997 80.8424451686 c 0
 118.632605769 71.4953189885 125.665030354 61.9026399521 134.5741656 52.9935047064 c 0
 148.040535269 39.5271350366 165.78084178 27.6251534664 184.934801847 19.8304542132 c 0
 200.261530085 13.5932459946 216.426503357 9.9980391054 232 9.9980391054 c 0
 234.559876808 9.9980391054 237.119753616 9.02238200756 239.071067812 7.07106781187 c 0
 242.973696203 3.16843942048 242.973696203 -3.16843942048 239.071067812 -7.07106781187 c 0
 237.119753616 -9.02238200756 234.559876808 -9.9980391054 232 -9.9980391054 c 0
 213.344401624 -9.9980391054 194.719869668 -5.74750305407 177.379925662 1.30898281736 c 0
 155.700545424 10.1314011767 135.924438169 23.35896089 120.432029976 38.8513690827 c 0
 110.171528547 49.111870512 101.784228743 60.3667800351 96.1165404707 72.1867480323 c 0
 91.085606278 82.6787649363 88.1584160376 93.7288058517 88.3846288349 104.844012534 c 0
 88.5415982009 112.556869482 90.254386991 120.243445615 93.7236189531 127.446377573 c 0
 96.4973685168 133.205326411 100.367695127 138.623168103 105.314722609 143.570195585 c 0
 115.062913535 153.318386511 128.739199379 161.095870294 146.669475458 166.822516524 c 0
 157.713603405 170.349836093 170.412705591 173.111758436 184.950412577 175.00706391 c 1
 186.252239865 187.127420779 186.690731425 198.098532761 186.023601973 207.764629062 c 0
 185.476351513 215.69378829 184.190573251 222.724601323 182.116173158 228.870184711 c 0
 179.523315093 236.551743108 175.736248467 242.88429835 170.389843946 248.230702871 c 0
 164.529884979 254.090661838 156.492536383 259.028389113 145.315927733 262.74100443 c 0
 131.353109365 267.379135277 112.53992328 270.001960895 88 270.001960895 c 0
EndSplineSet
Substitution2: "Single Substitution lookup 19 subtable" rcaron.ext.up
Substitution2: "Single Substitution lookup 18 subtable" rcaron.ext.down
EndChar

StartChar: ncaron
Encoding: 328 328 42
Width: 320
Flags: HW
AnchorPoint: "Diacritic_right" 260 140 basechar 0
AnchorPoint: "Diacritic_left" 20 140 basechar 0
AnchorPoint: "Diacritic_up" 204 360 basechar 0
AnchorPoint: "Diacritic_down" 120 -60 basechar 0
AnchorPoint: "Extension_up" 148 280 basechar 0
AnchorPoint: "Extension_down" 212 0 basechar 0
LayerCount: 2
Fore
SplineSet
99.8986589911 131.135705642 m 1
 106.403535079 123.004610532 l 1
 108.016797083 131.07092055 l 1
 105.386795891 131.150101719 102.681421147 131.172749543 99.8986589911 131.135705642 c 1
131.961957639 148.822853057 m 1
 135.17531209 148.280290115 138.289440072 147.646761916 141.307252866 146.926294162 c 0
 153.376762547 144.044838908 163.893826395 139.765482876 172.965075333 134.401277738 c 0
 180.221157459 130.110455901 186.54374177 125.13155998 192.006918651 119.668383099 c 0
 201.14144399 110.53385776 207.773213076 100.157380998 212.548463108 89.5134085069 c 0
 218.519535734 76.2039624347 221.616603208 62.4677903887 223.121517204 49.864269825 c 0
 224.62708899 37.2552403325 224.537594945 25.7444146301 223.984672313 16.7876617822 c 0
 223.293568827 5.59252750303 221.872396498 -1.62274935303 221.805299265 -1.96039994535 c 0
 221.433062367 -3.83359208028 220.521651883 -5.62048374068 219.071067812 -7.07106781187 c 0
 215.16843942 -10.9736962033 208.83156058 -10.9736962033 204.928932188 -7.07106781187 c 0
 202.476887868 -4.61902349166 201.565477384 -1.20601434691 202.194700735 1.96039994535 c 2
 202.194700735 1.96039994535 202.518558152 3.51580616015 202.987076749 7.09043531212 c 0
 203.346997257 9.83649992593 203.751799681 13.5731378661 204.02686852 18.0289576661 c 0
 204.522030113 26.0500437076 204.590168922 36.3989626706 203.26742609 47.476815972 c 0
 201.944025468 58.5601782023 199.226830852 70.3380270789 194.302197818 81.3149724103 c 0
 190.360883321 90.1001130423 185.023963992 98.3670665103 177.864783028 105.526247475 c 0
 173.580054066 109.810976437 168.606733121 113.738979141 162.789173473 117.179143067 c 0
 155.518370194 121.478670131 146.915668516 125.025682453 136.638994081 127.479119115 c 0
 133.894236736 128.134398052 131.028794157 128.711271935 128.037812797 129.202128847 c 1
 121.802882145 98.0274755864 l 2
 121.580313803 96.9146338779 121.162864667 95.8215504523 120.538675783 94.7969161517 c 0
 117.669280306 90.0866736175 111.510598777 88.5951708262 106.794226563 91.4683003951 c 0
 105.768258853 92.0933015675 104.894515299 92.8736853525 104.184854855 93.760760908 c 2
 72.1842792821 133.760621516 l 2
 71.5968626717 134.494892279 71.1042372277 135.324967276 70.7321576888 136.239986768 c 0
 68.6545553064 141.349234864 71.1170821219 147.184540215 76.2278266254 149.26275109 c 0
 77.1431141097 149.634939604 78.0816639363 149.861545461 79.0177213664 149.953428399 c 0
 90.878152841 151.117642531 101.846988957 151.413572665 111.988681439 150.93034233 c 1
 138.197117855 281.972524414 l 2
 138.570873346 283.841301868 139.481478124 285.623613748 140.928932188 287.071067812 c 0
 144.83156058 290.973696203 151.16843942 290.973696203 155.071067812 287.071067812 c 0
 157.526242139 284.615893485 158.436846917 281.197299446 157.802882145 278.027475586 c 2
 131.961957639 148.822853057 l 1
EndSplineSet
Substitution2: "Single Substitution lookup 19 subtable" ncaron.ext.up
Substitution2: "Single Substitution lookup 18 subtable" ncaron.ext.down
EndChar

StartChar: lcedilla
Encoding: 316 316 43
Width: 320
Flags: HW
HStem: -244 84G<295 405> -124 40<275 306> -44 80G<235 275> -44 80G<235 275>
VStem: 235 40<-84 -4>
AnchorPoint: "Diacritic_left" 20 140 basechar 0
AnchorPoint: "Diacritic_right" 260 140 basechar 0
AnchorPoint: "Diacritic_up" 204 360 basechar 0
AnchorPoint: "Diacritic_down" 120 -60 basechar 0
AnchorPoint: "Extension_up" 88 280 basechar 0
AnchorPoint: "Extension_down" 232 0 basechar 0
LayerCount: 2
Fore
SplineSet
155.804052906 129.235904486 m 1
 149.011038683 137.727172265 l 1
 148.36481818 134.808820629 147.753772789 131.955144015 147.177365656 129.165046579 c 1
 149.958426507 129.1474748 152.835419854 129.174309846 155.804052906 129.235904486 c 1
78.1971178554 281.972524414 m 0
 78.5708733462 283.841301868 79.4814781238 285.623613748 80.9289321881 287.071067812 c 0
 84.8315605795 290.973696203 91.1684394205 290.973696203 95.0710678119 287.071067812 c 0
 97.5262421389 284.615893485 98.4368469165 281.197299446 97.8028821446 278.027475586 c 0
 92.5793154698 251.909642212 89.2974692185 230.114223204 87.7959427009 212.088540827 c 0
 86.5947817873 197.668718827 86.5388180681 185.671180251 87.464518364 175.851576313 c 0
 89.1390400869 158.088656526 93.9120297897 147.884959437 100.144114656 141.652874571 c 0
 105.598349139 136.198640088 113.140469135 132.782538449 123.789801409 130.914434364 c 0
 124.838283141 130.730509874 125.914268425 130.562686018 127.017170982 130.410215515 c 0
 129.01976394 140.348906835 131.441995747 151.00259377 134.300649931 162.437210506 c 0
 134.557453784 163.464425915 134.983287867 164.467568577 135.586780245 165.407157646 c 0
 138.567322664 170.047622348 144.759862682 171.391897666 149.406792112 168.40720299 c 0
 150.347690142 167.802869875 151.153542365 167.067101424 151.815720718 166.239378484 c 2
 183.816530673 126.24117407 l 2
 184.452335544 125.446417982 184.976307105 124.540397039 185.355862777 123.537789032 c 0
 187.308606698 118.379555766 184.704061201 112.60555098 179.543247989 110.651830372 c 0
 178.540138516 110.272084862 177.513813573 110.064440931 176.49685574 110.014220791 c 0
 164.779078328 109.435565116 153.799649213 109.010611624 143.550947816 109.214663247 c 0
 143.521622358 109.214663247 143.492302762 109.2164302 143.462989028 109.2164302 c 0
 142.545974163 103.607824093 141.799756903 98.3112883039 141.218096036 93.3140831107 c 0
 139.584518115 79.2795751517 139.255249846 67.6186287029 140.001798003 58.0791327561 c 0
 140.599265417 50.4446112283 141.880881801 44.1868429986 143.654874228 39.0879165952 c 0
 145.872562259 32.7136909299 148.822731438 28.1243671651 152.379083932 24.5680146712 c 0
 158.217571313 18.7295272906 166.514285802 15.0073510478 177.954770743 12.8192521021 c 0
 184.275023124 11.6104451638 191.459159987 10.8966670763 199.354487897 10.4997665889 c 0
 209.224293028 10.0036085431 220.193488346 9.9980391054 232 9.9980391054 c 0
 234.559876808 9.9980391054 237.119753616 9.02238200756 239.071067812 7.07106781187 c 0
 242.973696203 3.16843942048 242.973696203 -3.16843942048 239.071067812 -7.07106781187 c 0
 237.119753616 -9.02238200756 234.559876808 -9.9980391054 232 -9.9980391054 c 0
 220.191450793 -9.9980391054 208.939763 -10.0036085431 198.34296456 -9.47090432697 c 0
 189.865009613 -9.04471500479 181.798602524 -8.27693143513 174.175421978 -6.81892739041 c 0
 160.517727648 -4.20676656679 147.951302581 0.711524775256 138.236948309 10.4258790474 c 0
 132.365224766 16.2976025902 127.838714479 23.676472817 124.770645656 32.4949192163 c 0
 122.3160326 39.5501304644 120.771233972 47.5101658529 120.067114179 56.5075062901 c 0
 119.186678326 67.7578377994 119.612969493 80.6586849736 121.357020494 95.6422969223 c 0
 121.916338763 100.447550839 122.611812216 105.468458736 123.446796928 110.71820498 c 1
 122.393221135 110.87189373 121.348605189 111.03912466 120.312904632 111.220807078 c 0
 107.227196947 113.51629973 95.2788409314 118.233877048 86.0019790318 127.510738948 c 0
 75.3439883632 138.168729616 69.4835745426 153.528061301 67.55732832 173.961213451 c 0
 66.4826019796 185.361649478 66.5967781603 198.483238264 67.8693764207 213.760658787 c 0
 69.4600488706 232.856529564 72.8698067026 255.33596865 78.1971178554 281.972524414 c 0
EndSplineSet
Substitution2: "Single Substitution lookup 19 subtable" lcedilla.ext.up
Substitution2: "Single Substitution lookup 18 subtable" lcedilla.ext.down
EndChar

StartChar: ccedilla
Encoding: 231 231 44
Width: 320
Flags: HW
AnchorPoint: "Diacritic_left" 20 140 basechar 0
AnchorPoint: "Diacritic_right" 270 140 basechar 0
AnchorPoint: "Diacritic_up" 204 360 basechar 0
AnchorPoint: "Diacritic_down" 120 -60 basechar 0
AnchorPoint: "Extension_up" 288 280 basechar 0
AnchorPoint: "Extension_down" 152 0 basechar 0
LayerCount: 2
Fore
SplineSet
288 289.998039105 m 2
 290.559876808 289.998039105 293.119753616 289.022382008 295.071067812 287.071067812 c 0
 298.973696203 283.16843942 298.973696203 276.83156058 295.071067812 272.928932188 c 0
 293.119753616 270.977617992 290.559876808 270.001960895 288 270.001960895 c 2
 126.338487525 270.001960895 l 1
 122.897806354 249.076000747 123.136202864 232.029561398 125.687080344 218.166096832 c 0
 127.680862212 207.330325811 131.079663932 198.400862888 135.34377905 190.926860374 c 0
 138.755666315 184.946615168 142.732756343 179.886887932 147.052749066 175.566895209 c 0
 158.158423248 164.461221026 171.844936221 158.047529837 183.793398652 154.460941629 c 0
 190.41419789 152.473566214 196.452115657 151.360740966 201.063149025 150.74822325 c 0
 203.624611565 150.407965208 205.744994909 150.221340685 207.27897632 150.119630113 c 0
 208.982824632 150.00665652 209.963139789 149.998015809 210.021795033 149.998015809 c 0
 215.529859452 149.986237848 219.998039117 145.510800943 219.998039117 140 c 0
 219.998039117 134.481932247 215.518067765 130.001960894 210 130.001960895 c 2
 68.338487525 130.001960895 l 1
 64.8978063535 109.076000747 65.1362028641 92.029561398 67.6870803442 78.166096832 c 0
 69.680862212 67.3303258114 73.0796639317 58.4008628878 77.3437790499 50.9268603743 c 0
 80.755666315 44.946615168 84.7327563427 39.8868879315 89.0527490657 35.5668952086 c 0
 100.158423248 24.4612210259 113.844936221 18.0475298369 125.793398652 14.4609416286 c 0
 132.41419789 12.4735662141 138.452115657 11.360740966 143.063149025 10.7482232498 c 0
 145.624611565 10.4079652079 147.744994909 10.2213406853 149.27897632 10.1196301133 c 0
 150.983436665 10.0066159428 151.963843967 9.99839946529 152.021857884 9.99801539622 c 0
 154.574442536 9.99247782447 157.125306995 9.01682862899 159.071067812 7.07106781187 c 0
 162.973696203 3.16843942048 162.973696203 -3.16843942048 159.071067812 -7.07106781187 c 0
 157.119753615 -9.02238200904 154.559876804 -9.99803910689 151.999999994 -9.9980391054 c 0
 151.644304662 -9.9980391052 147.262027509 -9.98255251398 140.411909083 -9.07260054447 c 0
 134.93167227 -8.34462009641 127.868250379 -7.04454864884 120.019942231 -4.6887100111 c 0
 105.924011368 -0.457512925367 89.1345636119 7.20080941486 74.910613442 21.4247595848 c 0
 69.3801966944 26.9551763324 64.2851812099 33.4483984748 59.9665764214 41.0179087129 c 0
 54.5675764727 50.481100505 50.3995341546 61.6088413642 48.0229568824 74.5250221918 c 0
 44.5968607967 93.1451096139 44.8829691034 115.353856901 50.2085792742 141.981907755 c 0
 51.1382281975 146.630152371 55.2519826425 149.998039105 60 149.998039105 c 2
 146.718654048 149.998039105 l 1
 141.973917397 153.238563026 137.319048576 157.016324451 132.910613442 161.424759585 c 0
 127.380196694 166.955176332 122.28518121 173.448398475 117.966576421 181.017908713 c 0
 112.567576473 190.481100505 108.399534155 201.608841364 106.022956882 214.525022192 c 0
 102.596860797 233.145109614 102.882969103 255.353856901 108.208579274 281.981907755 c 0
 109.138228197 286.630152371 113.251982642 289.998039105 118 289.998039105 c 2
 288 289.998039105 l 2
EndSplineSet
Substitution2: "Single Substitution lookup 19 subtable" ccedilla.ext.up
Substitution2: "Single Substitution lookup 18 subtable" ccedilla.ext.down
EndChar

StartChar: ccaron
Encoding: 269 269 45
Width: 320
Flags: HW
AnchorPoint: "Diacritic_right" 230 140 basechar 0
AnchorPoint: "Diacritic_left" 20 140 basechar 0
AnchorPoint: "Diacritic_up" 204 360 basechar 0
AnchorPoint: "Diacritic_down" 120 -60 basechar 0
AnchorPoint: "Extension_up" 270 280 basechar 0
AnchorPoint: "Extension_down" 214 0 basechar 0
LayerCount: 2
Fore
SplineSet
270 289.998039105 m 0
 272.559876808 289.998039105 275.119753616 289.022382008 277.071067812 287.071067812 c 0
 280.973696203 283.16843942 280.973696203 276.83156058 277.071067812 272.928932188 c 0
 275.119753616 270.977617992 272.559876808 270.001960895 270 270.001960895 c 0
 235.909047289 270.001960895 206.173358057 263.023789971 181.031231517 251.42655911 c 0
 160.916545067 242.148319971 143.733072107 229.8960672 129.693393898 215.856388991 c 0
 110.339972912 196.502968005 96.8919065125 173.656637664 89.9290481975 150.515149437 c 0
 84.3578728773 131.999005312 82.9401732475 113.345920285 85.7770713329 96.0729348347 c 0
 88.9681658135 76.6433582786 97.5038235613 58.8992047395 111.787697516 44.6153307845 c 0
 123.187312446 33.2157158546 138.445310438 23.8316323318 158.109349691 17.7058317103 c 0
 173.840132981 12.8053308105 192.406926099 9.9980391054 214 9.9980391054 c 0
 216.559876808 9.9980391054 219.119753616 9.02238200756 221.071067812 7.07106781187 c 0
 224.973696203 3.16843942048 224.973696203 -3.16843942048 221.071067812 -7.07106781187 c 0
 219.119753616 -9.02238200756 216.559876808 -9.9980391054 214 -9.9980391054 c 0
 190.666726279 -9.9980391054 170.062047521 -6.96705106911 152.137786875 -1.38323150955 c 0
 129.733021209 5.59636844305 111.541632937 16.5771241161 97.6455618925 30.4731951608 c 0
 80.2176969362 47.9010601171 69.8561237472 69.6180565708 66.0469148083 92.8111388022 c 0
 62.6613209653 113.424961163 64.4211709021 135.156666205 70.7831405611 156.301063994 c 0
 78.7367134699 182.735253159 93.8856961266 208.332962467 115.551258274 229.998524615 c 0
 131.275118352 245.722384692 150.395346461 259.32436929 172.643667205 269.586783313 c 0
 200.455299659 282.415368902 233.141035239 289.998039105 270 289.998039105 c 0
EndSplineSet
Substitution2: "Single Substitution lookup 19 subtable" ccaron.ext.up
Substitution2: "Single Substitution lookup 18 subtable" ccaron.ext.down
EndChar

StartChar: Z
Encoding: 90 90 46
Width: 320
Flags: HW
AnchorPoint: "Diacritic_down" 120 -60 basechar 0
AnchorPoint: "Diacritic_up" 204 360 basechar 0
AnchorPoint: "Extension_down" 212 0 basechar 0
AnchorPoint: "Extension_up" 108 280 basechar 0
AnchorPoint: "Diacritic_right" 320 140 basechar 0
AnchorPoint: "Diacritic_left" 100 140 basechar 0
LayerCount: 2
Fore
SplineSet
47.9860426989 9.9980391054 m 1
 212 9.9980391054 l 2
 214.559876808 9.9980391054 217.119753616 9.02238200756 219.071067812 7.07106781187 c 0
 222.973696203 3.16843942048 222.973696203 -3.16843942048 219.071067812 -7.07106781187 c 0
 217.119753616 -9.02238200756 214.559876808 -9.9980391054 212 -9.9980391054 c 2
 -8.00056444954 -9.99325745437 l 2
 -10.1708466663 -9.99325745437 -12.3567618867 -9.29074028032 -14.191321166 -7.84262222592 c 0
 -18.5240574896 -4.42255629175 -19.2668016987 1.86949179298 -15.8489178477 6.19946372817 c 0
 -14.4017237269 8.03285251514 -12.4391562189 9.22239256537 -10.3282042687 9.72500017257 c 0
 0.159333162289 12.2220328942 13.6671857089 16.9140090356 28.9973449369 23.4668354491 c 0
 48.1710685331 31.6625808787 70.2343596172 42.7532765666 93.4026591466 56.0369989182 c 0
 122.36622821 72.6434835361 153.069617062 92.6804334139 182.186653475 114.775979231 c 0
 205.479512025 132.451831126 227.758162445 151.447999603 247.321054653 171.010891811 c 0
 267.848719936 191.538557093 285.382499621 212.707939337 298.029652021 233.503211314 c 0
 305.576438569 245.912129453 311.360465081 258.158747485 315.097886365 270.001960895 c 1
 108 270.001960895 l 2
 105.440123192 270.001960895 102.880246384 270.977617992 100.928932188 272.928932188 c 0
 97.0263037967 276.83156058 97.0263037967 283.16843942 100.928932188 287.071067812 c 0
 102.880246384 289.022382008 105.440123192 289.998039105 108 289.998039105 c 2
 328 289.998039105 l 2
 328.329041862 289.998039105 328.661121917 289.981823112 328.995391074 289.94869453 c 0
 334.487116617 289.404423319 338.503429389 284.499995577 337.958674316 279.003387855 c 0
 337.925516283 278.668821531 337.871844101 278.345066168 337.807257429 278.022132809 c 0
 334.11772405 259.574465918 326.127217258 241.206474915 315.125446476 223.116646597 c 0
 301.368656258 200.496835823 282.832410585 178.237976495 261.463190277 156.868756187 c 0
 241.098474869 136.50404078 218.157543732 116.963384261 194.261751794 98.8299946505 c 0
 164.392975097 76.1639885839 133.033880637 55.7012357788 103.34834504 38.6808061079 c 0
 83.8873714766 27.5227075528 65.15118464 17.8453679564 47.9860426989 9.9980391054 c 1
EndSplineSet
LCarets2: 1 0
EndChar

StartChar: bar
Encoding: 124 124 47
Width: 320
Flags: HW
AnchorPoint: "Extension_down" 132 0 basechar 0
AnchorPoint: "Extension_up" 188 280 basechar 0
AnchorPoint: "Diacritic_down" 120 -60 basechar 0
AnchorPoint: "Diacritic_up" 204 360 basechar 0
AnchorPoint: "Diacritic_right" 260 140 basechar 0
AnchorPoint: "Diacritic_left" 60 140 basechar 0
LayerCount: 2
Fore
SplineSet
178.197117855 281.972524414 m 2
 178.570873346 283.841301868 179.481478124 285.623613748 180.928932188 287.071067812 c 0
 184.83156058 290.973696203 191.16843942 290.973696203 195.071067812 287.071067812 c 0
 197.526242139 284.615893485 198.436846917 281.197299446 197.802882145 278.027475586 c 2
 141.802882145 -1.97252441356 l 2
 141.429126654 -3.84130186778 140.518521876 -5.62361374754 139.071067812 -7.07106781187 c 0
 135.16843942 -10.9736962033 128.83156058 -10.9736962033 124.928932188 -7.07106781187 c 0
 122.473757861 -4.6158934848 121.563153083 -1.19729944591 122.197117855 1.97252441356 c 2
 178.197117855 281.972524414 l 2
EndSplineSet
Ligature2: "FlipCores subtable" bar quotesingle
LCarets2: 1 160
EndChar

StartChar: braceleft
Encoding: 123 123 48
Width: 320
Flags: HW
AnchorPoint: "Diacritic_left" 60 140 basechar 0
AnchorPoint: "Diacritic_right" 260 140 basechar 0
AnchorPoint: "Diacritic_up" 204 360 basechar 0
AnchorPoint: "Diacritic_down" 120 -60 basechar 0
AnchorPoint: "Extension_up" 208 280 basechar 0
AnchorPoint: "Extension_down" 112 0 basechar 0
LayerCount: 2
Fore
SplineSet
121.802882145 -1.97252441356 m 2
 121.429126654 -3.84130186778 120.518521876 -5.62361374754 119.071067812 -7.07106781187 c 0
 115.16843942 -10.9736962033 108.83156058 -10.9736962033 104.928932188 -7.07106781187 c 0
 102.473757861 -4.6158934848 101.563153083 -1.19729944591 102.197117855 1.97252441356 c 2
 122.197117855 101.972524414 l 2
 123.569458033 108.834225304 125.808292302 114.864008672 128.644850217 120.140200015 c 0
 132.192471187 126.739017179 136.632373924 132.107842881 141.225228484 136.700697441 c 0
 145.361309817 140.836778774 149.606221531 144.356328064 153.605384108 147.688963546 c 0
 157.606221531 151.022994731 161.361309817 154.170112107 164.632635892 157.441438182 c 0
 168.270234006 161.079036296 171.329188151 164.855158011 173.735944054 169.331888274 c 0
 175.662887638 172.916134872 177.199087663 176.982373452 178.197117855 181.972524414 c 2
 198.197117855 281.972524414 l 2
 198.570873346 283.841301868 199.481478124 285.623613748 200.928932188 287.071067812 c 0
 204.83156058 290.973696203 211.16843942 290.973696203 215.071067812 287.071067812 c 0
 217.526242139 284.615893485 218.436846917 281.197299446 217.802882145 278.027475586 c 2
 197.802882145 178.027475586 l 2
 196.430541967 171.165774696 194.191707698 165.135991328 191.355149783 159.859799985 c 0
 187.807528813 153.260982821 183.367626076 147.892157119 178.774771516 143.299302559 c 0
 174.638690183 139.163221226 170.393778469 135.643671936 166.394615892 132.311036454 c 0
 162.393778469 128.977005269 158.638690183 125.829887893 155.367364108 122.558561818 c 0
 151.729765994 118.920963704 148.670811849 115.144841989 146.264055946 110.668111726 c 0
 144.337112362 107.083865128 142.800912337 103.017626548 141.802882145 98.0274755864 c 2
 121.802882145 -1.97252441356 l 2
EndSplineSet
Ligature2: "FlipCores subtable" braceright quotesingle
LCarets2: 1 160
EndChar

StartChar: braceright
Encoding: 125 125 49
Width: 320
Flags: HW
AnchorPoint: "Diacritic_left" 60 140 basechar 0
AnchorPoint: "Diacritic_right" 260 140 basechar 0
AnchorPoint: "Diacritic_up" 204 360 basechar 0
AnchorPoint: "Diacritic_down" 120 -60 basechar 0
AnchorPoint: "Extension_up" 168 280 basechar 0
AnchorPoint: "Extension_down" 152 0 basechar 0
LayerCount: 2
Fore
SplineSet
158.197117855 281.972524414 m 2
 158.570873346 283.841301868 159.481478124 285.623613748 160.928932188 287.071067812 c 0
 164.83156058 290.973696203 171.16843942 290.973696203 175.071067812 287.071067812 c 0
 177.526242139 284.615893485 178.436846917 281.197299446 177.802882145 278.027475586 c 2
 151.226638975 145.146259736 l 1
 178.436968793 176.542794142 l 2
 179.555331395 177.833212529 181.018837308 178.853962655 182.749510928 179.445957689 c 0
 187.972535204 181.232547834 193.66368933 178.441909106 195.45057016 173.218035024 c 0
 196.042661513 171.487079817 196.132261494 169.70476932 195.797345702 168.030190363 c 2
 161.802882145 -1.97252441356 l 2
 161.429126654 -3.84130186778 160.518521876 -5.62361374754 159.071067812 -7.07106781187 c 0
 155.16843942 -10.9736962033 148.83156058 -10.9736962033 144.928932188 -7.07106781187 c 0
 142.473757861 -4.6158934848 141.563153083 -1.19729944591 142.197117855 1.97252441356 c 2
 168.774489153 134.859380903 l 1
 141.557494765 103.459920634 l 2
 140.439132163 102.169502247 138.97562625 101.148752122 137.24495263 100.556757088 c 0
 132.021928354 98.7701669425 126.330774229 101.560805669 124.543893399 106.784679751 c 0
 123.951802044 108.515634959 123.862202064 110.297945456 124.197117855 111.972524414 c 2
 158.197117855 281.972524414 l 2
EndSplineSet
Ligature2: "FlipCores subtable" braceleft quotesingle
LCarets2: 1 160
EndChar

StartChar: zero
Encoding: 48 48 51
Width: 320
Flags: HW
HStem: -222 84G<240 249> -12 80G<372 409>
VStem: 240 37<-185 -142> 372 37<-12 31>
AnchorPoint: "Extension_down" 52 0 basechar 0
AnchorPoint: "Extension_up" 268 280 basechar 0
AnchorPoint: "Diacritic_left" 148 230 basechar 0
LayerCount: 2
Fore
SplineSet
61.8028821446 -1.97252441356 m 0
 61.4291266538 -3.84130186778 60.5185218762 -5.62361374754 59.0710678119 -7.07106781187 c 0
 55.1684394205 -10.9736962033 48.8315605795 -10.9736962033 44.9289321881 -7.07106781187 c 0
 42.4737578611 -4.6158934848 41.5631530835 -1.19729944591 42.1971178554 1.97252441356 c 0
 47.3042357539 27.5081139062 55.4368397001 48.4685696501 65.7256905093 66.0542612477 c 0
 73.9546636892 80.119212445 83.5410834019 91.9940540817 93.8967375821 102.349708262 c 0
 104.369676673 112.822647353 115.590490364 121.721339344 127.005105396 129.865651447 c 0
 136.13800664 136.381963904 145.399288725 142.418493716 154.542189342 148.381254988 c 0
 163.685355741 154.344189596 172.710140672 160.233355664 181.392167841 166.427970091 c 0
 192.246213326 174.172316594 202.557906085 182.389206653 211.961126794 191.792427362 c 0
 221.260100329 201.091400897 229.708677937 211.570570968 237.005305786 224.041958631 c 0
 246.123456262 239.626690609 253.476921896 258.371544617 258.197117855 281.972524414 c 0
 258.570873346 283.841301868 259.481478124 285.623613748 260.928932188 287.071067812 c 0
 264.83156058 290.973696203 271.16843942 290.973696203 275.071067812 287.071067812 c 0
 277.526242139 284.615893485 278.436846917 281.197299446 277.802882145 278.027475586 c 0
 272.695764246 252.491886094 264.5631603 231.53143035 254.274309491 213.945738752 c 0
 246.045336311 199.880787555 236.458916598 188.005945918 226.103262418 177.650291738 c 0
 215.630323327 167.177352647 204.409509636 158.278660656 192.994894604 150.134348553 c 0
 183.86199336 143.618036096 174.600711275 137.581506284 165.457810658 131.618745012 c 0
 156.314644259 125.655810404 147.289859328 119.766644336 138.607832159 113.572029909 c 0
 127.753786674 105.827683406 117.442093915 97.6107933474 108.038873206 88.2075726381 c 0
 98.7398996705 78.9085991028 90.291322063 68.4294290318 82.9946942143 55.9580413687 c 0
 73.8765437376 40.3733093906 66.5230781039 21.6284553827 61.8028821446 -1.97252441356 c 0
EndSplineSet
Substitution2: "Single Substitution lookup 16 subtable" zero.thou
Substitution2: "Single Substitution lookup 15 subtable" zero.hund
Substitution2: "Single Substitution lookup 14 subtable" zero.ten
EndChar

StartChar: one
Encoding: 49 49 52
Width: 320
Flags: HW
HStem: -222 84G<240 277> -12 80G<370 407>
VStem: 370 37<-174 31>
AnchorPoint: "Diacritic_left" 148 230 basechar 0
AnchorPoint: "Extension_down" 52 0 basechar 0
AnchorPoint: "Extension_up" 268 280 basechar 0
LayerCount: 2
Fore
SplineSet
61.8028821446 -1.97252441356 m 0
 61.4291266538 -3.84130186778 60.5185218762 -5.62361374754 59.0710678119 -7.07106781187 c 0
 55.1684394205 -10.9736962033 48.8315605795 -10.9736962033 44.9289321881 -7.07106781187 c 0
 42.4737578611 -4.6158934848 41.5631530835 -1.19729944591 42.1971178554 1.97252441356 c 0
 44.9353188586 15.6635294297 50.9366495287 27.1587851525 59.6489321881 35.8710678119 c 0
 71.2773867895 47.4995224132 87.046039602 53.5780382786 104.403812111 54.7742094316 c 0
 119.850596378 55.838689205 136.663095024 53.1160186778 153.865177829 46.940236673 c 0
 170.93637517 40.8114443327 188.453943467 31.2513062286 205.462090349 18.2973868801 c 1
 258.197117855 281.972524414 l 2
 258.570873346 283.841301868 259.481478124 285.623613748 260.928932188 287.071067812 c 0
 264.83156058 290.973696203 271.16843942 290.973696203 275.071067812 287.071067812 c 0
 277.526242139 284.615893485 278.436846917 281.197299446 277.802882145 278.027475586 c 2
 221.808498858 -1.9706314485 l 2
 221.640167411 -2.81228868605 221.359749514 -3.64575990303 220.960514907 -4.45108792435 c 0
 218.510825437 -9.39255227443 212.509383788 -11.4151798231 207.566980981 -8.96502512086 c 0
 206.761500016 -8.56571469397 206.033539123 -8.07209093979 205.389828562 -7.50411103345 c 0
 186.109155823 9.50824726569 165.924898574 21.3583982746 147.086912807 28.1214917221 c 0
 132.010338904 33.5341870835 117.85936247 35.6576070913 105.788780481 34.8257905684 c 0
 92.1895159536 33.8886283881 81.3626132105 29.3004775868 73.7910678119 21.7289321881 c 0
 68.1033504713 16.0412148475 63.8646811414 8.33647057035 61.8028821446 -1.97252441356 c 0
EndSplineSet
Substitution2: "Single Substitution lookup 16 subtable" one.thou
Substitution2: "Single Substitution lookup 15 subtable" one.hund
Substitution2: "Single Substitution lookup 14 subtable" one.ten
EndChar

StartChar: two
Encoding: 50 50 53
Width: 320
Flags: HW
AnchorPoint: "Diacritic_left" 148 230 basechar 0
AnchorPoint: "Extension_down" 52 0 basechar 0
AnchorPoint: "Extension_up" 268 280 basechar 0
LayerCount: 2
Fore
SplineSet
61.8028821446 -1.97252441356 m 0
 61.4291266538 -3.84130186778 60.5185218762 -5.62361374754 59.0710678119 -7.07106781187 c 0
 55.1684394205 -10.9736962033 48.8315605795 -10.9736962033 44.9289321881 -7.07106781187 c 0
 42.4737578611 -4.6158934848 41.5631530835 -1.19729944591 42.1971178554 1.97252441356 c 0
 43.2258789945 7.11633010938 44.7431688524 11.840021509 46.7436593402 16.1267868399 c 0
 49.2443670687 21.485446258 52.5026295767 26.1447652004 56.3976821881 30.0398178119 c 0
 66.1422205351 39.7843561588 79.0307176116 44.0373789385 92.2928869702 45.2019114986 c 0
 99.6990675403 45.8522378658 107.33769543 45.5663243024 115.034958968 44.6582115055 c 0
 118.515191131 44.2476197324 122.009632578 43.7089008385 125.500653947 43.0638477167 c 1
 125.02381227 43.5275283862 124.553419559 43.9913524803 124.089425837 44.4553462029 c 0
 113.758993547 54.7857784923 106.606512299 65.2051805385 102.456683746 75.8585338095 c 0
 99.5771023298 83.2509351363 98.1841248685 90.7287196309 98.1777295236 98.0703957327 c 0
 98.1726158861 103.940707696 99.0456245217 109.689108646 100.619648725 115.233421697 c 0
 102.887619259 123.222078164 106.588678095 130.786846942 111.248366374 138.009888751 c 0
 117.075605717 147.04276625 124.423418247 155.585020734 132.669859371 163.831461857 c 0
 149.236081199 180.397683686 169.490948747 195.828846299 188.934806066 210.692058358 c 0
 199.184766499 218.527300769 209.205014074 226.190281403 218.295979798 233.676527398 c 0
 225.567159832 239.664212762 232.242022889 245.540434432 237.945554064 251.243965608 c 0
 244.262217403 257.560628946 249.37436056 263.676009466 252.87826862 269.364816943 c 0
 255.685549014 273.922607107 257.432489222 278.149381248 258.197117855 281.972524414 c 0
 258.570873346 283.841301868 259.481478124 285.623613748 260.928932188 287.071067812 c 0
 264.83156058 290.973696203 271.16843942 290.973696203 275.071067812 287.071067812 c 0
 277.526242139 284.615893485 278.436846917 281.197299446 277.802882145 278.027475586 c 0
 276.452221951 271.27417462 273.636910228 264.924504628 269.915607289 258.882743366 c 0
 265.258786183 251.32211156 259.137807356 244.151947652 252.087689688 237.101829984 c 0
 245.720072071 230.734212367 238.583708971 224.473033828 230.994951079 218.223828837 c 0
 221.510994395 210.413961888 211.317707423 202.625376226 201.065844595 194.788679591 c 0
 181.638699612 179.938242724 161.986244218 164.863575457 146.811994994 149.689326234 c 0
 139.270769267 142.148100506 132.85143819 134.597231248 128.064591357 127.177079355 c 0
 124.233010696 121.237697651 121.460757348 115.4097033 119.853229957 109.747379258 c 0
 118.735936158 105.811844732 118.170430735 101.955871977 118.17380009 98.0879479 c 0
 118.178008484 93.2568289511 119.056567653 88.3526584955 121.088739165 83.1357101934 c 0
 124.011834829 75.6315999987 129.407030313 67.4220129735 138.23156146 58.5974818266 c 0
 144.925420411 51.9036228757 153.596813797 44.8579516414 164.498296094 37.5572273445 c 0
 173.103559988 31.7942818503 183.093890533 25.8734242523 194.582201209 19.8107343456 c 0
 207.989359039 13.6673130977 216.689377823 8.83661092982 216.856246167 8.74390629429 c 0
 218.993704769 7.55642929363 220.703612437 5.58817964819 221.51410235 3.08046492111 c 0
 223.21164018 -2.171840563 220.324945118 -7.81445011176 215.071808896 -9.51225643479 c 0
 212.563697534 -10.32287454 209.966698254 -10.0886187852 207.752677877 -9.05079673352 c 0
 199.907336078 -5.37329275904 192.554342381 -1.72592481874 185.66902321 1.89704789655 c 0
 173.008579948 7.67666756038 156.057782 14.620375447 138.46931407 19.5130305772 c 0
 129.75744924 21.9364451875 120.970159137 23.8222048553 112.675581876 24.8007879215 c 0
 106.039835461 25.5836643562 99.7302993315 25.7813851909 94.0547883832 25.2830265049 c 0
 83.7699130087 24.3799259693 75.918736255 21.2766006313 70.5398178119 15.8976821881 c 0
 68.3584815344 13.7163459107 66.446990956 11.0454179395 64.8667658999 7.65922139059 c 0
 63.6025101599 4.95010194781 62.5518987832 1.77255877951 61.8028821446 -1.97252441356 c 0
EndSplineSet
Substitution2: "Single Substitution lookup 16 subtable" two.thou
Substitution2: "Single Substitution lookup 15 subtable" two.hund
Substitution2: "Single Substitution lookup 14 subtable" two.ten
EndChar

StartChar: three
Encoding: 51 51 54
Width: 320
Flags: HW
HStem: -222 84G<240 277> -131 80G<257 330> -12 80G<363 400>
VStem: 240 37<-185 -171> 363 37<7 31>
AnchorPoint: "Diacritic_left" 148 230 basechar 0
AnchorPoint: "Extension_up" 268 280 basechar 0
AnchorPoint: "Extension_down" 52 0 basechar 0
LayerCount: 2
Fore
SplineSet
61.8028821446 -1.97252441356 m 0
 61.4291266538 -3.84130186778 60.5185218762 -5.62361374754 59.0710678119 -7.07106781187 c 0
 55.1684394205 -10.9736962033 48.8315605795 -10.9736962033 44.9289321881 -7.07106781187 c 0
 42.4737578611 -4.6158934848 41.5631530835 -1.19729944591 42.1971178554 1.97252441356 c 0
 44.9353188586 15.6635294297 50.9366495287 27.1587851525 59.6489321881 35.8710678119 c 0
 71.2773867895 47.4995224132 87.046039602 53.5780382786 104.403812111 54.7742094316 c 0
 119.850596378 55.838689205 136.663095024 53.1160186778 153.865177829 46.940236673 c 0
 170.768925235 40.8715611395 188.110329716 31.4385252581 204.961449777 18.6775989537 c 1
 206.973802018 34.3446726294 206.93607906 47.7086960931 205.297655721 59.0335411943 c 0
 203.774211551 69.5636458479 200.886625165 78.3437204381 196.953295454 85.7725349499 c 0
 193.80545433 91.717810211 189.976724096 96.819944335 185.534461368 101.262207063 c 0
 175.713308701 111.083359729 162.544508118 117.938895093 146.861566234 122.461565075 c 0
 138.164027636 124.969774124 128.732639891 126.749463576 118.827276953 127.941168877 c 0
 106.445600138 129.430797272 93.3310794938 130.001960895 80 130.001960895 c 0
 74.4819322471 130.001960895 70.0019608946 134.481932247 70.0019608946 140 c 0
 70.0019608946 145.518067753 74.4819322471 149.998039105 80 149.998039105 c 0
 108.804635811 149.998039105 133.278000951 153.556492073 153.98100372 159.926646771 c 0
 179.856101427 167.888215296 199.900034765 180.215009895 215.452937675 195.767912805 c 0
 237.839508048 218.154483178 251.359775803 247.785814154 258.197117855 281.972524414 c 0
 258.570873346 283.841301868 259.481478124 285.623613748 260.928932188 287.071067812 c 0
 264.83156058 290.973696203 271.16843942 290.973696203 275.071067812 287.071067812 c 0
 277.526242139 284.615893485 278.436846917 281.197299446 277.802882145 278.027475586 c 0
 270.418001974 241.103074735 255.493825285 207.524529168 229.595073299 181.625777181 c 0
 211.616502348 163.647206231 188.560637213 149.639939287 159.885935413 140.816954118 c 0
 159.102957081 140.576037708 158.315833084 140.338966722 157.524547411 140.105759359 c 1
 173.449957846 134.897686289 187.992189527 127.088750151 199.676596992 115.404342686 c 0
 205.509279581 109.571660097 210.558783118 102.826117842 214.631694567 95.1336776212 c 0
 219.724305572 85.5153477801 223.27284553 74.4513419173 225.086397608 61.9160002465 c 0
 227.698109666 43.8637461147 226.756037162 22.7670600737 221.808498858 -1.9706314485 c 0
 221.640167411 -2.81228868605 221.359749514 -3.64575990303 220.960514907 -4.45108792435 c 0
 218.510825437 -9.39255227443 212.509383788 -11.4151798231 207.566980981 -8.96502512086 c 0
 206.761500016 -8.56571469397 206.033539123 -8.07209093979 205.389828562 -7.50411103345 c 0
 186.109155823 9.50824726569 165.924898574 21.3583982746 147.086912807 28.1214917221 c 0
 132.010338904 33.5341870835 117.85936247 35.6576070913 105.788780481 34.8257905684 c 0
 92.1895159536 33.8886283881 81.3626132105 29.3004775868 73.7910678119 21.7289321881 c 0
 68.1033504713 16.0412148475 63.8646811414 8.33647057035 61.8028821446 -1.97252441356 c 0
EndSplineSet
Substitution2: "Single Substitution lookup 16 subtable" three.thou
Substitution2: "Single Substitution lookup 15 subtable" three.hund
Substitution2: "Single Substitution lookup 14 subtable" three.ten
EndChar

StartChar: four
Encoding: 52 52 55
Width: 320
Flags: HW
AnchorPoint: "Diacritic_left" 148 230 basechar 0
AnchorPoint: "Extension_up" 268 280 basechar 0
AnchorPoint: "Extension_down" 52 0 basechar 0
LayerCount: 2
Fore
SplineSet
83.3104596988 149.447116103 m 1
 83.2651183531 149.462913539 83.2195988442 149.478410618 83.1739032089 149.493605534 c 1
 83.3735893758 149.414938129 l 2
 100.037953769 143.463379417 115.193703799 140.882530107 128.988614777 140.891457534 c 0
 140.027956743 140.898601684 150.226171886 142.559456034 159.727972789 145.576051739 c 0
 176.81426719 151.000543668 191.757954518 160.872177539 204.651218896 173.765441916 c 0
 217.066800963 186.181023983 227.580416404 201.443641734 236.048231493 217.930371973 c 0
 246.631692329 238.53623806 254.006124996 261.017560118 258.197117855 281.972524414 c 0
 258.570873346 283.841301868 259.481478124 285.623613748 260.928932188 287.071067812 c 0
 264.83156058 290.973696203 271.16843942 290.973696203 275.071067812 287.071067812 c 0
 277.526242139 284.615893485 278.436846917 281.197299446 277.802882145 278.027475586 c 0
 273.270798013 255.367054927 265.382991235 231.26064546 253.840950072 208.788435446 c 0
 244.608363563 190.812704803 233.029089371 173.859041144 218.793354519 159.623306292 c 0
 204.022103208 144.852054981 186.389665386 133.055305282 165.802631862 126.519411977 c 0
 151.514561891 121.983289725 135.863787193 120.021099003 119.061835869 121.262448578 c 0
 108.974832519 122.00768924 98.4847849427 123.900207179 87.6051048123 127.038588925 c 1
 61.8028821446 -1.97252441356 l 2
 61.4291266538 -3.84130186778 60.5185218762 -5.62361374754 59.0710678119 -7.07106781187 c 0
 55.1684394205 -10.9736962033 48.8315605795 -10.9736962033 44.9289321881 -7.07106781187 c 0
 42.4737578611 -4.6158934848 41.5631530835 -1.19729944591 42.1971178554 1.97252441356 c 2
 70.1971178554 141.972524414 l 2
 70.2448984069 142.211427171 70.3017255689 142.450313835 70.3678164891 142.688801572 c 0
 71.8403839359 148.002531153 77.3577929451 151.11890722 82.6811253685 149.643678585 c 0
 82.8475568537 149.597557343 83.011840479 149.547489528 83.1739032089 149.493605534 c 1
 83.1030839639 149.519904079 83.2245530476 149.477359828 83.3104596988 149.447116103 c 1
83.3104596988 149.447116103 m 1
 83.351477752 149.432675115 83.3843881648 149.42103823 83.384387873 149.421037401 c 1
 83.3597982862 149.429819397 83.3351555648 149.438512715 83.3104596988 149.447116103 c 1
EndSplineSet
Substitution2: "Single Substitution lookup 16 subtable" four.thou
Substitution2: "Single Substitution lookup 15 subtable" four.hund
Substitution2: "Single Substitution lookup 14 subtable" four.ten
EndChar

StartChar: five
Encoding: 53 53 56
Width: 320
Flags: HW
AnchorPoint: "Diacritic_left" 148 230 basechar 0
AnchorPoint: "Extension_up" 268 280 basechar 0
AnchorPoint: "Extension_down" 52 0 basechar 0
LayerCount: 2
Fore
SplineSet
203.830683618 10.1403532247 m 1
 258.197117855 281.972524414 l 2
 258.570873346 283.841301868 259.481478124 285.623613748 260.928932188 287.071067812 c 0
 264.83156058 290.973696203 271.16843942 290.973696203 275.071067812 287.071067812 c 0
 277.526242139 284.615893485 278.436846917 281.197299446 277.802882145 278.027475586 c 2
 221.791420726 -1.98190775451 l 2
 220.861771803 -6.63015237069 216.748017358 -9.9980391054 212 -9.9980391054 c 0
 162.693859625 -9.9980391054 124.112961386 4.05403877262 98.9725689468 29.1944312123 c 0
 88.5633443741 39.603655785 80.6221425226 51.7926698533 75.2589561571 65.3078456487 c 1
 61.8028821446 -1.97252441356 l 2
 61.4291266538 -3.84130186778 60.5185218762 -5.62361374754 59.0710678119 -7.07106781187 c 0
 55.1684394205 -10.9736962033 48.8315605795 -10.9736962033 44.9289321881 -7.07106781187 c 0
 42.4737578611 -4.6158934848 41.5631530835 -1.19729944591 42.1971178554 1.97252441356 c 2
 70.1971178554 141.972524414 l 2
 71.1125897643 146.549883958 75.1573858323 150.003133325 80.0023668692 150.003133325 c 0
 85.5211640087 150.003133325 90.0017275308 145.522569803 90.0017275308 140.003772664 c 0
 90.0017275308 139.329956561 89.9349352077 138.671617538 89.8074775233 138.05045248 c 0
 89.807615883 138.035020914 89.8028821446 138.027475586 89.8028821446 138.027475586 c 2
 86.2862592098 120.444360912 86.1128963973 104.187248614 88.9236402633 89.6456109032 c 0
 92.4351657218 71.4784162159 100.577915465 55.8733559414 113.114704571 43.336566836 c 0
 132.241264749 24.2100066577 162.438513609 11.6012764991 203.830683618 10.1403532247 c 1
EndSplineSet
Substitution2: "Single Substitution lookup 16 subtable" five.thou
Substitution2: "Single Substitution lookup 15 subtable" five.hund
Substitution2: "Single Substitution lookup 14 subtable" five.ten
EndChar

StartChar: six
Encoding: 54 54 57
Width: 320
Flags: HW
HStem: -222 84G<240 277> -129 80G<317 414> -70 84G<332 339> -12 80G<372 409>
VStem: 372 37<7 31>
AnchorPoint: "Diacritic_left" 148 230 basechar 0
AnchorPoint: "Extension_up" 268 280 basechar 0
AnchorPoint: "Extension_down" 52 0 basechar 0
LayerCount: 2
Fore
SplineSet
178 170.001960895 m 0
 172.481932247 170.001960895 168.001960895 174.481932247 168.001960895 180 c 0
 168.001960895 185.518067753 172.481932247 189.998039105 178 189.998039105 c 0
 186.54011168 189.998039105 195.069500502 191.721618124 203.201977625 194.92033346 c 0
 213.364902829 198.917676977 222.867932106 205.225802317 230.764782756 213.122652968 c 0
 241.45314291 223.811013122 249.201621738 237.369480842 252.197117855 251.972524414 c 0
 252.206922127 252.020925574 258.197117855 281.972524414 258.197117855 281.972524414 c 2
 258.570873346 283.841301868 259.481478124 285.623613748 260.928932188 287.071067812 c 0
 264.83156058 290.973696203 271.16843942 290.973696203 275.071067812 287.071067812 c 0
 277.526242139 284.615893485 278.436846917 281.197299446 277.802882145 278.027475586 c 2
 271.802882145 248.027475586 l 2
 267.936608377 229.179390968 258.155874408 212.229473372 244.90691838 198.980517344 c 0
 236.723802488 190.797401452 227.218446807 184.010688766 216.842379253 179.053737974 c 1
 220.499949569 176.679539139 223.879588282 173.94781093 226.940270397 170.887128815 c 0
 235.44863739 162.378761823 241.309719012 151.522545472 243.928392866 139.293964074 c 0
 246.0228048 129.51356061 246.033854709 118.902861501 243.793077873 107.979074426 c 0
 239.966035122 88.8438606685 233.450804392 70.7110167975 224.666626188 54.5470422482 c 0
 217.6389706 41.6152866056 209.161292122 29.9613052583 199.364080584 20.1640937208 c 0
 181.037346953 1.83736009006 157.917791628 -9.9980391054 132 -9.9980391054 c 0
 121.287971594 -9.9980391054 111.442710873 -7.95399216512 102.767573301 -4.02984084621 c 0
 95.8313235342 -0.892265972749 89.6836457342 3.42466606248 84.4162688107 8.69204298599 c 0
 77.7043230107 15.403988786 72.5169241373 23.5216059152 68.7217267073 32.6216983999 c 1
 61.8028821446 -1.97252441356 l 2
 61.4291266538 -3.84130186778 60.5185218762 -5.62361374754 59.0710678119 -7.07106781187 c 0
 55.1684394205 -10.9736962033 48.8315605795 -10.9736962033 44.9289321881 -7.07106781187 c 0
 42.4737578611 -4.6158934848 41.5631530835 -1.19729944591 42.1971178554 1.97252441356 c 2
 64.1971178554 111.972524414 l 2
 65.1125897643 116.549883958 69.1573858323 120.003133325 74.0023668692 120.003133325 c 0
 79.5211640087 120.003133325 84.0017275308 115.522569803 84.0017275308 110.003772664 c 0
 84.0017275308 109.329956561 83.9349352077 108.671617538 83.8074775233 108.05045248 c 0
 83.807615883 108.035020914 83.8028821446 108.027475586 83.8028821446 108.027475586 c 2
 79.6302945203 87.1645374647 79.6465367646 67.8988132064 83.3368197274 52.3176053385 c 0
 86.2925962513 39.8376494935 91.5563599024 29.8362231417 98.5584044344 22.8341786097 c 0
 102.166525567 19.2260574772 106.295027729 16.3294212651 111.021844136 14.19127156 c 0
 116.925539282 11.5207671557 123.826120986 9.9980391054 132 9.9980391054 c 0
 151.536753826 9.9980391054 169.739512551 18.8237969347 185.22194496 34.3062293445 c 0
 193.456288645 42.5405730287 200.873092176 52.6580250231 207.089947817 64.0978084627 c 0
 214.861408648 78.3982577663 220.761237605 94.7925029679 224.206922127 112.020925574 c 0
 225.934025544 120.440554733 225.853936704 128.189267252 224.377752111 135.082696698 c 0
 222.533180305 143.696406437 218.494363488 151.048764477 212.798134774 156.744993191 c 0
 204.689165702 164.853962263 192.850380453 170.001960895 178 170.001960895 c 0
EndSplineSet
Substitution2: "Single Substitution lookup 16 subtable" six.thou
Substitution2: "Single Substitution lookup 15 subtable" six.hund
Substitution2: "Single Substitution lookup 14 subtable" six.ten
EndChar

StartChar: seven
Encoding: 55 55 58
Width: 320
Flags: HW
AnchorPoint: "Diacritic_left" 148 230 basechar 0
AnchorPoint: "Extension_up" 268 280 basechar 0
AnchorPoint: "Extension_down" 52 0 basechar 0
LayerCount: 2
Fore
SplineSet
61.8028821446 -1.97252441356 m 0
 61.4291266538 -3.84130186778 60.5185218762 -5.62361374754 59.0710678119 -7.07106781187 c 0
 55.1684394205 -10.9736962033 48.8315605795 -10.9736962033 44.9289321881 -7.07106781187 c 0
 42.4737578611 -4.6158934848 41.5631530835 -1.19729944591 42.1971178554 1.97252441356 c 0
 46.7292019873 24.6329450729 54.6170087649 48.73935454 66.1590499279 71.2115645544 c 0
 75.391636437 89.1872951968 86.9709106292 106.140958856 101.206645481 120.376693708 c 0
 115.977896792 135.147945019 133.610334614 146.944694718 154.197368138 153.480588023 c 0
 168.485438109 158.016710275 184.136212807 159.978900997 200.938164131 158.737551422 c 0
 211.025167481 157.99231076 221.515215057 156.099792821 232.394895188 152.961411075 c 1
 258.197117855 281.972524414 l 2
 258.570873346 283.841301868 259.481478124 285.623613748 260.928932188 287.071067812 c 0
 264.83156058 290.973696203 271.16843942 290.973696203 275.071067812 287.071067812 c 0
 277.526242139 284.615893485 278.436846917 281.197299446 277.802882145 278.027475586 c 2
 249.813680642 138.033574858 l 2
 249.76590009 137.794672101 249.709072928 137.555785437 249.642982008 137.3172977 c 0
 248.170414561 132.003568119 242.653005552 128.887192052 237.329673129 130.362420687 c 0
 237.090754403 130.428631045 236.856261186 130.502972384 236.626410624 130.585061871 c 0
 223.295768302 135.346005557 210.926118137 137.948639862 199.453911193 138.79622113 c 0
 185.115390873 139.855569284 172.145990521 138.193649088 160.272027211 134.423948261 c 0
 143.18573281 128.999456332 128.242045482 119.127822461 115.348781104 106.234558084 c 0
 102.933199037 93.8189760171 92.4195835964 78.5563582663 83.9517685067 62.0696280274 c 0
 73.3683076711 41.4637619402 65.9938750038 18.9824398822 61.8028821446 -1.97252441356 c 0
EndSplineSet
Substitution2: "Single Substitution lookup 16 subtable" seven.thou
Substitution2: "Single Substitution lookup 15 subtable" seven.hund
Substitution2: "Single Substitution lookup 14 subtable" seven.ten
EndChar

StartChar: eight
Encoding: 56 56 59
Width: 320
Flags: HW
AnchorPoint: "Diacritic_left" 148 230 basechar 0
AnchorPoint: "Extension_up" 268 280 basechar 0
AnchorPoint: "Extension_down" 52 0 basechar 0
LayerCount: 2
Fore
SplineSet
61.8028821446 -1.97252441356 m 0
 61.4291266538 -3.84130186778 60.5185218762 -5.62361374754 59.0710678119 -7.07106781187 c 0
 55.1684394205 -10.9736962033 48.8315605795 -10.9736962033 44.9289321881 -7.07106781187 c 0
 42.4737578611 -4.6158934848 41.5631530835 -1.19729944591 42.1971178554 1.97252441356 c 0
 48.536458251 33.6692263919 65.7852294215 61.9736144803 88.9053377083 85.0937227671 c 0
 107.468354098 103.656739157 129.838320739 118.924800463 153.83865964 130.001960895 c 1
 80 130.001960895 l 2
 74.4819322471 130.001960895 70.0019608946 134.481932247 70.0019608946 140 c 0
 70.0019608946 145.518067753 74.4819322471 149.998039105 80 149.998039105 c 0
 101.091407527 149.998039105 123.38679677 154.472495629 144.819676904 162.690781806 c 0
 171.61220073 172.96418542 196.971729396 189.067615585 216.952526668 209.048412857 c 0
 237.823300855 229.919187044 252.79223943 254.948132289 258.197117855 281.972524414 c 0
 258.570873346 283.841301868 259.481478124 285.623613748 260.928932188 287.071067812 c 0
 264.83156058 290.973696203 271.16843942 290.973696203 275.071067812 287.071067812 c 0
 277.526242139 284.615893485 278.436846917 281.197299446 277.802882145 278.027475586 c 0
 271.463541749 246.330773608 254.214770578 218.02638552 231.094662292 194.906277233 c 0
 212.531645902 176.343260843 190.161679261 161.075199537 166.16134036 149.998039105 c 1
 240 149.998039105 l 2
 245.518067753 149.998039105 249.998039105 145.518067753 249.998039105 140 c 0
 249.998039105 134.481932247 245.518067753 130.001960895 240 130.001960895 c 0
 218.908592473 130.001960895 196.61320323 125.527504371 175.180323096 117.309218194 c 0
 148.38779927 107.03581458 123.028270604 90.9323844151 103.047473332 70.9515871433 c 0
 82.1766991449 50.0808129562 67.2077605696 25.0518677113 61.8028821446 -1.97252441356 c 0
EndSplineSet
Substitution2: "Single Substitution lookup 16 subtable" eight.thou
Substitution2: "Single Substitution lookup 15 subtable" eight.hund
Substitution2: "Single Substitution lookup 14 subtable" eight.ten
EndChar

StartChar: nine
Encoding: 57 57 60
Width: 320
Flags: HW
HStem: -222 84G<240 277> -12 80G<375 411>
VStem: 240 37<-185 -148> 375 37<-49 31>
AnchorPoint: "Diacritic_left" 148 230 basechar 0
AnchorPoint: "Extension_up" 268 280 basechar 0
AnchorPoint: "Extension_down" 52 0 basechar 0
LayerCount: 2
Fore
SplineSet
61.8028821446 -1.97252441356 m 0
 61.4291266538 -3.84130186778 60.5185218762 -5.62361374754 59.0710678119 -7.07106781187 c 0
 55.1684394205 -10.9736962033 48.8315605795 -10.9736962033 44.9289321881 -7.07106781187 c 0
 42.4737578611 -4.6158934848 41.5631530835 -1.19729944591 42.1971178554 1.97252441356 c 0
 51.8560640797 50.2672555353 71.0786240842 83.6850957285 92.6120993465 105.218570991 c 0
 104.764620497 117.371092142 117.57332413 125.678928002 129.75658194 130.721797869 c 0
 139.501446288 134.755372759 148.873306535 136.734169215 157.362638473 136.754590083 c 0
 162.668936023 136.767354245 167.679039115 136.019515527 172.235659076 134.322725653 c 0
 175.875277875 132.967407814 179.266401353 130.987281048 182.106976182 128.146706219 c 0
 182.709824287 127.543858113 183.280904498 126.907898758 183.815720718 126.239378484 c 0
 184.500763218 125.383075358 185.055122161 124.39875244 185.438193576 123.3059183 c 0
 187.262693265 118.100947442 184.515156435 112.392849052 179.306462253 110.567044225 c 0
 178.212846365 110.183698784 177.097128656 110.001780349 175.999913096 110.001780349 c 0
 170.25532505 110.001780349 165.012972274 108.616624445 160.054793006 106.052573404 c 0
 156.089817707 104.002143499 152.320947266 101.174841713 148.849538036 97.7034324829 c 0
 143.565582915 92.4194773615 138.938821711 85.5815844598 135.378712544 78.0075848245 c 0
 130.928122424 68.539120133 128.169130022 57.9776691734 127.441669814 48.1502750052 c 0
 126.859388056 40.2841233189 127.591780018 32.9584652218 129.473024665 27.0715749502 c 0
 130.980724638 22.3536004361 133.189102058 18.6197002328 135.84884559 15.9599567008 c 0
 137.891054797 13.9177474939 140.291265031 12.3647210533 143.29542843 11.3305856319 c 0
 145.703410017 10.5016763075 148.549370595 9.9980391054 152 9.9980391054 c 0
 161.532181809 9.9980391054 169.220794277 11.6746710779 175.746918394 14.6347888217 c 0
 180.974468571 17.0058997229 185.53396397 20.238179143 189.685894803 24.3901099759 c 0
 193.572342418 28.2765575909 197.139461286 33.0335789673 200.41395101 38.6506781515 c 0
 204.505767088 45.6698288253 208.126733454 54.018926011 211.386410876 63.5030867577 c 0
 214.645658976 72.9859983707 217.545028899 83.5914763198 220.277187559 95.0900085105 c 0
 223.692659485 109.464325227 226.848701428 125.230442275 230.197117855 141.972524414 c 2
 258.197117855 281.972524414 l 2
 258.570873346 283.841301868 259.481478124 285.623613748 260.928932188 287.071067812 c 0
 264.83156058 290.973696203 271.16843942 290.973696203 275.071067812 287.071067812 c 0
 277.526242139 284.615893485 278.436846917 281.197299446 277.802882145 278.027475586 c 2
 249.802882145 138.027475586 l 2
 246.454178683 121.283958278 243.263502414 105.316484271 239.729318226 90.4425564631 c 0
 236.901751993 78.5424930343 233.855516766 67.339997144 230.29516959 56.9810258252 c 0
 226.735251738 46.6233036403 222.662632703 37.096608802 217.698763391 28.5815274873 c 0
 213.728704803 21.7712410807 209.179531364 15.5994752891 203.828030427 10.2479743522 c 0
 198.112206691 4.53215061637 191.524137877 -0.174077869339 184.019723982 -3.5779280459 c 0
 174.630893008 -7.8365116494 163.928925605 -9.9980391054 152 -9.9980391054 c 0
 146.561740516 -9.9980391054 141.440622905 -9.18480387954 136.76431856 -7.57506055949 c 0
 130.913124544 -5.56088017543 125.837340265 -2.31280922228 121.706709966 1.81782107702 c 0
 116.327511551 7.19701949182 112.70710792 13.8285463898 110.427865428 20.9608725721 c 0
 107.575431994 29.8868581711 106.764518663 39.6941909368 107.500549887 49.6373725289 c 0
 108.420980904 62.0716449586 111.781158281 74.8286456211 117.278917829 86.5249242618 c 0
 121.386180616 95.2629693336 126.700213975 103.441004568 133.286726319 110.386559937 c 1
 124.80081655 106.269695008 115.656107613 99.9783080102 106.75423497 91.0764353671 c 0
 88.3894082455 72.7116086424 70.8071927893 43.0490288098 61.8028821446 -1.97252441356 c 0
EndSplineSet
Substitution2: "Single Substitution lookup 16 subtable" nine.thou
Substitution2: "Single Substitution lookup 15 subtable" nine.hund
Substitution2: "Single Substitution lookup 14 subtable" nine.ten
EndChar

StartChar: b.flip
Encoding: 65555 -1 61
Width: 320
Flags: HW
AnchorPoint: "Diacritic_left" 40 140 basechar 0
AnchorPoint: "Diacritic_right" 280 140 basechar 0
AnchorPoint: "Diacritic_up" 204 360 basechar 0
AnchorPoint: "Diacritic_down" 120 -60 basechar 0
AnchorPoint: "Extension_up" 188 280 basechar 0
AnchorPoint: "Extension_down" 32 0 basechar 0
LayerCount: 2
Fore
SplineSet
132.246701108 115.700652995 m 1
 142.403535079 103.004610532 l 1
 145.652586568 119.249867979 l 1
 141.389392194 118.445447519 136.920936123 117.276157472 132.246701108 115.700652995 c 1
32 -9.9980391054 m 2
 29.4401231919 -9.9980391054 26.8802463838 -9.02238200756 24.9289321881 -7.07106781187 c 0
 21.0263037967 -3.16843942048 21.0263037967 3.16843942048 24.9289321881 7.07106781187 c 0
 26.8802463838 9.02238200756 29.4401231919 9.9980391054 32 9.9980391054 c 2
 223.588463635 9.9980391054 l 1
 226.528464195 30.0110418165 225.471421919 49.6423310125 220.869122349 66.5546592667 c 0
 216.692992517 81.9009176918 209.625021768 94.8935086296 200.381141126 104.137389272 c 0
 196.073915592 108.444614806 191.264947195 111.987757415 185.955623899 114.676441599 c 0
 180.072126826 117.655892019 173.555891669 119.611197568 166.263396684 120.332207503 c 1
 157.802306572 78.0273361948 l 2
 157.57973823 76.9144944863 157.162289094 75.8214110607 156.538100211 74.7967767601 c 0
 153.668704733 70.0865342259 147.510023204 68.5950314346 142.79365099 71.4681610035 c 0
 141.76768328 72.0931621759 140.893939726 72.8735459609 140.184279282 73.7606215164 c 2
 108.180997539 113.746909954 l 2
 107.923809593 114.068394887 107.683688125 114.409305565 107.462756556 114.769134517 c 0
 104.576815966 119.46943598 106.051122128 125.629285582 110.752994262 128.51619055 c 0
 111.112943455 128.737195946 111.481440131 128.932654167 111.856360869 129.103072684 c 0
 125.201535217 135.169061024 137.888603632 138.772382398 149.818150314 140.077686708 c 1
 178.197117855 281.972524414 l 2
 178.570873346 283.841301868 179.481478124 285.623613748 180.928932188 287.071067812 c 0
 184.83156058 290.973696203 191.16843942 290.973696203 195.071067812 287.071067812 c 0
 197.526242139 284.615893485 198.436846917 281.197299446 197.802882145 278.027475586 c 2
 170.19916114 140.010760336 l 1
 179.146199234 138.89962936 187.467676024 136.333358769 194.996514789 132.520694032 c 0
 202.276190128 128.834207666 208.79989781 124.002903835 214.523276749 118.279524896 c 0
 226.797452627 106.005349018 235.255332271 89.858151816 240.161188537 71.830326756 c 0
 246.300790997 49.2687853833 246.913637554 23.6291763854 241.791420726 -1.98190775451 c 0
 240.861771803 -6.63015237069 236.748017358 -9.9980391054 232 -9.9980391054 c 2
 32 -9.9980391054 l 2
EndSplineSet
Ligature2: "FlipCores subtable" b quotesingle
LCarets2: 1 320
EndChar

StartChar: c.flip
Encoding: 65556 -1 62
Width: 320
Flags: HW
AnchorPoint: "Diacritic_left" 120 140 basechar 0
AnchorPoint: "Diacritic_right" 320 140 basechar 0
AnchorPoint: "Diacritic_up" 204 360 basechar 0
AnchorPoint: "Diacritic_down" 120 -60 basechar 0
AnchorPoint: "Extension_down" 232 0 basechar 0
AnchorPoint: "Extension_up" 88 280 basechar 0
LayerCount: 2
Fore
SplineSet
241.802882145 -1.97252441356 m 2
 241.429126654 -3.84130186778 240.518521876 -5.62361374754 239.071067812 -7.07106781187 c 0
 235.16843942 -10.9736962033 228.83156058 -10.9736962033 224.928932188 -7.07106781187 c 0
 222.473757861 -4.6158934848 221.563153083 -1.19729944591 222.197117855 1.97252441356 c 2
 275.803005152 270.001960895 l 1
 88 270.001960895 l 2
 85.4401231919 270.001960895 82.8802463838 270.977617992 80.9289321881 272.928932188 c 0
 77.0263037967 276.83156058 77.0263037967 283.16843942 80.9289321881 287.071067812 c 0
 82.8802463838 289.022382008 85.4401231919 289.998039105 88 289.998039105 c 2
 287.991249432 290.00872466 l 2
 288.320291294 290.00872466 288.652371349 289.992508667 288.986640506 289.959380085 c 0
 294.478366049 289.415108873 298.49467882 284.510681132 297.949923748 279.01407341 c 0
 297.916765715 278.679507085 297.867468816 278.350408946 297.802882145 278.027475586 c 2
 241.802882145 -1.97252441356 l 2
EndSplineSet
Ligature2: "FlipCores subtable" c quotesingle
LCarets2: 1 320
EndChar

StartChar: d.flip
Encoding: 65557 -1 63
Width: 320
Flags: HW
AnchorPoint: "Diacritic_right" 320 140 basechar 0
AnchorPoint: "Diacritic_left" 120 140 basechar 0
AnchorPoint: "Diacritic_up" 204 360 basechar 0
AnchorPoint: "Diacritic_down" 120 -60 basechar 0
AnchorPoint: "Extension_down" 32 0 basechar 0
AnchorPoint: "Extension_up" 248 280 basechar 0
LayerCount: 2
Fore
SplineSet
32 -9.9980391054 m 2
 29.4401231919 -9.9980391054 26.8802463838 -9.02238200756 24.9289321881 -7.07106781187 c 0
 21.0263037967 -3.16843942048 21.0263037967 3.16843942048 24.9289321881 7.07106781187 c 0
 26.8802463838 9.02238200756 29.4401231919 9.9980391054 32 9.9980391054 c 2
 223.802220794 9.9980391054 l 1
 244.638861138 114.181240826 l 1
 218.394615892 92.3110364542 l 2
 217.284482508 91.3859253014 215.955911286 90.6886814806 214.463070461 90.3103741459 c 0
 209.116190493 88.9553978641 203.673770499 92.2016939975 202.317116023 97.5551962966 c 0
 201.938340139 99.0498860659 201.917847216 100.551820029 202.201469017 101.969929032 c 2
 238.197117855 281.972524414 l 2
 238.570873346 283.841301868 239.481478124 285.623613748 240.928932188 287.071067812 c 0
 244.83156058 290.973696203 251.16843942 290.973696203 255.071067812 287.071067812 c 0
 257.526242139 284.615893485 258.436846917 281.197299446 257.802882145 278.027475586 c 2
 227.360462194 125.815375832 l 1
 253.60973527 147.686368164 l 2
 254.719868653 148.611479317 256.048439876 149.308723137 257.5412807 149.687030472 c 0
 262.888160668 151.042006754 268.330580662 147.795710621 269.687235138 142.442208321 c 0
 270.066011022 140.947518552 270.086503945 139.445584589 269.802882145 138.027475586 c 2
 241.791420726 -1.98190775451 l 2
 240.861771803 -6.63015237069 236.748017358 -9.9980391054 232 -9.9980391054 c 2
 32 -9.9980391054 l 2
EndSplineSet
Ligature2: "FlipCores subtable" d quotesingle
LCarets2: 1 320
EndChar

StartChar: f.flip
Encoding: 65558 -1 64
Width: 320
Flags: HW
AnchorPoint: "Diacritic_right" 300 140 basechar 0
AnchorPoint: "Diacritic_left" 70 140 basechar 0
AnchorPoint: "Diacritic_up" 204 360 basechar 0
AnchorPoint: "Diacritic_down" 120 -60 basechar 0
AnchorPoint: "Extension_down" 32 0 basechar 0
AnchorPoint: "Extension_up" 168 280 basechar 0
LayerCount: 2
Fore
SplineSet
32 -9.9980391054 m 0
 29.4401231919 -9.9980391054 26.8802463838 -9.02238200756 24.9289321881 -7.07106781187 c 0
 21.0263037967 -3.16843942048 21.0263037967 3.16843942048 24.9289321881 7.07106781187 c 0
 26.8802463838 9.02238200756 29.4401231919 9.9980391054 32 9.9980391054 c 0
 69.1660755989 9.9980391054 99.9456512257 11.0862338545 125.280313787 13.2339202322 c 0
 145.546636626 14.9519500414 162.324733518 17.3509319194 176.061492925 20.3654271829 c 0
 189.80168965 23.3806767568 200.473377882 27.0152714291 208.582691228 31.0649454321 c 0
 215.073907744 34.3065652401 219.911731896 37.7939761995 223.535608415 41.4178527179 c 0
 226.160476485 44.0427207881 228.204670764 46.7835341455 229.836253105 49.7232278432 c 0
 231.874120344 53.3949429197 233.285361312 57.4137416985 234.197117855 61.9725244136 c 0
 235.766665666 69.8202634645 235.71914636 76.0963454069 234.707405921 81.1550476029 c 0
 234.003527266 84.6744408767 232.834544889 87.6509513686 231.284508044 90.2911240161 c 0
 230.044147377 92.4038262522 228.549317301 94.3085470756 226.803932188 96.0539321881 c 0
 222.615332108 100.242532268 216.761060395 103.648178348 209.783770334 106.171138595 c 0
 201.078656997 109.318872844 190.790616168 111.037419155 180.758141474 111.764410075 c 0
 170.728880215 112.491168137 160.986895592 112.251685285 153.315907064 111.750015406 c 0
 143.547627853 111.111186206 137.602428534 110.130287922 137.602428534 110.130287922 c 2
 137.020675211 110.036456741 136.422554598 109.992983982 135.812791786 110.004421088 c 0
 130.291052714 110.107990406 125.892192232 114.675366743 125.995769386 120.197523594 c 0
 126.007207358 120.807332542 126.073075837 121.403447474 126.188649731 121.981316943 c 2
 158.197117855 281.972524414 l 2
 158.570873346 283.841301868 159.481478124 285.623613748 160.928932188 287.071067812 c 0
 164.83156058 290.973696203 171.16843942 290.973696203 175.071067812 287.071067812 c 0
 177.526242139 284.615893485 178.436846917 281.197299446 177.802882145 278.027475586 c 2
 148.487050467 131.448317197 l 1
 149.607075538 131.537549879 150.780175446 131.623299771 152.001232092 131.703154843 c 0
 160.352953517 132.249343521 170.947045711 132.524263962 182.214080748 131.707812147 c 0
 193.47790235 130.89159319 205.446377297 129.009316456 216.604851827 124.974456589 c 0
 225.518432061 121.751341542 234.023556781 117.118578843 240.946067812 110.196067812 c 0
 243.830312329 107.311823295 246.401173458 104.053459223 248.538374928 100.413171004 c 0
 251.210290756 95.8621055841 253.188059382 90.7256505728 254.31317021 85.10009643 c 0
 255.935174627 76.9900743461 255.78888989 67.9575143133 253.802882145 58.0274755864 c 0
 252.551099904 51.7685643812 250.482298943 45.7010598758 247.328023107 40.0178623039 c 0
 244.805890988 35.4736258829 241.600626073 31.1985991286 237.677744038 27.2757170942 c 0
 232.25555375 21.8535268061 225.569276269 17.1883096559 217.524250721 13.1707400512 c 0
 207.463261488 8.14642728841 195.258177719 4.10303315888 180.371958016 0.836291894862 c 0
 165.482300994 -2.43120367947 147.88433703 -4.91821467533 126.981779579 -6.69017977606 c 0
 100.855341778 -8.90498703576 69.5600366771 -9.9980391054 32 -9.9980391054 c 0
EndSplineSet
Ligature2: "FlipCores subtable" f quotesingle
LCarets2: 1 320
EndChar

StartChar: g.flip
Encoding: 65559 -1 65
Width: 320
Flags: HW
HStem: 440 84G<-126 -31> 244 40<-111 97>
AnchorPoint: "Diacritic_right" 320 140 basechar 0
AnchorPoint: "Diacritic_left" 40 140 basechar 0
AnchorPoint: "Diacritic_up" 204 360 basechar 0
AnchorPoint: "Diacritic_down" 120 -60 basechar 0
AnchorPoint: "Extension_down" 12 0 basechar 0
AnchorPoint: "Extension_up" 108 280 basechar 0
LayerCount: 2
Fore
SplineSet
12 -9.9980391054 m 2
 9.44012319191 -9.9980391054 6.88024638383 -9.02238200756 4.92893218813 -7.07106781187 c 0
 1.02630379675 -3.16843942048 1.02630379675 3.16843942048 4.92893218813 7.07106781187 c 0
 6.88024638383 9.02238200756 9.44012319191 9.9980391054 12 9.9980391054 c 2
 243.685594048 9.9980391054 l 1
 247.725358527 33.688432802 247.715755262 52.5461044498 245.273462328 67.471227938 c 0
 243.389354848 78.9852180931 240.071495792 88.1841333393 235.986171422 95.6327672574 c 0
 232.717023963 101.593293386 228.945315561 106.449410819 224.939493543 110.455232837 c 0
 216.362088051 119.032638329 206.451744218 123.905774386 197.994468498 126.631415733 c 0
 193.926532197 127.942444927 190.217174337 128.749999545 187.232385219 129.241910372 c 0
 184.86230294 123.462477063 181.326456556 118.31549639 177.018512035 114.007551869 c 0
 172.2264569 109.215496734 166.498076618 105.467615097 160.166781615 103.038807183 c 0
 155.103037295 101.096256367 149.631640971 100.001960895 144 100.001960895 c 0
 135.752273753 100.001960895 128.204607627 101.561636075 121.586600821 104.5762694 c 0
 116.297428513 106.985592263 111.658775221 110.293453344 107.703147752 114.249080813 c 0
 103.522216595 118.43001197 100.159370034 123.252956347 97.4327150422 128.471363791 c 0
 94.0229631965 134.997115844 91.5915454457 142.156901263 89.8444444176 149.677327325 c 0
 88.0967956475 157.200111152 87.0352028453 165.101074734 86.4631618942 173.157753349 c 0
 85.7481665982 183.227814416 85.8006869476 193.547652791 86.3239375714 203.652881579 c 0
 87.2655503338 221.837690084 89.7348808093 239.340728534 92.182685667 253.237912723 c 0
 95.241687673 270.605111821 98.2738677288 282.331440177 98.3220909831 282.517757296 c 0
 98.7539999803 284.186496605 99.6229470486 285.765082672 100.928932188 287.071067812 c 0
 104.83156058 290.973696203 111.16843942 290.973696203 115.071067812 287.071067812 c 0
 117.667711064 284.47442456 118.536658132 280.800137016 117.677909017 277.482242704 c 2
 117.677909017 277.482242704 108.294051686 241.254976519 106.293062719 202.61106403 c 0
 105.803125557 193.149198355 105.767693824 183.61190046 106.408658999 174.584486593 c 0
 106.921386424 167.36318526 107.868666032 160.47235215 109.319556251 154.226970549 c 0
 110.770994212 147.979231183 112.727782029 142.394482439 115.161464877 137.736779603 c 0
 117.10955764 134.008423136 119.352805475 130.883694338 121.845283376 128.391216436 c 0
 124.20444719 126.032052622 126.836270653 124.166112747 129.888465366 122.775777535 c 0
 133.697167338 121.040838266 138.249476028 119.998039105 144 119.998039105 c 0
 147.013091466 119.998039105 150.0571345 120.584553643 152.985052675 121.707760006 c 0
 156.64333579 123.111148567 160.086132276 125.359443358 162.876376411 128.149687493 c 0
 166.644094426 131.917405508 169.271159729 136.687569686 170.165884651 141.75767758 c 0
 171.004766141 146.511339354 175.165822363 149.998039109 180.000000007 149.998039105 c 0
 180.698819819 149.998039105 190.794540238 149.966436703 204.151975316 145.661554312 c 0
 214.825749955 142.221571693 227.682413013 135.996584615 239.081629166 124.597368461 c 0
 244.398230582 119.280767045 249.341261717 112.880921368 253.526063161 105.250914261 c 0
 258.758174921 95.7113816341 262.787766631 84.2743645126 265.005525463 70.7213938776 c 0
 268.202299079 51.1855551088 267.658826521 27.3551212232 261.791420726 -1.98190775451 c 0
 260.861771803 -6.63015237069 256.748017358 -9.9980391054 252 -9.9980391054 c 2
 12 -9.9980391054 l 2
EndSplineSet
Ligature2: "FlipCores subtable" g quotesingle
LCarets2: 1 320
EndChar

StartChar: h.flip
Encoding: 65560 -1 66
Width: 320
Flags: HW
AnchorPoint: "Diacritic_right" 300 140 basechar 0
AnchorPoint: "Diacritic_left" 40 140 basechar 0
AnchorPoint: "Diacritic_up" 204 360 basechar 0
AnchorPoint: "Diacritic_down" 120 -60 basechar 0
AnchorPoint: "Extension_down" 212 0 basechar 0
AnchorPoint: "Extension_up" 148 280 basechar 0
LayerCount: 2
Fore
SplineSet
104.805654789 150.001960895 m 1
 110.403535079 143.004610532 l 1
 111.803005152 150.001960895 l 1
 104.805654789 150.001960895 l 1
221.802882145 -1.97252441356 m 2
 221.429126654 -3.84130186778 220.518521876 -5.62361374754 219.071067812 -7.07106781187 c 0
 215.16843942 -10.9736962033 208.83156058 -10.9736962033 204.928932188 -7.07106781187 c 0
 202.473757861 -4.6158934848 201.563153083 -1.19729944591 202.197117855 1.97252441356 c 2
 231.803005152 150.001960895 l 1
 132.197340964 150.001960895 l 1
 125.802306572 118.027336195 l 2
 125.57973823 116.914494486 125.162289094 115.821411061 124.538100211 114.79677676 c 0
 121.668704733 110.086534226 115.510023204 108.595031435 110.79365099 111.468161003 c 0
 109.76768328 112.093162176 108.893939726 112.873545961 108.184279282 113.760621516 c 2
 76.1841923783 153.760440971 l 2
 75.4991498779 154.616744096 74.9447909352 155.601067014 74.5617195206 156.693901155 c 0
 72.7372198313 161.898872013 75.4847566609 167.606970402 80.693450843 169.432775229 c 0
 81.7870667313 169.81612067 82.9027844405 169.998039105 84 169.998039105 c 0
 94.6008818677 169.998039105 105.201763735 170.000163152 115.802645603 170.000163152 c 1
 138.197117855 281.972524414 l 2
 138.570873346 283.841301868 139.481478124 285.623613748 140.928932188 287.071067812 c 0
 144.83156058 290.973696203 151.16843942 290.973696203 155.071067812 287.071067812 c 0
 157.526242139 284.615893485 158.436846917 281.197299446 157.802882145 278.027475586 c 2
 136.197322301 170.001525279 l 1
 172.128631345 170.001525279 208.059940388 170.00872466 243.991249432 170.00872466 c 0
 244.320291294 170.00872466 244.65237135 169.992508667 244.986640506 169.959380085 c 0
 250.47836605 169.415108873 254.494678821 164.510681131 253.949923748 159.014073409 c 0
 253.916765715 158.679507085 253.867468816 158.350408945 253.802882145 158.027475586 c 2
 221.802882145 -1.97252441356 l 2
EndSplineSet
Ligature2: "FlipCores subtable" h quotesingle
LCarets2: 1 320
EndChar

StartChar: j.flip
Encoding: 65561 -1 67
Width: 320
Flags: HW
AnchorPoint: "Diacritic_right" 320 140 basechar 0
AnchorPoint: "Diacritic_left" 120 140 basechar 0
AnchorPoint: "Diacritic_up" 204 360 basechar 0
AnchorPoint: "Diacritic_down" 120 -60 basechar 0
AnchorPoint: "Extension_down" 32 0 basechar 0
AnchorPoint: "Extension_up" 88 280 basechar 0
LayerCount: 2
Fore
SplineSet
32 -9.9980391054 m 0
 29.4401231919 -9.9980391054 26.8802463838 -9.02238200756 24.9289321881 -7.07106781187 c 0
 21.0263037967 -3.16843942048 21.0263037967 3.16843942048 24.9289321881 7.07106781187 c 0
 26.8802463838 9.02238200756 29.4401231919 9.9980391054 32 9.9980391054 c 0
 62.8834406762 9.9980391054 89.1477412406 11.6906085569 111.363315135 14.7632651136 c 0
 129.13597454 17.2214180611 144.31309716 20.5626043545 157.196314487 24.5950985818 c 0
 180.406329101 31.859918197 196.082976506 41.3337080353 206.560379432 51.8111109613 c 0
 210.815013015 56.0657445445 214.261018746 60.5262645434 217.05796826 65.1868934901 c 0
 220.5533497 71.0113375281 223.044442549 77.1629546233 224.74672709 83.6617719706 c 0
 227.196658026 93.0148814427 227.996630516 103.115281862 227.640312116 113.730316873 c 0
 227.3554399 122.216907937 226.332621372 131.010704024 224.887006064 139.920949713 c 0
 223.079821041 151.059779299 220.614239744 162.371579712 218.176782971 173.531131159 c 0
 215.709492613 184.827271457 213.26866826 195.962929216 211.618363432 206.715324466 c 0
 210.297965716 215.31824308 209.474667768 223.688318712 209.644863314 231.775951542 c 0
 209.780941088 238.242319797 210.555536337 244.555882112 212.337724262 250.593595766 c 0
 214.424910633 257.664586139 217.941061324 264.327023795 223.238140207 270.001960895 c 1
 88 270.001960895 l 2
 85.4401231919 270.001960895 82.8802463838 270.977617992 80.9289321881 272.928932188 c 0
 77.0263037967 276.83156058 77.0263037967 283.16843942 80.9289321881 287.071067812 c 0
 82.8802463838 289.022382008 85.4401231919 289.998039105 88 289.998039105 c 2
 288 289.998039105 l 2
 293.518067753 289.998039105 297.998039105 285.518067753 297.998039105 280 c 0
 297.998039105 274.481932247 293.518067753 270.001960895 288 270.001960895 c 0
 272.641749264 270.001960895 261.136733101 268.233742262 252.860249248 265.392743021 c 0
 246.233562851 263.118055925 241.693148754 260.211087227 238.477030139 256.994968612 c 0
 235.161758698 253.679697171 232.950347175 249.77566521 231.513514095 244.907948069 c 0
 230.363814112 241.012983241 229.744376431 236.479156465 229.636481591 231.352031398 c 0
 229.50171137 224.947797574 230.170416899 217.660218689 231.381580458 209.769004245 c 0
 232.895727222 199.903733173 235.243663521 189.114726891 237.710123644 177.822387704 c 0
 240.148095024 166.660480204 242.699524093 155.002607513 244.623456223 143.14419133 c 0
 246.162734637 133.656640405 247.301838176 124.034993369 247.625048953 114.406263248 c 0
 248.028834294 102.377146777 247.161036973 90.3023362384 244.087849121 78.5698167671 c 0
 241.954634504 70.425836237 238.750974251 62.4601097441 234.214290015 54.900516062 c 0
 230.585586987 48.8539148326 226.110060129 43.0765204109 220.702515056 37.6689753376 c 0
 207.358494008 24.3249542896 188.633470994 13.4768404668 163.193570738 5.51405847523 c 0
 149.049057582 1.08677403209 132.800843407 -2.45950289601 114.121616289 -5.04304406186 c 0
 90.7723320295 -8.27250514682 63.6177904893 -9.9980391054 32 -9.9980391054 c 0
EndSplineSet
Ligature2: "FlipCores subtable" j quotesingle
LCarets2: 1 320
EndChar

StartChar: k.flip
Encoding: 65562 -1 68
Width: 320
Flags: HW
AnchorPoint: "Diacritic_right" 320 140 basechar 0
AnchorPoint: "Diacritic_left" 120 140 basechar 0
AnchorPoint: "Diacritic_up" 204 360 basechar 0
AnchorPoint: "Diacritic_down" 120 -60 basechar 0
AnchorPoint: "Extension_down" 12 0 basechar 0
AnchorPoint: "Extension_up" 148 280 basechar 0
LayerCount: 2
Fore
SplineSet
12 -9.9980391054 m 2
 9.44012319191 -9.9980391054 6.88024638383 -9.02238200756 4.92893218813 -7.07106781187 c 0
 1.02630379675 -3.16843942048 1.02630379675 3.16843942048 4.92893218813 7.07106781187 c 0
 6.88024638383 9.02238200756 9.44012319191 9.9980391054 12 9.9980391054 c 2
 245.181418595 9.9980391054 l 1
 264.775426231 60.849973351 271.86959824 103.103288582 270.618326246 137.481752083 c 0
 269.894579528 157.366557504 266.392356511 174.634852527 260.892640407 189.547609318 c 0
 254.019265383 208.18511135 244.013071826 223.190541069 232.211741451 234.991871444 c 0
 221.555330272 245.648282623 209.346151805 253.760421802 196.558459595 259.476446944 c 0
 180.573537518 266.621615517 163.698146546 270.001960895 148 270.001960895 c 0
 145.440123192 270.001960895 142.880246384 270.977617992 140.928932188 272.928932188 c 0
 137.026303797 276.83156058 137.026303797 283.16843942 140.928932188 287.071067812 c 0
 142.880246384 289.022382008 145.440123192 289.998039105 148 289.998039105 c 0
 166.559331078 289.998039105 186.14187043 286.04354215 204.732141924 277.733797317 c 0
 219.604604572 271.085891735 233.85062944 261.637254703 246.353877075 249.134007068 c 0
 260.200735495 235.287148648 271.800917209 217.777651991 279.652595742 196.487430799 c 0
 285.932922483 179.45800901 289.806696412 160.039935469 290.601072549 138.214599999 c 0
 292.031655984 98.9095882596 283.52259873 51.894141335 261.273425191 -3.72879251182 c 0
 259.764097104 -7.50211273051 256.072140475 -9.9980391054 252 -9.9980391054 c 2
 12 -9.9980391054 l 2
EndSplineSet
Ligature2: "FlipCores subtable" k quotesingle
LCarets2: 1 320
EndChar

StartChar: l.flip
Encoding: 65563 -1 69
Width: 320
Flags: HW
AnchorPoint: "Diacritic_right" 320 140 basechar 0
AnchorPoint: "Diacritic_left" 120 140 basechar 0
AnchorPoint: "Diacritic_up" 204 360 basechar 0
AnchorPoint: "Diacritic_down" 120 -60 basechar 0
AnchorPoint: "Extension_down" 232 0 basechar 0
AnchorPoint: "Extension_up" 88 280 basechar 0
LayerCount: 2
Fore
SplineSet
241.802882145 -1.97252441356 m 2
 241.429126654 -3.84130186778 240.518521876 -5.62361374754 239.071067812 -7.07106781187 c 0
 235.16843942 -10.9736962033 228.83156058 -10.9736962033 224.928932188 -7.07106781187 c 0
 222.473757861 -4.6158934848 221.563153083 -1.19729944591 222.197117855 1.97252441356 c 2
 247.828049117 130.127180723 l 1
 235.810379133 130.382554553 225.136193294 131.025477767 215.665994646 132.027827328 c 0
 205.621771245 133.090933107 196.929210154 134.556386501 189.397201154 136.431353179 c 0
 181.866488609 138.305997127 175.480808033 140.58477441 170.065508984 143.393027279 c 0
 165.735634504 145.638403263 162.004400328 148.233629337 158.901884855 151.33614481 c 0
 157.1506794 153.087350265 155.625807713 154.982075246 154.3635968 157.012525194 c 0
 152.786026232 159.550277041 151.629887706 162.297816805 150.939203093 165.133686568 c 0
 148.979357222 173.180583148 150.823847177 181.132229107 154.163362945 188.186121717 c 0
 156.041456431 192.153124923 158.446534655 195.984901472 161.244891548 199.758311266 c 0
 164.742459894 204.47456411 168.866633646 209.106584046 173.445195489 213.685145889 c 0
 181.019290206 221.259240606 189.836667065 228.680111418 199.148379511 235.797612424 c 0
 210.783989275 244.691407704 223.192029448 253.098991891 234.821760551 260.507852874 c 0
 240.146728096 263.90018791 245.308971849 267.083098239 250.155398669 270.001960895 c 1
 88 270.001960895 l 2
 85.4401231919 270.001960895 82.8802463838 270.977617992 80.9289321881 272.928932188 c 0
 77.0263037967 276.83156058 77.0263037967 283.16843942 80.9289321881 287.071067812 c 0
 82.8802463838 289.022382008 85.4401231919 289.998039105 88 289.998039105 c 2
 288.001466409 289.992067317 l 2
 289.766055317 289.992067317 291.552652021 289.525311928 293.170827384 288.545060066 c 0
 297.891567583 285.685348767 299.40271645 279.531361948 296.543287668 274.811088122 c 0
 295.563132651 273.193072627 294.195855675 271.952194764 292.631885877 271.135195615 c 2
 292.631885877 271.135195615 271.065028757 259.879284809 245.559153046 243.630457925 c 0
 234.277877213 236.443584589 222.297291721 228.315856137 211.278849221 219.893798859 c 0
 202.467319856 213.158617819 194.271581882 206.227261034 187.587331113 199.543010265 c 0
 183.551194595 195.506873748 180.066274295 191.558466162 177.323083587 187.859444529 c 0
 175.128833236 184.90063474 173.417038614 182.105889657 172.239711766 179.61908087 c 0
 170.079470931 175.056111891 169.863310419 171.950475492 170.365028246 169.890481121 c 0
 170.553473525 169.116746972 170.853277923 168.375906219 171.357803145 167.564303976 c 0
 171.761268862 166.915270651 172.30281164 166.219489273 173.044020479 165.478280434 c 0
 174.356638898 164.165662015 176.377308689 162.653563096 179.276531356 161.150091118 c 0
 182.897603743 159.272284033 187.85640895 157.425121723 194.252560415 155.832907631 c 0
 202.247469957 153.842709665 212.460090271 152.246963116 225.061031986 151.239118143 c 0
 235.142376617 150.432794875 246.752081624 149.998039105 260 149.998039105 c 2
 260 149.998039105 260.010366687 150.006054867 260.222598911 150.006054867 c 1
 260.14532348 150.006054867 260.068203367 150.00872466 259.991249432 150.00872466 c 1
 260.222598911 150.006054867 l 2
 260.475740002 150.000214642 260.730547807 149.984760793 260.986640507 149.959380085 c 0
 266.47836605 149.415108872 270.494678821 144.510681131 269.949923748 139.014073409 c 0
 269.916765715 138.679507085 269.867468816 138.350408945 269.802882145 138.027475586 c 2
 241.802882145 -1.97252441356 l 2
EndSplineSet
Ligature2: "FlipCores subtable" l quotesingle
LCarets2: 1 320
EndChar

StartChar: m.flip
Encoding: 65564 -1 70
Width: 320
Flags: HW
AnchorPoint: "Diacritic_right" 280 140 basechar 0
AnchorPoint: "Diacritic_left" 80 140 basechar 0
AnchorPoint: "Diacritic_up" 204 360 basechar 0
AnchorPoint: "Diacritic_down" 120 -60 basechar 0
AnchorPoint: "Extension_down" 202 0 basechar 0
AnchorPoint: "Extension_up" 118 280 basechar 0
LayerCount: 2
Fore
SplineSet
211.802882145 -1.97252441356 m 2
 211.429126654 -3.84130186778 210.518521876 -5.62361374754 209.071067812 -7.07106781187 c 0
 205.16843942 -10.9736962033 198.83156058 -10.9736962033 194.928932188 -7.07106781187 c 0
 192.473757861 -4.6158934848 191.563153083 -1.19729944591 192.197117855 1.97252441356 c 2
 217.854146269 130.257666483 l 1
 174.791080212 132.116364826 146.170791621 143.993379495 128.037957912 162.126213204 c 0
 111.396209603 178.767961513 104.727988499 199.60264235 102.831785402 219.283986095 c 0
 101.775849334 230.243909504 102.163429545 240.93988511 103.15300682 250.739408489 c 0
 104.389103281 262.9801465 106.577936126 273.876615768 108.197117855 281.972524414 c 0
 108.570873346 283.841301868 109.481478124 285.623613748 110.928932188 287.071067812 c 0
 114.83156058 290.973696203 121.16843942 290.973696203 125.071067812 287.071067812 c 0
 127.526242139 284.615893485 128.436846917 281.197299446 127.802882145 278.027475586 c 0
 126.189471028 269.960420005 124.166055731 259.79564856 123.047197675 248.715891625 c 0
 122.152811336 239.859019047 121.845095855 230.452675989 122.735049864 221.215537418 c 0
 124.341448904 204.5421696 129.733271829 188.715170534 142.180093536 176.268348828 c 0
 156.927827283 161.52061508 183.189184588 149.998039105 230 149.998039105 c 1
 230 149.998039105 230.010366687 150.006054867 230.222598911 150.006054867 c 1
 230.14532348 150.006054867 230.068203367 150.00872466 229.991249432 150.00872466 c 1
 230.222598911 150.006054867 l 2
 230.475740002 150.000214642 230.730547807 149.984760793 230.986640506 149.959380085 c 0
 236.47836605 149.415108873 240.494678821 144.510681131 239.949923748 139.014073409 c 0
 239.916765715 138.679507085 239.867468816 138.350408945 239.802882145 138.027475586 c 2
 211.802882145 -1.97252441356 l 2
EndSplineSet
Ligature2: "FlipCores subtable" m quotesingle
LCarets2: 1 320
EndChar

StartChar: n.flip
Encoding: 65565 -1 71
Width: 320
Flags: HW
AnchorPoint: "Diacritic_right" 290 140 basechar 0
AnchorPoint: "Diacritic_left" 70 140 basechar 0
AnchorPoint: "Diacritic_down" 120 -60 basechar 0
AnchorPoint: "Diacritic_up" 204 360 basechar 0
AnchorPoint: "Extension_down" 202 0 basechar 0
AnchorPoint: "Extension_up" 118 280 basechar 0
LayerCount: 2
Fore
SplineSet
211.802882145 -1.97252441356 m 2
 211.429126654 -3.84130186778 210.518521876 -5.62361374754 209.071067812 -7.07106781187 c 0
 205.16843942 -10.9736962033 198.83156058 -10.9736962033 194.928932188 -7.07106781187 c 0
 192.473757861 -4.6158934848 191.563153083 -1.19729944591 192.197117855 1.97252441356 c 2
 216.178763318 121.880751728 l 2
 216.934724525 126.095931397 216.805932233 129.920309839 216.037431017 133.283547709 c 0
 215.070825428 137.513761607 213.079007698 141.059137667 210.385423818 143.752721547 c 0
 208.28766248 145.850482884 205.669143411 147.529955677 202.547616832 148.622029521 c 0
 202.19250781 148.746265296 201.830549791 148.863059617 201.461644997 148.97201841 c 0
 200.561617859 146.286202971 199.500703502 143.685307531 198.298565641 141.185651907 c 0
 195.129233396 134.595526573 190.981348568 128.690115632 186.053864306 123.76263137 c 0
 181.532829497 119.241596561 176.377233064 115.561165138 170.664461182 113.116209539 c 0
 166.09897905 111.162271707 161.137982669 110.001960895 156 110.001960895 c 0
 148.949804596 110.001960895 142.411275467 110.967457276 136.456423046 112.931486551 c 0
 129.005798906 115.388851217 122.561906115 119.411438524 117.307118208 124.666226431 c 0
 111.059369103 130.913975537 106.659719597 138.641002831 103.588424583 147.210965945 c 0
 99.7452847376 157.934640019 97.9115511548 170.076214737 97.3506743622 183.181374835 c 0
 96.7895020846 196.293439083 97.5240394848 210.417832367 99.0990014484 225.119825785 c 0
 101.067396771 243.494450535 104.357688515 262.775377712 108.197117855 281.972524414 c 0
 108.570873346 283.841301868 109.481478124 285.623613748 110.928932188 287.071067812 c 0
 114.83156058 290.973696203 121.16843942 290.973696203 125.071067812 287.071067812 c 0
 127.526242139 284.615893485 128.436846917 281.197299446 127.802882145 278.027475586 c 0
 124.038854138 259.207335552 120.854840168 240.470975992 118.98053626 222.974678077 c 0
 117.481338839 208.979933363 116.825945003 195.78126152 117.328326522 184.042872051 c 0
 117.831003526 172.297578431 119.514308772 162.061310842 122.410949671 153.978692421 c 0
 124.731479252 147.50362154 127.786209167 142.47140672 131.449253832 138.808362055 c 0
 134.527548725 135.730067162 138.15332412 133.433309198 142.743070645 131.919519114 c 0
 146.420514756 130.70662459 150.775531745 129.998039105 156 129.998039105 c 0
 158.093961371 129.998039105 160.36490903 130.466479612 162.781162606 131.500589293 c 0
 165.795560359 132.790693085 168.976183043 134.969221354 171.911728683 137.904766994 c 0
 174.467108744 140.460147056 176.860271394 143.605342754 178.855026427 147.141368097 c 0
 181.349602839 151.56340753 183.222475034 156.568980588 184.175191947 161.808923606 c 0
 185.035140403 166.538640115 189.185519167 169.998039105 194 169.998039105 c 0
 199.350826617 169.998039105 204.469002487 169.140664568 209.173103363 167.494923167 c 0
 215.055124368 165.437083476 220.26329629 162.159120322 224.527559442 157.894857171 c 0
 230.003020703 152.419395909 233.765395288 145.479926876 235.528825767 137.762520519 c 0
 236.939292044 131.589812524 237.062253171 124.945326204 235.836119225 118.201589501 c 0
 235.825548097 118.143448298 235.814468605 118.08540789 235.802882145 118.027475586 c 2
 211.802882145 -1.97252441356 l 2
EndSplineSet
Ligature2: "FlipCores subtable" n quotesingle
LCarets2: 1 320
EndChar

